<?xml version="1.0" encoding="UTF-8" standalone="no"?>
<!-- Created with Inkscape (http://www.inkscape.org/) -->

<svg
   width="210mm"
   height="297mm"
   viewBox="0 0 210 297"
   version="1.1"
   id="svg1"
   xmlns="http://www.w3.org/2000/svg"
   xmlns:svg="http://www.w3.org/2000/svg">
  <defs
     id="defs1" />
  <g
     id="layer1">
    <g
       id="g155"
       transform="matrix(0.6685342,0,0,0.63635909,374.51385,-89.648222)">
      <path
         style="fill:#ff6243;stroke-width:0.492175"
         d="m -405.18257,221.00056 c -51.73233,0 -93.82433,39.06367 -93.82433,87.07936 0,31.78114 8.6625,43.80806 76.09318,137.39661 l 9.79871,13.60563 0.8409,1.16759 c 1.58271,2.19818 3.16811,3.36794 6.01678,3.36794 2.84868,0 6.58308,-1.16976 8.1663,-3.36747 l 8.8735,-12.31757 c 68.99654,-95.78436 77.8593,-108.09151 77.8593,-139.85225 0,-48.01617 -42.092,-87.07984 -93.82434,-87.07984 z m 0,126.66081 c -23.51688,0 -42.64733,-17.75518 -42.64733,-39.58145 0,-21.82626 19.13045,-39.58144 42.64733,-39.58144 23.51688,0 42.64734,17.75518 42.64734,39.58144 0,21.82627 -19.13046,39.58145 -42.64734,39.58145 z"
         id="path1-9" />
      <path
         style="fill:#1a1a1a;stroke-width:0.492175"
         d="m -405.18257,221.00056 v 47.49792 c 23.51688,0 42.64734,17.75518 42.64734,39.58144 0,21.82627 -19.13046,39.58145 -42.64734,39.58145 l 0.63653,116.30576 c 2.84868,0 5.13443,-1.88377 6.45501,-3.71691 l 8.8735,-12.31757 c 68.99654,-95.78436 77.8593,-108.09151 77.8593,-139.85225 0,-48.01617 -42.092,-87.07984 -93.82434,-87.07984 z"
         id="path2-54" />
      <path
         style="fill:#eee300;fill-opacity:0.963964;stroke:#d8ec00;stroke-width:0.54505;stroke-dasharray:none;stroke-opacity:1"
         id="path153"
         d="m -362.68856,308.05133 a 42.522381,39.354336 0 0 1 -42.48064,39.35432 42.522381,39.354336 0 0 1 -42.56404,-39.27707 42.522381,39.354336 0 0 1 42.3971,-39.43141 42.522381,39.354336 0 0 1 42.64726,39.19966" />
    </g>
  </g>
</svg>
