<?xml version="1.0" encoding="UTF-8" standalone="no"?>
<!-- Created with Inkscape (http://www.inkscape.org/) -->

<svg
   version="1.1"
   id="svg1"
   width="800"
   height="450"
   viewBox="0 0 800 450"
   sodipodi:docname="lango-laenge-2.svg"
   inkscape:version="1.4 (86a8ad7, 2024-10-11)"
   xmlns:inkscape="http://www.inkscape.org/namespaces/inkscape"
   xmlns:sodipodi="http://sodipodi.sourceforge.net/DTD/sodipodi-0.dtd"
   xmlns="http://www.w3.org/2000/svg"
   xmlns:svg="http://www.w3.org/2000/svg">
  <defs
     id="defs1" />
  <sodipodi:namedview
     id="namedview1"
     pagecolor="#ffffff"
     bordercolor="#000000"
     borderopacity="0.25"
     inkscape:showpageshadow="2"
     inkscape:pageopacity="0.0"
     inkscape:pagecheckerboard="0"
     inkscape:deskcolor="#d1d1d1"
     inkscape:zoom="0.66860875"
     inkscape:cx="283.42435"
     inkscape:cy="358.2065"
     inkscape:window-width="1920"
     inkscape:window-height="1111"
     inkscape:window-x="-9"
     inkscape:window-y="-9"
     inkscape:window-maximized="1"
     inkscape:current-layer="g1" />
  <g
     inkscape:groupmode="layer"
     inkscape:label="Image"
     id="g1">
    <path
       style="fill:#ff0000;fill-opacity:0.20332"
       d="m 174.80328,309.97201 -17.57381,-8.22604 -2.80433,0.18696 -7.47821,-5.42171 -1.6826,0.56087 -4.11302,-2.61738 -4.48693,0.18696 -5.23475,-4.11302 -6.16953,-11.03037 -1.12173,-4.11301 -6.91735,-8.22604 1.86955,-4.48693 -0.74782,-4.67388 3.17824,-6.35649 1.30869,-6.73038 1.6826,-7.29126 7.47822,-9.72168 3.55215,-4.67388 v -2.99129 l 8.41299,-8.97386 0.18695,-6.16953 9.90864,-11.77818 0.18695,-2.24347 14.39557,-12.71297 3.92607,-0.18695 4.11301,-3.55215 6.7304,0.56086 10.09559,-2.99128 20.00422,0.37391 3.3652,-0.18696 8.41299,-3.17824 11.03037,-0.37391 1.86955,1.12173 h 6.16953 l 7.10431,1.86956 5.79561,0.18695 7.29126,2.43042 8.86563,1.53306 7.66745,0.1322 11.63337,-0.1322 10.4436,-0.13219 7.00646,-3.04054 7.00647,0.39659 3.70152,-1.32198 24.05993,0.1322 h 6.74207 l 1.32198,-0.92538 h 11.50117 l 6.34548,-2.51175 h 5.0235 l 2.77614,-1.32198 9.51822,0.3966 1.85076,-1.18978 3.83373,0.1322 1.05758,-0.66099 5.94888,-0.1322 0.66099,1.05758 8.32843,-0.26439 4.49472,-1.45418 5.81668,0.3966 h 4.36252 l 1.71856,-0.79319 11.89777,-0.1322 2.37955,0.92539 3.04055,-1.85077 19.30082,0.52879 11.10458,-2.51175 8.19624,-2.77614 5.1557,-0.79319 7.79965,-1.45417 7.40305,-2.51175 h 3.43713 l 3.43714,-3.43713 3.04054,-0.92539 h 4.75911 l 7.79964,-2.64394 3.83373,-1.85077 15.2027,-5.28789 4.09812,-1.32198 3.17274,-2.37955 7.53525,-0.52879 8.85723,-1.18978 1.98296,-0.79318 5.68449,0.52879 13.48413,0.79318 3.30494,-0.52879 5.42009,3.30494 6.08108,4.62691 9.78261,8.32843 1.98296,2.90835 4.09812,1.98296 2.24736,4.62691 5.94888,4.7591 1.05758,3.70153 9.51822,6.08108 9.51821,1.18978 4.36252,0.1322 5.1557,1.85076 5.55229,3.83373 0.79318,3.70152 4.62691,3.17274 2.24736,4.49471 1.71856,6.08109 1.45417,3.30493 0.1322,11.63337 3.17274,5.1557 -2.24736,3.04054 0.2644,3.96593 -15.07051,12.16216 h -8.72503 l -17.97884,3.43713 -10.4436,1.71857 -10.70799,4.7591 -20.88719,13.48413 -11.36898,1.18978 -12.16216,-0.66099 -11.89777,-1.45417 -3.30494,-1.58637 -8.46063,-0.52879 -8.85723,3.96592 -12.29436,2.51175 -14.14512,3.70153 -9.91481,1.58637 -11.50117,1.85076 h -8.06404 l -5.55229,2.37956 -14.80611,0.13219 h -13.74854 l -10.047,0.79319 -6.08108,0.92538 -9.38602,4.75911 -12.55875,2.24735 -14.27732,3.17274 -12.29436,3.96592 -15.4671,2.37956 -14.01293,2.77614 -5.81668,2.64395 -4.75911,-0.26439 -6.34547,2.11516 -17.58226,-0.52879 -15.4671,-3.17274 -10.70799,0.39659 -11.63337,1.05758 -20.6228,0.39659 -12.95534,1.18978 -19.43302,6.60987 -8.32844,2.77614 -13.35194,3.56933 -11.36898,1.18978 -6.60987,-0.52879 -4.75911,-1.05758 z"
       id="path1" />
    <path
       style="fill:#99ff55;fill-opacity:0.20332"
       d="m 295.41952,260.68017 -21.41598,-3.70152 -21.68038,0.26439 2.11516,-10.3114 -3.70153,-2.11516 -5.55229,-5.0235 6.34548,-2.37955 6.34547,2.37955 -6.87426,-7.13866 -7.13866,-5.81668 3.17274,-7.40306 15.3349,-2.11516 -10.5758,-7.66745 4.49471,-9.25381 14.27733,2.37956 3.70152,2.37955 14.80611,-10.84019 6.60987,0.2644 12.69096,8.46063 11.63337,3.43713 7.93184,0.79319 10.5758,-1.85077 6.60987,-2.90834 2.90834,-1.58637 8.72503,-1.85076 4.49471,-0.79319 7.93185,-2.90834 2.64395,-1.05758 9.51821,-3.43713 4.49471,-0.52879 7.93185,-1.58637 4.7591,-0.26439 8.98943,-0.2644 6.34547,3.17274 6.34548,4.75911 h 6.34548 l 6.34547,-0.79319 3.70153,-4.75911 4.75911,-5.55229 3.43713,-0.52879 8.98942,-0.79318 12.16216,-1.05758 3.43714,2.11516 h 10.047 9.51821 l 12.42656,-0.52879 7.40306,1.32197 10.84019,2.64395 8.19623,-1.85076 8.19624,-2.11516 3.96593,0.26439 6.08108,1.32198 6.87426,0.52879 6.34548,2.37955 2.37955,7.13866 1.58637,3.17274 -6.08108,13.21973 4.23032,-0.26439 3.43713,3.70152 c 0,0 0.79319,3.43714 0.52879,5.02351 -0.26439,1.58636 -9.25382,10.047 -9.25382,11.10458 0,1.05758 -6.08108,5.55229 -6.08108,5.55229 l -12.16216,5.81669 -16.92127,-4.49472 -15.5993,0.52879 -14.27732,0.79319 -4.7591,1.05758 -12.42656,3.70152 -10.84019,-1.58636 -7.93184,1.05757 -18.24325,4.49472 -13.48413,5.0235 -7.13866,-8.46064 -6.60987,-2.37955 -13.21975,4.23032 -4.7591,5.0235 -9.51822,2.37955 -16.65687,1.85077 -9.51821,-0.79319 -8.19624,-2.64395 -10.04701,2.90835 -14.80611,2.90834 -10.3114,-0.26439 -8.46063,1.32197 z"
       id="path2" />
  </g>
</svg>
