<?xml version="1.0" encoding="UTF-8" standalone="no"?>
<!-- Created with Inkscape (http://www.inkscape.org/) -->

<svg
   version="1.1"
   id="svg1"
   width="315.72891"
   height="310.46451"
   viewBox="0 0 315.7289 310.46451"
   sodipodi:docname="logo.svg"
   inkscape:version="1.4 (86a8ad7, 2024-10-11)"
   xmlns:inkscape="http://www.inkscape.org/namespaces/inkscape"
   xmlns:sodipodi="http://sodipodi.sourceforge.net/DTD/sodipodi-0.dtd"
   xmlns="http://www.w3.org/2000/svg"
   xmlns:svg="http://www.w3.org/2000/svg">
  <defs
     id="defs1" />
  <sodipodi:namedview
     id="namedview1"
     pagecolor="#ffffff"
     bordercolor="#000000"
     borderopacity="0.25"
     inkscape:showpageshadow="2"
     inkscape:pageopacity="0.0"
     inkscape:pagecheckerboard="0"
     inkscape:deskcolor="#d1d1d1"
     inkscape:zoom="0.66484375"
     inkscape:cx="127.09753"
     inkscape:cy="280.51704"
     inkscape:window-width="1920"
     inkscape:window-height="1111"
     inkscape:window-x="-9"
     inkscape:window-y="-9"
     inkscape:window-maximized="1"
     inkscape:current-layer="g1" />
  <g
     inkscape:groupmode="layer"
     inkscape:label="Image"
     id="g1"
     transform="translate(-160.75597,-150.58016)">
    <path
       style="opacity:0.68;fill:#0c669a;fill-opacity:1;stroke:none;stroke-width:1.65899;stroke-opacity:1"
       d="m 310.39464,261.05421 c -1.21353,-1.15947 -2.80879,-0.29754 -3.42777,1.13633 -0.63012,1.45968 1.44657,3.83333 3.18393,1.21789 0.42012,-0.63246 1.09597,-1.54004 0.24384,-2.35422 z"
       id="path55"
       sodipodi:nodetypes="ssss" />
    <path
       style="opacity:0.68;fill:#0c669a;fill-opacity:1;stroke:none;stroke-width:1.65899;stroke-opacity:1"
       d="m 308.40191,271.59052 c 0.35659,-0.8879 -0.0644,-1.78148 -1.00132,-2.12497 -1.94727,-0.71395 -4.07806,1.05713 -3.09684,2.57405 1.02327,1.58193 3.38646,1.32297 4.09816,-0.44908 z"
       id="path54"
       sodipodi:nodetypes="ssss" />
    <path
       style="opacity:0.68;fill:#0c669a;fill-opacity:1;stroke:none;stroke-width:1.65899;stroke-opacity:1"
       d="m 307.40297,285.4704 c 2.08087,-0.76294 2.13571,-3.74737 0.0986,-5.36274 -3.10452,-2.46177 -7.27132,1.51944 -4.69481,4.48567 1.41988,1.63465 2.15,1.77395 4.59624,0.87707 z"
       id="path53"
       sodipodi:nodetypes="sssss" />
    <path
       style="opacity:0.68;fill:#0c669a;fill-opacity:1;stroke:none;stroke-width:1.65899;stroke-opacity:1"
       d="m 307.8402,298.15239 c 0.76708,-0.46458 1.23635,-1.91486 1.04279,-3.22285 -0.44995,-3.04043 -6.34793,-3.53004 -6.94328,-0.57639 -0.81006,4.01898 2.26662,5.99999 5.90049,3.79924 z"
       id="path52"
       sodipodi:nodetypes="ssss" />
    <path
       style="opacity:0.68;fill:#0c669a;fill-opacity:1;stroke:none;stroke-width:1.65899;stroke-opacity:1"
       d="m 300.35037,300.19454 c -2.69071,-2.84078 -2.20357,-7.63763 1.02179,-10.06171 1.72539,-1.29674 1.91336,-1.40347 1.21018,-2.06499 -3.61532,-3.40112 -4.38156,-7.04817 -1.20861,-10.3257 1.51205,-1.4447 3.11794,-2.3447 2.47712,-2.3447 -1.75839,0 -3.47592,-4.79625 -2.14989,-7.16359 0.64248,-1.14701 1.7506,-2.08548 2.46249,-2.08548 2.1947,0 -2.56353,-5.93722 3.19869,-8.52768 2.08093,-0.9355 2.51237,-0.96443 1.67304,-2.46286 -2.23756,-3.99469 3.15499,-7.04714 6.21866,-3.52007 1.58989,1.83037 -0.28352,5.54355 -2.7969,5.54355 -1.35025,0 -1.45797,0.2657 -0.4847,1.19562 2.15278,2.05687 1.53208,6.74009 -1.0125,7.63947 -1.50008,0.53019 -1.8519,1.04342 -1.04279,1.5212 2.1202,1.252 1.75468,7.22465 -1.19055,8.16051 -2.37738,0.75543 6.64066,5.19689 1.45367,11.29233 -1.76798,2.07763 -1.97246,1.93606 0,3.64161 2.83119,2.44806 2.65735,7.84311 -0.31687,9.83353 -3.11068,2.08177 -7.40007,1.95955 -9.51283,-0.27104 z"
       id="path51"
       sodipodi:nodetypes="sssssssssssssssssss" />
    <path
       style="opacity:0.68;fill:#0c669a;fill-opacity:1;stroke:none;stroke-width:1.65899;stroke-opacity:1"
       d="m 309.57767,312.97228 c 3.84015,-4.0543 -2.5232,-9.64451 -6.5734,-5.77473 -1.73417,1.65694 -1.56344,3.79786 0.47446,5.94941 2.22109,2.34496 3.75398,2.30105 6.09894,-0.17468 z"
       id="path48"
       sodipodi:nodetypes="ssss" />
    <path
       style="opacity:0.68;fill:#0c669a;fill-opacity:1;stroke:none;stroke-width:1.65899;stroke-opacity:1"
       d="m 312.99156,329.35943 c 2.74436,-1.83661 2.99499,-5.04947 0.59181,-7.58668 -2.24866,-2.37408 -5.06155,-2.31141 -7.65929,0.17062 -5.00865,4.78556 1.22463,11.32626 7.06748,7.41606 z"
       id="path47"
       sodipodi:nodetypes="ssss" />
    <path
       style="opacity:0.68;fill:#0c669a;fill-opacity:1;stroke:none;stroke-width:1.65899;stroke-opacity:1"
       d="m 317.47495,347.92485 c 4.70191,-4.49249 1.90007,-11.03639 -4.72535,-11.03639 -6.22456,0 -8.86198,7.11188 -4.26595,11.5032 3.33403,3.18553 5.27411,3.08479 8.9913,-0.46681 z"
       id="path46"
       sodipodi:nodetypes="ssss" />
    <path
       style="opacity:0.68;fill:#0c669a;fill-opacity:1;stroke:none;stroke-width:1.65899;stroke-opacity:1"
       d="m 306.62488,350.79404 c -5.11207,-3.84203 -4.22339,-13.69941 1.38848,-15.4012 2.45224,-0.74365 1.7885,-2.48972 -0.94643,-2.48972 -7.57332,0 -7.32891,-13.83184 0.26953,-15.25193 1.59265,-0.29765 1.31821,-0.45724 -0.95238,-0.55382 -7.00295,-0.2979 -10.08206,-6.97422 -5.31647,-11.52756 6.91803,-6.60987 17.01971,2.61281 10.45417,9.54449 -1.59134,1.68008 -1.53047,1.85895 0.93756,2.7555 7.40786,2.69101 7.65671,12.24059 0.39197,15.0417 -2.04889,0.79001 -1.9896,0.86689 0.71318,0.9248 7.76409,0.16633 12.08622,11.19594 6.48462,16.54805 -3.28407,3.13777 -9.54032,3.32871 -13.42423,0.40969 z"
       id="path45"
       sodipodi:nodetypes="ssssssssssss" />
    <path
       style="opacity:0.68;fill:#0c669a;fill-opacity:1;stroke:none;stroke-width:1.65899;stroke-opacity:1"
       d="m 321.21391,363.85274 c 3.34559,-6.44742 -6.56245,-10.32097 -10.12611,-3.95882 -0.88455,1.57919 -0.75839,2.59429 0.56169,4.51924 2.27762,3.32127 7.71555,3.00263 9.56442,-0.56042 z"
       id="path44"
       sodipodi:nodetypes="ssss" />
    <path
       style="opacity:0.68;fill:#0c669a;fill-opacity:1;stroke:none;stroke-width:1.65899;stroke-opacity:1"
       d="m 310.13585,367.58712 c -5.23325,-5.36703 -1.46635,-13.76088 6.17548,-13.76088 5.37029,0 8.38292,2.91807 8.38292,8.11977 0,7.15722 -9.49329,10.8357 -14.5584,5.64111 z"
       id="path43"
       sodipodi:nodetypes="ssss" />
    <path
       style="opacity:0.68;fill:#cede3d;fill-opacity:1;stroke:none;stroke-width:1.65899;stroke-opacity:1"
       d="m 419.55051,350.14542 c -3.30083,-9.76976 -3.30083,-9.76976 -2.58583,-25.87166 1.59592,-35.94 -8.22202,-48.59097 -47.43059,-61.11703 -12.7081,-4.05988 -25.57702,-8.66984 -29.20174,-10.46077 -6.82397,-3.37164 -0.89347,4.45107 7.04518,9.29305 2.72281,1.6607 9.64311,4.6594 15.37843,6.66377 28.7216,10.03758 34.81445,13.47001 41.35252,23.29615 5.80854,8.7297 7.6306,16.77354 7.45166,32.89687 l -0.15943,14.36033 5.34162,11.45428 c 6.27217,13.4497 7.45309,13.23313 2.80814,-0.51499 z"
       id="path42"
       sodipodi:nodetypes="sssssssscsss" />
    <path
       style="opacity:0.68;fill:#6cb90b;fill-opacity:1;stroke:none;stroke-width:1.65899;stroke-opacity:1"
       d="m 420.76119,366.51352 c -1.36203,-3.41608 -3.8746,-8.90119 -5.58347,-12.18911 -5.86022,-11.27523 -6.23161,-12.9689 -6.1175,-27.8975 0.23887,-31.25251 -7.72996,-41.51804 -40.97692,-52.78684 -20.21059,-6.85022 -28.09025,-11.16021 -31.73668,-17.35916 -4.74355,-8.06408 -2.90079,-9.55882 6.72733,-5.45678 3.36918,1.43543 12.22609,4.60182 19.68201,7.03644 49.05321,16.01761 60.77237,29.52498 56.89567,65.57732 -1.3757,12.79369 -1.33725,13.10551 3.54305,28.72491 4.63803,14.84407 2.58662,26.94159 -2.43349,14.35072 z"
       id="path41"
       sodipodi:nodetypes="ssssssssss" />
    <path
       style="opacity:0.68;fill:#0c669a;fill-opacity:1;stroke:none;stroke-width:1.65899;stroke-opacity:1"
       d="m 323.17016,381.66176 c 1.18102,-1.82583 -0.48296,-5.75795 -2.72422,-6.43762 -2.55276,-0.77413 -6.17956,1.92847 -6.17956,4.60485 0,4.13331 6.54432,5.4804 8.90378,1.83277 z"
       id="path40"
       sodipodi:nodetypes="ssss" />
    <path
       style="opacity:0.68;fill:#0c669a;fill-opacity:1;stroke:none;stroke-width:1.65899;stroke-opacity:1"
       d="m 313.29927,384.08022 c -2.56416,-3.1146 -2.67057,-4.50341 -0.63348,-8.26725 3.94332,-7.2859 15.82325,-2.7243 13.72342,5.26947 -1.59184,6.05987 -9.14495,7.78965 -13.08994,2.99778 z"
       id="path39"
       sodipodi:nodetypes="ssss" />
    <path
       style="opacity:0.68;fill:#0c669a;fill-opacity:1;stroke:none;stroke-width:1.65899;stroke-opacity:1"
       d="m 321.39643,396.78999 c 2.45613,-1.48749 1.0489,-5.60102 -1.91612,-5.60102 -1.95433,0 -2.69507,0.59534 -2.9589,2.37817 -0.3009,2.03332 1.17887,4.06751 2.9589,4.06751 0.28677,0 1.14902,-0.38009 1.91612,-0.84466 z"
       id="path38"
       sodipodi:nodetypes="sssss" />
    <path
       style="opacity:0.68;fill:#0c669a;fill-opacity:1;stroke:none;stroke-width:1.65899;stroke-opacity:1"
       d="m 314.30306,397.73068 c -2.70654,-4.83198 0.28294,-10.02889 5.76906,-10.02889 4.57953,0 7.70371,7.61687 4.41356,10.76046 -2.07988,1.98724 -8.93561,1.49469 -10.18262,-0.73157 z"
       id="path37"
       sodipodi:nodetypes="ssss" />
    <path
       style="opacity:0.68;fill:#0c669a;fill-opacity:1;stroke:none;stroke-width:1.65899;stroke-opacity:1"
       d="m 321.21568,406.20103 c -0.34493,-0.85882 -1.12583,-1.56148 -1.73537,-1.56148 -1.79286,0 -2.5187,3.11382 -0.94275,4.04442 1.85043,1.09271 3.49998,-0.43662 2.67812,-2.48294 z"
       id="path36"
       sodipodi:nodetypes="ssss" />
    <path
       style="opacity:0.68;fill:#0c669a;fill-opacity:1;stroke:none;stroke-width:1.65899;stroke-opacity:1"
       d="m 315.56473,410.46323 c -3.5,-3.34409 0.36594,-8.99424 5.51103,-8.05451 2.94591,0.53807 4.56976,4.5446 2.88478,7.11765 -1.30447,1.99201 -6.66538,2.59022 -8.39581,0.93686 z"
       id="path35"
       sodipodi:nodetypes="ssss" />
    <path
       style="opacity:0.68;fill:#0c669a;fill-opacity:1;stroke:none;stroke-width:1.65899;stroke-opacity:1"
       d="m 321.56589,417.53316 c 0,-0.51564 -0.70389,-0.93754 -1.56419,-0.93754 -1.61257,0 -2.0717,1.17565 -0.89733,2.29771 0.83311,0.796 2.46152,-0.10381 2.46152,-1.36017 z"
       id="path34"
       sodipodi:nodetypes="ssss" />
    <path
       style="opacity:0.68;fill:#0c669a;fill-opacity:1;stroke:none;stroke-width:1.65899;stroke-opacity:1"
       d="m 316.5605,421.37806 c -2.99057,-2.85739 -0.70595,-7.77146 3.61307,-7.77146 2.1831,0 4.52068,2.5053 4.52068,4.84504 0,3.1702 -5.72339,5.2294 -8.13375,2.92642 z"
       id="path33"
       sodipodi:nodetypes="ssss" />
    <path
       style="opacity:0.68;fill:#cad553;fill-opacity:1;stroke:none;stroke-width:1.65899;stroke-opacity:1"
       d="M 387.42879,422.41711 C 492.35181,365.63543 474.34481,217.69156 358.42708,184.14152 l -8.50003,-2.46017 1.86182,3.9733 c 1.7058,3.64028 2.5056,4.18 9.54282,6.4396 97.1987,31.20969 119.99862,152.7258 40.05921,213.50225 -29.52676,22.44863 -38.06355,11.38091 -27.73726,-35.96062 1.74897,-8.0183 3.17996,-14.88854 3.17996,-15.26724 0,-3.07134 3.91926,1.40981 6.82473,7.80318 8.79286,19.34828 7.60177,9.79546 -3.33882,-26.77785 -6.02348,-20.13589 -10.24978,-21.83229 -10.30469,-4.13621 -0.0342,11.02572 -0.49138,14.72091 -2.88329,23.30606 -9.07043,32.55595 -7.46447,46.50025 7.80403,67.76075 3.7048,5.15874 3.13947,5.15454 12.49323,0.0926 z"
       id="path32"
       sodipodi:nodetypes="sscscssssssssss" />
    <path
       style="opacity:0.68;fill:#6cb90b;fill-opacity:1;stroke:none;stroke-width:1.65899;stroke-opacity:1"
       d="m 370.15962,420.3319 c -12.91773,-20.78778 -14.37639,-33.42144 -7.11258,-61.60337 5.11734,-19.8541 5.91914,-26.12168 4.51355,-35.28193 -2.21201,-14.41583 8.41684,-9.82581 13.82284,5.96932 2.94888,8.61601 13.17754,46.56954 13.17754,48.89542 0,5.11413 -7.00136,-1.75078 -12.06557,-11.83043 -2.42883,-4.83426 -3.56091,-6.26073 -3.95355,-4.9817 -11.93077,38.86587 -8.05686,58.47787 9.67809,48.99594 90.41867,-48.3421 71.53265,-186.85925 -29.48501,-216.25382 -7.14511,-2.0791 -12.08737,-7.64281 -12.13198,-13.65742 -0.024,-3.22926 20.55876,2.18378 35.44458,9.32155 100.66738,48.27014 104.45918,181.76482 6.67858,235.12922 -11.58185,6.32086 -11.74139,6.28046 -18.56649,-4.70278 z"
       id="path31"
       sodipodi:nodetypes="sssssscssssss" />
    <path
       style="opacity:0.68;fill:#0c669a;fill-opacity:1;stroke:none;stroke-width:1.65899;stroke-opacity:1"
       d="m 317.38842,429.04259 c -1.15386,-1.32837 -1.10888,-1.84505 0.27574,-3.168 2.23624,-2.13664 5.18465,-0.94957 4.75696,1.91522 -0.40743,2.72894 -3.15615,3.41317 -5.0327,1.25278 z"
       id="path30"
       sodipodi:nodetypes="ssss" />
    <path
       style="opacity:0.68;fill:#cede3d;fill-opacity:1;stroke:none;stroke-width:1.65899;stroke-opacity:1"
       d="m 222.97561,335.89213 c 2.58197,-9.89493 2.89567,-16.02008 1.17362,-22.91581 -6.28819,-25.18034 1.88802,-35.71082 35.93615,-46.28358 28.86036,-8.96184 34.35294,-17.97428 27.04914,-44.3833 -6.19742,-22.40853 -1.22833,-35.76308 15.02282,-40.3742 21.30954,-6.04638 37.00325,8.18991 37.2094,33.75386 0.0724,8.97133 0.0959,9.05308 1.52762,5.32516 11.38933,-29.65337 -11.98317,-55.58897 -42.4368,-47.09054 -20.07615,5.60247 -26.44811,22.39005 -17.13856,45.15322 9.51337,23.26146 4.55184,31.44884 -25.1414,41.48767 -35.37587,11.96004 -45.61735,25.2616 -38.96994,50.61391 2.43236,9.27668 2.34242,15.03536 -0.52981,33.92319 -2.23833,14.71923 -1.7377,16.35538 1.75496,5.73552 1.71209,-5.20589 3.75635,-11.93117 4.5428,-14.9451 z"
       id="path29"
       sodipodi:nodetypes="sssssscsssssss" />
    <path
       style="opacity:0.68;fill:#cede3d;fill-opacity:1;stroke:none;stroke-width:1.65899;stroke-opacity:1"
       d="m 214.87118,364.59916 c -0.3329,-0.79481 -0.58,-0.55872 -0.63003,0.60195 -0.0453,1.05032 0.20119,1.63878 0.54769,1.30769 0.34651,-0.33107 0.38355,-1.19041 0.0823,-1.90964 z"
       id="path28"
       sodipodi:nodetypes="sssss" />
    <path
       style="opacity:0.68;fill:#cede3d;fill-opacity:1;stroke:none;stroke-width:1.65899;stroke-opacity:1"
       d="m 272.73669,416.09745 c 5.94654,-20.90179 3.14788,-39.66141 -10.55336,-70.74009 -2.41582,-5.47988 -5.71229,-13.32604 -7.32543,-17.43594 -1.61317,-4.10991 -3.72441,-9.22343 -4.69165,-11.3634 l -1.75864,-3.89084 -1.99711,2.89451 c -2.78513,4.03661 -2.54571,6.55476 1.74499,18.35348 3.39491,9.3355 3.81575,11.674 4.3794,24.33565 0.58953,13.24302 0.68638,13.73594 1.77401,9.02949 2.36276,-10.22422 5.40496,-5.91929 11.37622,16.09812 10.30901,38.01177 -4.99941,42.67124 -36.99474,11.26021 -57.54023,-56.48941 -44.51849,-150.18168 26.5754,-191.21167 6.8433,-3.94943 9.08482,-5.7879 9.55259,-7.83493 0.33618,-1.47104 0.79199,-3.23523 1.01292,-3.9204 2.18866,-6.78739 -36.74812,20.13937 -48.0612,33.23675 -58.88715,68.17489 -37.19642,159.18654 48.52809,203.61802 1.88652,0.97779 3.52313,-2.18152 6.43851,-12.42896 z"
       id="path27"
       sodipodi:nodetypes="sssscssssssssccss" />
    <path
       style="opacity:0.68;fill:#0c669a;fill-opacity:1;stroke:none;stroke-width:1.65899;stroke-opacity:1"
       d="M 258.47727,427.75656 C 161.83313,377.72949 156.22818,252.42945 248.12022,196.22212 c 12.95564,-7.92455 22.04876,-10.76467 20.94783,-6.5428 -0.32152,1.23296 -0.89985,4.13669 -1.28518,6.4527 -0.65599,3.9429 -1.13575,4.43948 -7.53687,7.80126 -58.26411,30.59948 -82.18638,104.65082 -51.46108,159.29766 l 2.76694,4.92117 0.28812,-4.42301 c 0.15838,-2.43263 1.21428,-11.41673 2.34626,-19.96463 2.55216,-19.27194 2.54871,-23.38968 -0.0274,-32.78082 -6.95286,-25.34621 5.71873,-42.01273 40.14729,-52.8044 30.01593,-9.40853 32.99695,-15.15997 22.41782,-43.25195 -9.18672,-24.39458 5.35566,-44.93303 31.8071,-44.92164 32.02606,0.0143 47.07688,26.21326 33.10436,57.62596 -4.95108,11.13091 -8.83712,12.96916 -6.47402,3.06245 7.12862,-29.88486 -9.00817,-52.81419 -32.44671,-46.10461 -14.15441,4.05187 -18.17721,15.45638 -12.9538,36.72363 7.20909,29.35195 1.54597,38.56294 -29.71942,48.33845 -30.98527,9.68792 -38.5459,19.0117 -33.44986,41.25049 2.65827,11.60049 2.20116,15.08561 -5.34523,40.75308 -4.76227,16.19788 -5.58869,18.19837 -7.33745,17.76143 -7.49031,-1.87151 21.20082,29.1535 35.00997,37.85788 19.81195,12.48813 21.99925,3.59448 9.46943,-38.5031 -0.97033,-3.26012 -1.35367,-3.78351 -1.40485,-1.9181 -0.13945,5.08122 -7.24727,22.82419 -7.35414,18.35772 -0.0403,-1.68436 -0.21991,-1.76145 -1.16086,-0.49818 -0.83038,1.11484 -0.95281,0.48204 -0.48195,-2.49085 3.50748,-22.14481 2.87093,-31.94779 -3.198,-49.2496 -4.07919,-11.6293 -4.11863,-14.96282 -0.23642,-19.97992 4.36289,-5.63828 5.5519,-4.2971 14.11844,15.92537 21.63331,51.06829 24.11511,66.4218 15.11101,93.48353 -3.49962,10.51805 -4.5921,10.90033 -15.30428,5.35527 z"
       id="path26"
       sodipodi:nodetypes="csssssccscsscssssssssssssscssssc" />
    <ellipse
       style="opacity:0.68;fill:none;fill-opacity:1;stroke:#cedd3a;stroke-width:10.394;stroke-miterlimit:3.4;stroke-dasharray:none;stroke-opacity:1"
       id="path68"
       ry="150.03525"
       rx="152.66745"
       cy="305.81241"
       cx="318.62042" />
  </g>
</svg>
