<?xml version="1.0" encoding="UTF-8" standalone="no"?>
<!-- Created with Inkscape (http://www.inkscape.org/) -->

<svg 
class="indexFisio"

  
   viewBox="0 0 113.11209 25.075861"
   version="1.1"
   id="svg1"
   xml:space="preserve"
   inkscape:version="1.4 (86a8ad7, 2024-10-11)"
   sodipodi:docname="schriftzug_korr.svg"
   xmlns:inkscape="http://www.inkscape.org/namespaces/inkscape"
   xmlns:sodipodi="http://sodipodi.sourceforge.net/DTD/sodipodi-0.dtd"
   xmlns="http://www.w3.org/2000/svg"
   xmlns:svg="http://www.w3.org/2000/svg"><sodipodi:namedview
     id="namedview1"
     pagecolor="#ffffff"
     bordercolor="#000000"
     borderopacity="0.25"
     inkscape:showpageshadow="2"
     inkscape:pageopacity="0.0"
     inkscape:pagecheckerboard="0"
     inkscape:deskcolor="#d1d1d1"
     inkscape:document-units="mm"
     inkscape:zoom="6.064927"
     inkscape:cx="145.92096"
     inkscape:cy="68.673539"
     inkscape:window-width="1920"
     inkscape:window-height="1111"
     inkscape:window-x="-9"
     inkscape:window-y="-9"
     inkscape:window-maximized="1"
     inkscape:current-layer="layer1-1" /><defs
     id="defs1" /><g
     inkscape:label="Layer 1"
     inkscape:groupmode="layer"
     id="layer1"
     transform="translate(-50.837901,-73.196177)"><g
       inkscape:label="Layer 1"
       id="layer1-1"
       transform="translate(35.744857,-45.348989)"><path
         style="fill:#edf5e1;fill-opacity:1;stroke:none;stroke-width:0.505578;stroke-opacity:1"
         d="m 87.643861,126.74317 c -72.550817,-8.198 -72.550817,-8.198 0,0 z"
         id="path6" /><path
         style="fill:#edf5e1;fill-opacity:1;stroke:none;stroke-width:0.505578;stroke-opacity:1"
         d="m 85.857526,127.95141 c -2.105993,-1.14076 -1.268065,-4.75552 1.102361,-4.75552 1.353139,0 1.883475,0.63 1.883475,2.23746 0,1.93322 -1.590027,3.27411 -2.985836,2.51806 z"
         id="path5" /><path
         style="fill:#edf5e1;fill-opacity:1;stroke:none;stroke-width:0.505578;stroke-opacity:1"
         d="m 118.48239,127.90851 c -2.106,-1.14076 -1.26807,-4.75552 1.10236,-4.75552 1.35314,0 1.88347,0.63 1.88347,2.23746 0,1.93322 -1.59003,3.27411 -2.98583,2.51806 z"
         id="path5-7" /><path
         style="fill:#edf5e1;fill-opacity:1;stroke:none;stroke-width:0.505578;stroke-opacity:1"
         d="m 46.65472,127.85939 c -1.114833,-0.64148 -1.263875,-3.22345 -0.24184,-4.18962 0.839074,-0.79319 2.576215,-0.622 3.117813,0.30726 1.275596,2.18867 -0.84482,5.05107 -2.875973,3.88236 z"
         id="path4"
         sodipodi:nodetypes="cccc" /><path
         style="fill:#edf5e1;fill-opacity:1;stroke:none;stroke-width:1.20224;stroke-opacity:1"
         d="m 50.503995,140.89382 c -1.536975,-2.62428 -1.085603,-10.37568 1.470905,-12.38556 1.304973,-1.02594 3.51176,-0.69871 4.939533,0.45977 2.714085,2.20218 1.628649,10.22742 0.02797,12.41529 -1.765258,2.41283 -4.914394,2.11259 -6.438411,-0.4895 z m 5.430011,-7.52867 c -0.243863,-1.37596 -0.833539,-1.89884 -1.379564,-2.02833 -0.810193,-0.19215 -1.664008,0.73863 -2.28141,3.11456 -0.767521,2.95359 -0.0013,4.98074 1.357449,5.11351 2.733903,0.26714 2.645106,-4.27245 2.303525,-6.19974 z"
         id="path4-8"
         sodipodi:nodetypes="cssscsssss" /><path
         style="fill:#edf5e1;fill-opacity:1;stroke:none;stroke-width:0.505578;stroke-opacity:1"
         d="m 32.447127,127.39559 c -1.291147,-1.7426 -0.283484,-4.1997 1.722294,-4.1997 2.616805,0 2.581116,4.47461 -0.03886,4.87318 l -1.064455,0.16201 z"
         id="path3" /><path
         style="fill:#edf5e1;fill-opacity:1;stroke:none;stroke-width:0.505578;stroke-opacity:1"
         d="m 18.075594,142.6262 c -1.767551,-0.8926 -2.729761,-2.22358 -2.729761,-3.77599 0,-2.29682 1.123001,-2.64916 2.537708,-0.7962 2.115745,2.77119 4.197833,1.36883 4.70179,-3.16682 l 0.162413,-1.46174 h -0.600277 c -1.991725,0 -1.915326,-3.47828 0.08589,-3.91016 l 0.890797,-0.19218 0.139576,-2.05611 c 0.07676,-1.13085 0.190224,-2.4986 0.252126,-3.03939 0.143619,-1.2546 -0.116263,-1.4532 -1.331742,-1.01778 -1.803458,0.64604 -2.310747,1.78315 -1.742185,3.90524 l 0.272808,1.01823 -0.423244,0.63119 c -0.753313,1.12345 -2.228653,0.7877 -2.772188,-0.63091 -1.202273,-3.13783 0.273815,-7.05478 3.132092,-8.31132 3.107199,-1.36596 13.597778,-1.36566 14.238831,4.2e-4 0.329664,0.7025 0.235402,2.0522 -0.182735,2.61652 l -0.390815,0.52747 -3.604661,-0.21799 c -1.982562,-0.11997 -3.654178,-0.10329 -3.714704,0.0372 -0.06052,0.14031 -0.182926,1.68495 -0.272008,3.4325 l -0.161966,3.17736 h 2.039587 c 2.315405,0 2.590822,0.20246 2.590822,1.90433 0,1.72455 -0.568824,2.12549 -3.015389,2.12549 h -1.994462 l -0.164217,1.62745 c -0.61998,6.14406 -4.136243,9.49623 -7.944075,7.57331 z"
         id="path2" /><path
         style="fill:#edf5e1;fill-opacity:1;stroke:none;stroke-width:0.505578;stroke-opacity:1"
         d="m 109.74668,143.11203 c -1.74176,-1.17794 -1.31108,-3.85082 0.65212,-4.04716 1.11207,-0.11128 1.10053,-0.075 0.45042,-1.41349 l -0.50276,-1.03512 -1.04758,1.86491 c -1.47141,2.61945 -1.4052,2.53223 -2.48784,3.27765 -2.114,1.45559 -4.99401,1.46791 -6.49252,0.0279 l -0.668132,-0.64211 -0.658087,0.65666 c -3.248978,3.24197 -5.775378,0.36204 -4.752871,-5.41794 0.620111,-3.50534 -0.702005,-1.05862 -1.741437,3.2227 -0.82507,3.39839 -2.108739,4.45509 -3.140722,2.58543 l -0.289967,-0.52535 -0.734734,0.58577 c -1.089626,0.86872 -2.746852,0.81822 -3.476096,-0.1058 l -0.579351,-0.73417 -0.841897,0.70227 c -0.66114,0.55146 -1.181078,0.70225 -2.421654,0.70225 h -1.57975 l -0.905026,-0.84649 c -0.694663,-0.64972 -1.207899,-1.63005 -2.208033,-4.21754 -1.802487,-4.66331 -2.218454,-5.01876 -2.501637,-2.1376 -0.726867,7.39525 -7.302082,10.50287 -9.428144,4.456 -1.242216,-3.53307 0.726053,-5.52426 2.413421,-2.44152 1.755698,3.20757 3.259117,2.12651 3.765419,-2.70761 l 0.151736,-1.44885 -0.528232,-0.101 c -1.08887,-0.2084 -0.782756,-3.19717 0.349749,-3.41483 l 0.767426,-2.2659 c 0.147037,-1.19346 0.302065,-2.86739 0.344519,-3.71984 l 0.0772,-1.54994 -0.989104,0.0786 c -2.483043,0.1972 -3.12567,1.52948 -2.452112,5.08336 0.217009,1.14499 -0.56931,2.19511 -1.545152,2.06352 -1.190557,-0.16065 -1.674346,-1.39602 -1.674346,-4.27584 v -2.42746 l 0.70077,-1.19104 c 0.385424,-0.65509 1.212272,-1.53979 1.837437,-1.96601 l 1.13667,-0.77496 h 3.026742 3.026746 l 0.648131,0.65061 c 0.882555,0.88595 0.981434,2.2968 0.229376,3.27295 -0.538834,0.69937 -1.336794,6.20984 -0.970771,6.70386 0.941311,1.27042 5.638603,-6.26725 5.638603,-9.04822 0,-1.30223 2.169892,-2.22614 3.09171,-1.31642 1.466896,1.44768 -1.907451,9.59474 -4.920812,11.88089 l -1.095078,0.83082 0.671043,0.76206 c 0.369074,0.41915 1.022909,1.70509 1.452973,2.85767 1.214025,3.25364 2.017182,3.9024 3.340778,2.69857 l 0.771105,-0.70134 0.268931,-2.32103 c 0.608547,-5.25214 0.869018,-5.88589 2.41915,-5.88589 h 1.120275 v 1.62949 c 0,0.89621 -0.09453,2.07432 -0.210061,2.61799 -0.115523,0.54369 -0.282465,1.90106 -0.370959,3.01638 l -0.160905,2.02781 0.384675,0.19927 c 0.799232,0.41392 1.670039,-1.26759 1.838311,-3.54973 0.355334,-4.81913 1.281048,-6.70537 3.004339,-6.12162 l 0.629318,0.21321 -0.126809,1.61106 c -0.06974,0.88609 -0.202873,1.89005 -0.295844,2.23103 -0.09298,0.34098 0.182744,-0.0738 0.612701,-0.92171 1.069758,-2.10967 2.058536,-2.95313 3.461951,-2.95313 h 1.119358 l 0.26989,0.79947 c 0.243844,0.72229 -0.24192,6.50327 -0.681471,8.11004 -0.204505,0.74757 0.643337,0.79305 1.217301,0.0654 0.421537,-0.53446 0.56251,-1.03542 0.56251,-1.99889 0,-3.96592 2.04572,-7.03433 4.72464,-7.08659 4.46246,-0.0871 3.86664,7.7521 -0.702,9.23607 l -0.68579,0.2228 0.41934,0.31671 c 2.00207,1.51217 4.34532,-0.73497 6.43976,-6.17561 l 1.40288,-3.64423 1.20839,-0.0937 c 1.46639,-0.1138 1.63582,0.23614 1.11432,2.30182 l -0.36459,1.44414 1.04591,1.97821 c 0.57526,1.08801 1.10386,2.46016 1.17469,3.04924 l 0.12878,1.07102 0.65982,-1.12061 c 0.3715,-0.63089 0.65983,-1.49948 0.65983,-1.98765 0,-3.37979 0.92347,-6.28715 2.09766,-6.60409 1.65969,-0.44802 1.85579,0.49317 1.14009,5.47171 -0.8909,6.19719 1.04935,5.06006 3.65458,-2.14186 1.22016,-3.37304 1.34318,-3.52311 2.88785,-3.52311 h 1.01476 v 0.61552 c 0,0.33853 -0.12115,1.22666 -0.26912,1.97359 l -0.26913,1.35808 0.95052,1.92111 c 2.30927,4.66729 0.60478,9.4519 -3.03857,8.52943 -2.26677,-0.57393 -2.05743,-4.47816 0.24011,-4.47816 0.91569,0 0.92851,-0.0642 0.29116,-1.4559 l -0.48728,-1.0641 -0.46287,1.02751 c -2.15171,4.77646 -5.22114,6.77921 -6.97729,4.55254 l -0.49592,-0.62879 -0.70107,0.4893 c -0.38559,0.26913 -0.90909,0.48929 -1.16333,0.48929 -0.25424,0 -0.98669,0.27899 -1.62767,0.61997 -1.42873,0.76007 -1.95337,0.77362 -2.98337,0.077 z m -6.73651,-8.24397 c 0.56906,-0.70383 0.79178,-1.20205 0.69288,-1.54993 -0.35872,-1.26165 -1.53728,-0.15608 -1.8973,1.77995 -0.20594,1.10743 0.18317,1.03314 1.20442,-0.23002 z"
         id="path1"
         sodipodi:nodetypes="ccscscccsssscscccscsssssscccssccscsccscccsccscsccsscsscsssccsccsssscsscscccssccsccsccscssscsccsssccssccscccscss" /><path
         style="fill:#edf5e1;fill-opacity:1;stroke:none;stroke-width:0.505578;stroke-opacity:1"
         d="m 38.855167,143.34763 c -1.919764,-1.0456 -1.408882,-4.34242 0.672905,-4.34242 h 0.897966 l -0.470137,-1.00215 c -0.576226,-1.22831 -0.869515,-1.39135 -1.058342,-0.58839 -0.300868,1.2794 -3.179369,4.93533 -4.201204,5.33587 -3.195673,1.25264 -4.560828,-2.84169 -3.266612,-9.79711 0.639821,-3.43856 0.709319,-3.55781 2.073439,-3.55781 1.445219,0 1.512317,0.32861 0.917079,4.49154 -0.563165,3.93862 -0.582613,4.76939 -0.117283,5.01038 0.69649,0.36072 2.578495,-2.91584 3.83087,-6.6695 1.415024,-4.24119 4.45526,-4.87617 3.438976,-0.71828 l -0.32733,1.33921 0.804838,1.60568 c 1.050922,2.09661 1.316442,2.82278 1.316442,3.60021 0,2.30987 1.279855,-0.41534 1.664607,-3.54446 0.57466,-4.67367 1.204964,-5.81308 2.887233,-5.21932 0.752146,0.26545 0.79336,1.03336 0.265744,4.95162 -0.383247,2.84609 -0.433527,3.80064 -0.231685,4.39852 l 0.257778,0.76359 0.678839,-0.87778 0.678837,-0.87777 c 0.586105,-1.14743 1.972098,3.73687 0.954693,3.5116 l -0.844964,0.7739 c -1.449166,1.32727 -3.648982,1.30625 -4.2073,-0.0403 l -0.196559,-0.47404 -0.712525,0.49729 c -0.391887,0.27352 -0.902113,0.4973 -1.133828,0.4973 -0.231719,0 -1.009439,0.27899 -1.728268,0.61997 -1.401263,0.66472 -2.063976,0.73754 -2.8442,0.3126 z"
         id="path75"
         sodipodi:nodetypes="csccsssssccscssccssccccscccsccc" /></g></g></svg>
