<?xml version="1.0" encoding="UTF-8" standalone="no"?>
<!-- Created with Inkscape (http://www.inkscape.org/) -->

<svg
   width="64.205032mm"
   height="55.182655mm"
   viewBox="0 0 64.205034 55.182657"
   version="1.1"
   id="svg1"
   sodipodi:docname="schriftzug.svg"
   inkscape:version="1.4 (86a8ad7, 2024-10-11)"
   xmlns:inkscape="http://www.inkscape.org/namespaces/inkscape"
   xmlns:sodipodi="http://sodipodi.sourceforge.net/DTD/sodipodi-0.dtd"
   xmlns="http://www.w3.org/2000/svg"
   xmlns:svg="http://www.w3.org/2000/svg">
  <sodipodi:namedview
     id="namedview1"
     pagecolor="#ffffff"
     bordercolor="#000000"
     borderopacity="0.25"
     inkscape:showpageshadow="2"
     inkscape:pageopacity="0.0"
     inkscape:pagecheckerboard="0"
     inkscape:deskcolor="#d1d1d1"
     inkscape:document-units="mm"
     inkscape:zoom="8.5287975"
     inkscape:cx="75.450262"
     inkscape:cy="52.938295"
     inkscape:window-width="1920"
     inkscape:window-height="1111"
     inkscape:window-x="-9"
     inkscape:window-y="-9"
     inkscape:window-maximized="1"
     inkscape:current-layer="layer1" />
  <defs
     id="defs1" />
  <g
     id="layer1"
     transform="translate(-15.652911,-118.18374)">
    <path
       style="fill:#79b726;fill-opacity:1;stroke:none;stroke-width:0.505578;stroke-opacity:1"
       d="m 70.14101,157.80465 -0.74646,-0.45266 v -1.39784 c 0,-2.46406 2.3816,-3.78741 3.67488,-2.04194 1.552608,2.09549 -0.77962,5.19549 -2.92842,3.89244 z m 2.27871,-0.99562 c 0.51373,-0.62749 0.54477,-1.75121 0.0632,-2.29056 -0.78493,-0.87919 -2.62908,-0.075 -2.62908,1.14671 0,1.35091 1.75554,2.13353 2.5658,1.14385 z"
       id="path6" />
    <path
       style="fill:#79b726;fill-opacity:1;stroke:none;stroke-width:0.505578;stroke-opacity:1"
       d="m 38.036798,156.99483 c -2.105993,-1.14076 -1.268065,-4.75552 1.102361,-4.75552 1.353139,0 1.883475,0.63 1.883475,2.23746 0,1.93322 -1.590027,3.27411 -2.985836,2.51806 z m 1.786335,-1.20824 c 0.773722,-0.73144 0.690393,-2.13152 -0.154995,-2.60415 -0.978117,-0.5468 -2.090705,0.26704 -2.090705,1.52933 0,1.45467 1.224099,2.04054 2.245694,1.07482 z"
       id="path5" />
    <path
       style="fill:#79b726;fill-opacity:1;stroke:none;stroke-width:0.505578;stroke-opacity:1"
       d="m 48.356968,129.87752 c -1.114833,-0.64148 -1.263875,-3.22345 -0.24184,-4.18962 0.839074,-0.79319 2.576215,-0.622 3.117813,0.30726 1.275596,2.18867 -0.84482,5.05107 -2.875973,3.88236 z m 2.224361,-1.25365 c 0.586267,-0.79126 0.580875,-1.38594 -0.01991,-2.19678 -0.750517,-1.01294 -2.506569,-0.10717 -2.506569,1.29272 0,1.44835 1.678239,2.04887 2.526475,0.90406 z"
       id="path4" />
    <path
       style="fill:#79b726;fill-opacity:1;stroke:none;stroke-width:0.505578;stroke-opacity:1"
       d="m 34.149375,129.41372 c -1.291147,-1.7426 -0.283484,-4.1997 1.722294,-4.1997 2.616805,0 2.581116,4.47461 -0.03886,4.87318 l -1.064455,0.16201 z m 2.329683,-0.40712 c 0.139001,-0.12522 0.3804,-0.55475 0.536459,-0.95446 l 0.283742,-0.72671 -0.519075,-0.74572 c -0.636418,-0.91429 -1.112618,-0.94016 -1.900947,-0.10329 -1.310361,1.39115 0.204777,3.78735 1.599821,2.53016 z"
       id="path3" />
    <path
       style="fill:#79b726;fill-opacity:1;stroke:none;stroke-width:0.505578;stroke-opacity:1"
       d="m 19.777842,144.64433 c -1.767551,-0.8926 -2.729761,-2.22358 -2.729761,-3.77599 0,-2.29682 1.123001,-2.64916 2.537708,-0.7962 2.115745,2.77119 4.197833,1.36883 4.70179,-3.16682 l 0.162413,-1.46174 h -0.600277 c -1.991725,0 -1.915326,-3.47828 0.08589,-3.91016 l 0.890797,-0.19218 0.139576,-2.05611 c 0.07676,-1.13085 0.190224,-2.4986 0.252126,-3.03939 0.143619,-1.2546 -0.116263,-1.4532 -1.331742,-1.01778 -1.803458,0.64604 -2.310747,1.78315 -1.742185,3.90524 l 0.272808,1.01823 -0.423244,0.63119 c -0.753313,1.12345 -2.228653,0.7877 -2.772188,-0.63091 -1.202273,-3.13783 0.273815,-7.05478 3.132092,-8.31132 3.107199,-1.36596 13.597778,-1.36566 14.238831,4.2e-4 0.329664,0.7025 0.235402,2.0522 -0.182735,2.61652 l -0.390815,0.52747 -3.604661,-0.21799 c -1.982562,-0.11997 -3.654178,-0.10329 -3.714704,0.0372 -0.06052,0.14031 -0.182926,1.68495 -0.272008,3.4325 l -0.161966,3.17736 h 2.039587 c 2.315405,0 2.590822,0.20246 2.590822,1.90433 0,1.72455 -0.568824,2.12549 -3.015389,2.12549 h -1.994462 l -0.164217,1.62745 c -0.61998,6.14406 -4.136243,9.49623 -7.944075,7.57331 z m 4.378579,-1.24963 c 1.574821,-1.0271 2.26498,-2.44101 2.741217,-5.61577 0.437644,-2.91749 0.755782,-3.47456 1.785214,-3.12585 1.203735,0.40775 3.311308,-0.16042 3.583246,-0.96584 0.409987,-1.21446 -0.04993,-1.49852 -2.426168,-1.49852 h -2.111738 l 0.01747,-1.23995 c 0.0096,-0.68196 0.103091,-2.5509 0.207782,-4.15318 l 0.190324,-2.91326 3.725015,0.17824 c 3.869598,0.1851 4.242739,0.0896 4.242739,-1.08613 0,-2.19525 -11.515211,-1.82741 -14.732287,0.47058 -2.163459,1.54541 -2.586424,7.03876 -0.541949,7.03876 0.750916,0 0.853739,-0.35568 0.55373,-1.91539 -0.494284,-2.56978 0.471406,-3.8915 3.076133,-4.21027 l 1.372892,-0.16796 -0.164777,3.13685 c -0.237604,4.52328 -0.322147,4.82967 -1.384214,5.01677 -1.639674,0.28884 -1.726893,1.94277 -0.120718,2.28939 l 0.960232,0.20727 -0.163389,1.89996 c -0.330704,3.84564 -1.371053,5.52295 -3.425597,5.52295 h -1.21328 l -1.043719,-1.23994 c -1.230593,-1.46196 -1.549243,-1.54201 -1.542326,-0.38749 0.01754,2.9256 3.718119,4.51728 6.414195,2.75885 z"
       id="path2" />
    <g
       id="g6"
       transform="translate(-25.972358,55.629984)"
       style="fill:#79b726;fill-opacity:1">
      <path
         style="fill:#79b726;fill-opacity:1;stroke:none;stroke-width:0.505578;stroke-opacity:1"
         d="m 87.371844,117.22742 c -1.74176,-1.17794 -1.31108,-3.85082 0.65212,-4.04716 1.11207,-0.11128 1.10053,-0.075 0.45042,-1.41349 l -0.50276,-1.03512 -1.04758,1.86491 c -1.47141,2.61945 -1.4052,2.53223 -2.48784,3.27765 -2.114,1.45559 -4.99401,1.46791 -6.49252,0.0279 l -0.668132,-0.64211 -0.658087,0.65666 c -3.248978,3.24197 -5.775378,0.36204 -4.752871,-5.41794 0.620111,-3.50534 -0.702005,-1.05862 -1.741437,3.2227 -0.82507,3.39839 -2.108739,4.45509 -3.140722,2.58543 l -0.289967,-0.52535 -0.734734,0.58577 c -1.089626,0.86872 -2.746852,0.81822 -3.476096,-0.1058 l -0.579351,-0.73417 -0.841897,0.70227 c -0.66114,0.55146 -1.181078,0.70225 -2.421654,0.70225 h -1.57975 l -0.905026,-0.84649 c -0.694663,-0.64972 -1.207899,-1.63005 -2.208033,-4.21754 -1.802487,-4.66331 -2.218454,-5.01876 -2.501637,-2.1376 -0.726867,7.39525 -7.302082,10.50287 -9.428144,4.456 -1.242216,-3.53307 0.726053,-5.52426 2.413421,-2.44152 1.755698,3.20757 3.259117,2.12651 3.765419,-2.70761 l 0.151736,-1.44885 -0.528232,-0.101 c -1.08887,-0.2084 -0.782756,-3.19717 0.349749,-3.41483 l 0.5001,-0.096 0.267326,-2.1699 c 0.147037,-1.19346 0.302065,-2.867393 0.344519,-3.719843 l 0.0772,-1.54994 -0.989104,0.0786 c -2.483043,0.1972 -3.12567,1.52948 -2.452112,5.083363 0.217009,1.14499 -0.56931,2.19511 -1.545152,2.06352 -1.190557,-0.16065 -1.674346,-1.39602 -1.674346,-4.275843 v -2.42746 l 0.70077,-1.19104 c 0.385424,-0.65509 1.212272,-1.53979 1.837437,-1.96601 l 1.13667,-0.77496 h 3.026742 3.026746 l 0.648131,0.65061 c 0.882555,0.88595 0.981434,2.2968 0.229376,3.27295 -0.538834,0.69937 -1.336794,6.209843 -0.970771,6.703863 0.941311,1.27042 5.638603,-6.267253 5.638603,-9.048223 0,-1.30223 2.169892,-2.22614 3.09171,-1.31642 1.466896,1.44768 -1.907451,9.594743 -4.920812,11.880893 l -1.095078,0.83082 0.671043,0.76206 c 0.369074,0.41915 1.022909,1.70509 1.452973,2.85767 1.214025,3.25364 2.017182,3.9024 3.340778,2.69857 l 0.771105,-0.70134 0.268931,-2.32103 c 0.608547,-5.25214 0.869018,-5.88589 2.41915,-5.88589 h 1.120275 v 1.62949 c 0,0.89621 -0.09453,2.07432 -0.210061,2.61799 -0.115523,0.54369 -0.282465,1.90106 -0.370959,3.01638 l -0.160905,2.02781 0.384675,0.19927 c 0.799232,0.41392 1.670039,-1.26759 1.838311,-3.54973 0.355334,-4.81913 1.281048,-6.70537 3.004339,-6.12162 l 0.629318,0.21321 -0.126809,1.61106 c -0.06974,0.88609 -0.202873,1.89005 -0.295844,2.23103 -0.09298,0.34098 0.182744,-0.0738 0.612701,-0.92171 1.069758,-2.10967 2.058536,-2.95313 3.461951,-2.95313 h 1.119358 l 0.26989,0.79947 c 0.243844,0.72229 -0.24192,6.50327 -0.681471,8.11004 -0.204505,0.74757 0.643337,0.79305 1.217301,0.0654 0.421537,-0.53446 0.56251,-1.03542 0.56251,-1.99889 0,-3.96592 2.04572,-7.03433 4.72464,-7.08659 4.46246,-0.0871 3.86664,7.7521 -0.702,9.23607 l -0.68579,0.2228 0.41934,0.31671 c 2.00207,1.51217 4.34532,-0.73497 6.43976,-6.17561 l 1.40288,-3.64423 1.20839,-0.0937 c 1.46639,-0.1138 1.63582,0.23614 1.11432,2.30182 l -0.36459,1.44414 1.04591,1.97821 c 0.57526,1.08801 1.10386,2.46016 1.17469,3.04924 l 0.12878,1.07102 0.65982,-1.12061 c 0.3715,-0.63089 0.65983,-1.49948 0.65983,-1.98765 0,-3.37979 0.92347,-6.28715 2.09766,-6.60409 1.65969,-0.44802 1.85579,0.49317 1.14009,5.47171 -0.8909,6.19719 1.04935,5.06006 3.654576,-2.14186 1.22016,-3.37304 1.34318,-3.52311 2.88785,-3.52311 h 1.01476 v 0.61552 c 0,0.33853 -0.12115,1.22666 -0.26912,1.97359 l -0.26913,1.35808 0.95052,1.92111 c 2.30927,4.66729 0.60478,9.4519 -3.03857,8.52943 -2.266766,-0.57393 -2.057426,-4.47816 0.24011,-4.47816 0.91569,0 0.92851,-0.0642 0.29116,-1.4559 l -0.48728,-1.0641 -0.46287,1.02751 c -2.151706,4.77646 -5.221136,6.77921 -6.977286,4.55254 l -0.49592,-0.62879 -0.70107,0.4893 c -0.38559,0.26913 -0.90909,0.48929 -1.16333,0.48929 -0.25424,0 -0.98669,0.27899 -1.62767,0.61997 -1.42873,0.76007 -1.95337,0.77362 -2.98337,0.077 z m 2.67429,-0.85197 c 0.4535,-0.25573 1.04448,-0.47301 1.31328,-0.48284 0.2688,-0.009 0.99883,-0.34343 1.62228,-0.74135 l 1.13356,-0.72349 0.66413,0.89635 c 1.42383,1.92168 3.80953,0.30483 5.825146,-3.9478 1.02496,-2.16248 2.42785,-1.47803 2.622,1.27928 0.0874,1.24207 0.002,1.36273 -0.92835,1.31264 -0.59853,-0.0322 -1.05545,0.13459 -1.30996,0.47802 l -0.39084,0.52749 0.473,0.85586 c 0.80451,1.45568 2.38836,1.31173 3.5216,-0.32007 1.00421,-1.44602 0.97683,-3.34502 -0.0751,-5.21174 -1.28223,-2.27537 -1.75311,-4.51198 -1.06991,-5.08186 0.12633,-0.10534 0.22968,-0.47978 0.22968,-0.832 v -0.64045 l -0.72972,0.19698 c -0.87983,0.23749 -0.65197,-0.13437 -1.73115,2.82539 -3.521786,9.65906 -6.264486,10.14051 -4.920626,0.86378 0.46804,-3.2309 0.37351,-3.78055 -0.57292,-3.33133 -0.71513,0.33943 -1.32825,2.55968 -1.60112,5.79806 -0.16467,1.95421 -0.71336,3.0886 -1.74806,3.61392 -0.70776,0.35936 -0.75223,0.30113 -0.96045,-1.25795 -0.0833,-0.62328 -0.56168,-1.94845 -1.06318,-2.94487 -0.91061,-1.80923 -1.23283,-3.83311 -0.68324,-4.29153 0.48218,-0.4022 0.24868,-1.39494 -0.32812,-1.39494 -0.77943,0 -1.07563,0.49343 -2.26946,3.78059 -1.71462,4.7211 -3.44567,6.76496 -5.72068,6.75438 -2.21586,-0.0114 -2.89588,-1.61216 -1.06059,-2.49834 3.2818,-1.5847 4.36496,-5.98241 1.82341,-7.40324 -2.28657,-1.27831 -4.887064,1.78352 -5.225403,6.15239 -0.179349,2.31589 -0.89496,3.5282 -1.997398,3.38378 l -0.725143,-0.0951 -0.07257,-1.01826 c -0.03992,-0.56004 0.08929,-2.07451 0.287098,-3.3655 0.197822,-1.29101 0.359668,-2.95741 0.359668,-3.70316 v -1.35586 l -0.554733,-0.18784 c -0.738532,-0.25017 -2.0617,0.62532 -2.781755,1.84056 -0.316245,0.53375 -0.667256,1.12516 -0.780028,1.31423 -0.112767,0.1892 -0.429655,0.93803 -0.704185,1.66433 -0.937612,2.48047 -1.125651,0.33506 -0.372983,-4.25552 0.136891,-0.83488 -0.748969,-1.00234 -1.308376,-0.24734 -0.383351,0.5174 -1.077371,4.37176 -1.077371,5.98339 0,1.52848 -1.735692,3.94153 -2.544604,3.53766 -0.903898,-0.45128 -0.998215,-1.58378 -0.465493,-5.58945 0.618415,-4.64999 0.631166,-4.44022 -0.26284,-4.32388 l -0.746459,0.0971 -0.414807,1.6885 c -0.228146,0.92869 -0.476633,2.60261 -0.552195,3.71984 l -0.137388,2.03134 -0.784818,1.00746 c -1.690391,2.16992 -3.227793,1.32071 -4.663503,-2.57595 -0.677849,-1.83976 -1.788303,-3.54629 -2.307584,-3.54629 -0.507111,0 -0.147405,-0.95816 0.534401,-1.42353 3.481254,-2.37611 7.213125,-10.015953 5.497771,-11.254953 -0.810691,-0.58558 -1.446781,0.26459 -2.269021,3.03262 -1.435863,4.833763 -2.989447,7.023803 -5.418963,7.638953 -1.15686,0.2929 -1.214576,-0.051 -0.731909,-4.36029 0.315954,-2.820933 0.490846,-3.640803 0.828707,-3.884853 2.694115,-1.94599 -3.74729,-3.69587 -6.829998,-1.85545 -2.975122,1.77618 -3.970833,9.224343 -1.103309,8.253003 l 0.601936,-0.20384 -0.141142,-0.83817 c -0.383208,-2.275643 -0.405739,-2.910803 -0.134607,-3.794273 0.437848,-1.42665 1.749044,-2.20928 3.510914,-2.09557 l 1.423762,0.0919 -0.02461,0.61997 c -0.05224,1.31528 -0.578743,7.156843 -0.691506,7.672173 -0.07029,0.32124 -0.343271,0.54246 -0.669349,0.54246 -0.696299,0 -1.184583,1.07379 -0.7843,1.72475 0.150554,0.24485 0.416121,0.44516 0.590139,0.44516 0.393131,0 0.420895,1.79175 0.0627,4.04597 -0.635685,4.00045 -3.229134,4.75829 -4.699035,1.37309 -0.622773,-1.43424 -1.096288,-1.75214 -1.338887,-0.89889 -0.940709,3.3086 2.961356,6.15113 5.772047,4.20477 1.159173,-0.80271 2.27021,-3.17556 2.48801,-5.31363 0.262921,-2.58102 0.44928,-3.2521 0.929595,-3.34758 0.752041,-0.14945 1.705075,1.14705 2.416731,3.28778 1.94445,5.84912 3.625624,7.10721 6.741597,5.04501 l 1.364554,-0.90306 0.338884,0.67058 c 0.718038,1.42087 1.978868,1.55924 3.285844,0.36061 0.464756,-0.42624 0.941965,-0.77496 1.060459,-0.77496 0.118497,0 0.384757,0.34872 0.591679,0.77496 0.721348,1.48584 1.346295,0.91512 1.866913,-1.70493 0.952454,-4.79332 3.643722,-8.46719 3.231834,-4.41182 -0.08194,0.80682 -0.212992,2.34389 -0.291212,3.41572 l -0.142229,1.9488 0.531517,0.76359 c 0.812073,1.16665 3.003789,0.82065 3.885633,-0.61344 0.344201,-0.55975 1.061278,-0.63797 1.28903,-0.14053 1.4656,3.20053 6.6884,1.27623 8.93512,-3.2921 0.45983,-0.93499 0.9812,-1.69997 1.15861,-1.69997 0.42971,0 1.49032,2.48129 1.49032,3.48658 v 0.79722 l -1.05474,-0.0206 c -1.46112,-0.0297 -1.92941,1.00976 -1.01238,2.24744 0.54755,0.739 1.53931,0.79643 2.67675,0.15493 z m -11.2674,-5.92293 c -0.20818,-0.73222 0.29031,-2.96044 0.84211,-3.76415 1.23778,-1.80285 2.83755,-0.3281 2.12853,1.96216 -0.48754,1.57483 -2.66046,2.89292 -2.97064,1.80199 z m 1.8566,-1.46907 c 0.56906,-0.70383 0.79178,-1.20205 0.69288,-1.54993 -0.35872,-1.26165 -1.53728,-0.15608 -1.8973,1.77995 -0.20594,1.10743 0.18317,1.03314 1.20442,-0.23002 z"
         id="path1" />
    </g>
    <path
       style="fill:#79b726;fill-opacity:1;stroke:none;stroke-width:0.505578;stroke-opacity:1"
       d="m 40.557415,145.36576 c -1.919764,-1.0456 -1.408882,-4.34242 0.672905,-4.34242 h 0.897966 l -0.470137,-1.00215 c -0.576226,-1.22831 -0.869515,-1.39135 -1.058342,-0.58839 -0.300868,1.2794 -3.179369,4.93533 -4.201204,5.33587 -3.195673,1.25264 -4.560828,-2.84169 -3.266612,-9.79711 0.639821,-3.43856 0.709319,-3.55781 2.073439,-3.55781 1.445219,0 1.512317,0.32861 0.917079,4.49154 -0.563165,3.93862 -0.582613,4.76939 -0.117283,5.01038 0.69649,0.36072 2.578495,-2.91584 3.83087,-6.6695 1.415024,-4.24119 4.45526,-4.87617 3.438976,-0.71828 l -0.32733,1.33921 0.804838,1.60568 c 1.050922,2.09661 1.316442,2.82278 1.316442,3.60021 0,2.30987 1.279855,-0.41534 1.664607,-3.54446 0.57466,-4.67367 1.204964,-5.81308 2.887233,-5.21932 0.752146,0.26545 0.79336,1.03336 0.265744,4.95162 -0.383247,2.84609 -0.433527,3.80064 -0.231685,4.39852 l 0.257778,0.76359 0.678839,-0.87778 0.678837,-0.87777 v -1.59135 c 0,-6.37586 5.855337,-9.4107 8.038794,-4.16655 l 0.5742,1.3791 -0.04261,2.4012 c -0.103819,5.85054 -4.126134,9.45211 -6.960906,6.2328 l -0.654785,-0.7436 -0.844964,0.7739 c -1.449166,1.32727 -3.648982,1.30625 -4.2073,-0.0403 l -0.196559,-0.47404 -0.712525,0.49729 c -0.391887,0.27352 -0.902113,0.4973 -1.133828,0.4973 -0.231719,0 -1.009439,0.27899 -1.728268,0.61997 -1.401263,0.66472 -2.063976,0.73754 -2.8442,0.3126 z m 2.528154,-1.08947 c 0.361832,-0.2547 0.884157,-0.46307 1.160725,-0.46307 0.276566,0 1.028443,-0.35348 1.670841,-0.78555 l 1.16799,-0.78552 0.725629,0.97932 0.725631,0.97934 0.916231,-0.16589 c 0.503927,-0.0912 1.26721,-0.52717 1.696187,-0.96877 0.897717,-0.92414 1.321372,-1.00135 1.741893,-0.31749 2.21829,3.60744 6.303627,0.14328 6.303627,-5.34499 0,-7.71568 -6.837269,-6.74625 -7.394374,1.04843 -0.19098,2.67208 -1.428135,4.19544 -2.596699,3.19743 -0.458173,-0.39132 -0.419986,-2.4609 0.113337,-6.14233 0.454851,-3.13979 0.349926,-3.69765 -0.632828,-3.36476 -0.639583,0.21663 -0.892601,1.14434 -1.406675,5.15761 l -0.337074,2.63147 -0.812736,1.00524 c -0.94031,1.16303 -1.517619,1.07285 -1.517619,-0.23703 0,-0.53207 -0.409601,-1.68467 -1.04105,-2.92948 -1.08652,-2.14191 -1.322424,-3.48004 -0.831693,-4.71759 0.39198,-0.98851 0.325855,-1.32896 -0.258112,-1.32896 -0.612706,0 -1.542741,0.80261 -1.546939,1.33502 -0.01785,2.26115 -3.637517,8.8652 -4.869699,8.88467 -1.217161,0.0182 -1.297463,-1.06223 -0.489007,-6.58604 0.386176,-2.63859 0.316595,-3.32368 -0.337566,-3.32368 -1.021324,0 -1.901859,3.49767 -1.922186,7.63527 -0.02985,6.07233 3.469921,5.81668 6.596243,-0.48184 0.903212,-1.81967 1.103917,-1.84942 1.942052,-0.28787 0.924982,1.72337 0.879994,2.88756 -0.113034,2.92501 -1.195291,0.045 -1.722599,0.4177 -1.722599,1.21728 0,1.49932 1.714067,2.1888 3.06951,1.23473 z m 11.330417,-2.81186 -0.619139,-0.83561 v -1.9348 c 0,-2.10937 0.457786,-3.9943 1.043786,-4.29781 1.459857,-0.75607 2.392807,0.28941 2.577869,2.88878 0.258514,3.63107 -1.546838,6.14408 -3.002516,4.17944 z m 1.322846,-0.32366 c 1.04636,-0.54193 1.437529,-4.38999 0.5735,-5.6417 -1.302986,-1.88761 -2.811923,2.90392 -1.580099,5.01748 0.53134,0.91166 0.495036,0.88916 1.006599,0.62422 z"
       id="path75" />
  </g>
</svg>
