<?xml version="1.0" encoding="UTF-8" standalone="no"?>
<!-- Created with Inkscape (http://www.inkscape.org/) -->

<svg
   class="indexFisio"
   viewBox="0 0 64.205314 52.55011"
   version="1.1"
   id="svg1"
   sodipodi:docname="schriftzug.svg"
   inkscape:version="1.4 (86a8ad7, 2024-10-11)"
   xmlns:inkscape="http://www.inkscape.org/namespaces/inkscape"
   xmlns:sodipodi="http://sodipodi.sourceforge.net/DTD/sodipodi-0.dtd"
   xmlns="http://www.w3.org/2000/svg"
   xmlns:svg="http://www.w3.org/2000/svg">
  <sodipodi:namedview
     id="namedview1"
     pagecolor="#ffffff"
     bordercolor="#000000"
     borderopacity="0.25"
     inkscape:showpageshadow="2"
     inkscape:pageopacity="0.0"
     inkscape:pagecheckerboard="0"
     inkscape:deskcolor="#d1d1d1"
     inkscape:document-units="mm"
     inkscape:zoom="16"
     inkscape:cx="45.125"
     inkscape:cy="25.84375"
     inkscape:window-width="1920"
     inkscape:window-height="1111"
     inkscape:window-x="-9"
     inkscape:window-y="-9"
     inkscape:window-maximized="1"
     inkscape:current-layer="layer1" />
  <defs
     id="defs1">
    <filter
       style="color-interpolation-filters:sRGB"
       inkscape:label="Noise Fill"
       id="filter35"
       x="0"
       y="0"
       width="1"
       height="1">
      <feTurbulence
         type="fractalNoise"
         baseFrequency="20 39.3"
         numOctaves="5"
         seed="1"
         result="turbulence"
         id="feTurbulence34" />
      <feComposite
         in="SourceGraphic"
         in2="turbulence"
         operator="in"
         result="composite1"
         id="feComposite34" />
      <feColorMatrix
         values="1 0 0 0 0 0 1 0 0 0 0 0 1 0 0 0 0 0 4.8 -1 "
         result="color"
         id="feColorMatrix34" />
      <feFlood
         flood-opacity="1"
         flood-color="rgb(21,40,57)"
         result="flood"
         id="feFlood34" />
      <feMerge
         result="merge"
         id="feMerge35">
        <feMergeNode
           in="flood"
           id="feMergeNode34" />
        <feMergeNode
           in="color"
           id="feMergeNode35" />
      </feMerge>
      <feComposite
         in2="SourceGraphic"
         operator="in"
         result="fbSourceGraphic"
         id="feComposite35" />
      <feColorMatrix
         result="fbSourceGraphicAlpha"
         in="fbSourceGraphic"
         values="0 0 0 -1 0 0 0 0 -1 0 0 0 0 -1 0 0 0 0 1 0"
         id="feColorMatrix35" />
      <feTurbulence
         id="feTurbulence35"
         type="fractalNoise"
         baseFrequency="20 39.3"
         numOctaves="5"
         seed="1"
         result="turbulence" />
      <feComposite
         id="feComposite36"
         in="fbSourceGraphic"
         in2="turbulence"
         operator="in"
         result="composite1" />
      <feColorMatrix
         id="feColorMatrix36"
         values="1 0 0 0 0 0 1 0 0 0 0 0 1 0 0 0 0 0 33.01 -37.9257 "
         result="color" />
      <feFlood
         id="feFlood36"
         flood-opacity="1"
         flood-color="rgb(21,40,57)"
         result="flood" />
      <feMerge
         id="feMerge36"
         result="merge">
        <feMergeNode
           id="feMergeNode36"
           in="flood" />
        <feMergeNode
           id="feMergeNode37"
           in="color" />
      </feMerge>
      <feComposite
         id="feComposite37"
         in2="fbSourceGraphic"
         operator="in"
         result="fbSourceGraphic" />
      <feColorMatrix
         result="fbSourceGraphicAlpha"
         in="fbSourceGraphic"
         values="0 0 0 -1 0 0 0 0 -1 0 0 0 0 -1 0 0 0 0 1 0"
         id="feColorMatrix37" />
      <feTurbulence
         id="feTurbulence37"
         type="fractalNoise"
         baseFrequency="20 39.3"
         numOctaves="5"
         seed="1"
         result="turbulence" />
      <feComposite
         id="feComposite38"
         in="fbSourceGraphic"
         in2="turbulence"
         operator="in"
         result="composite1" />
      <feColorMatrix
         id="feColorMatrix38"
         values="1 0 0 0 0 0 1 0 0 0 0 0 1 0 0 0 0 0 33.01 -3.86997 "
         result="color" />
      <feFlood
         id="feFlood38"
         flood-opacity="1"
         flood-color="rgb(21,40,57)"
         result="flood" />
      <feMerge
         id="feMerge38"
         result="merge">
        <feMergeNode
           id="feMergeNode38"
           in="flood" />
        <feMergeNode
           id="feMergeNode39"
           in="color" />
      </feMerge>
      <feComposite
         id="feComposite39"
         in2="fbSourceGraphic"
         operator="in"
         result="fbSourceGraphic" />
      <feColorMatrix
         result="fbSourceGraphicAlpha"
         in="fbSourceGraphic"
         values="0 0 0 -1 0 0 0 0 -1 0 0 0 0 -1 0 0 0 0 1 0"
         id="feColorMatrix39" />
      <feTurbulence
         id="feTurbulence39"
         type="fractalNoise"
         baseFrequency="20 39.3"
         numOctaves="5"
         seed="1"
         result="turbulence" />
      <feComposite
         id="feComposite40"
         in="fbSourceGraphic"
         in2="turbulence"
         operator="in"
         result="composite1" />
      <feColorMatrix
         id="feColorMatrix40"
         values="1 0 0 0 0 0 1 0 0 0 0 0 1 0 0 0 0 0 33.01 -3.86997 "
         result="color" />
      <feFlood
         id="feFlood40"
         flood-opacity="1"
         flood-color="rgb(21,40,57)"
         result="flood" />
      <feMerge
         id="feMerge40"
         result="merge">
        <feMergeNode
           id="feMergeNode40"
           in="flood" />
        <feMergeNode
           id="feMergeNode41"
           in="color" />
      </feMerge>
      <feComposite
         id="feComposite41"
         in2="fbSourceGraphic"
         operator="in"
         result="fbSourceGraphic" />
      <feColorMatrix
         result="fbSourceGraphicAlpha"
         in="fbSourceGraphic"
         values="0 0 0 -1 0 0 0 0 -1 0 0 0 0 -1 0 0 0 0 1 0"
         id="feColorMatrix41" />
      <feTurbulence
         id="feTurbulence41"
         type="fractalNoise"
         baseFrequency="20 39.3"
         numOctaves="5"
         seed="1"
         result="turbulence" />
      <feComposite
         id="feComposite42"
         in="fbSourceGraphic"
         in2="turbulence"
         operator="in"
         result="composite1" />
      <feColorMatrix
         id="feColorMatrix42"
         values="1 0 0 0 0 0 1 0 0 0 0 0 1 0 0 0 0 0 8.28173 -3.86997 "
         result="color" />
      <feFlood
         id="feFlood42"
         flood-opacity="1"
         flood-color="rgb(21,40,57)"
         result="flood" />
      <feMerge
         id="feMerge42"
         result="merge">
        <feMergeNode
           id="feMergeNode42"
           in="flood" />
        <feMergeNode
           id="feMergeNode43"
           in="color" />
      </feMerge>
      <feComposite
         id="feComposite43"
         in2="fbSourceGraphic"
         operator="in"
         result="fbSourceGraphic" />
      <feColorMatrix
         result="fbSourceGraphicAlpha"
         in="fbSourceGraphic"
         values="0 0 0 -1 0 0 0 0 -1 0 0 0 0 -1 0 0 0 0 1 0"
         id="feColorMatrix43" />
      <feTurbulence
         id="feTurbulence43"
         type="fractalNoise"
         baseFrequency="20 39.3"
         numOctaves="3"
         seed="1"
         result="turbulence" />
      <feComposite
         id="feComposite44"
         in="fbSourceGraphic"
         in2="turbulence"
         operator="in"
         result="composite1" />
      <feColorMatrix
         id="feColorMatrix44"
         values="1 0 0 0 0 0 1 0 0 0 0 0 1 0 0 0 0 0 8.28173 -3.86997 "
         result="color" />
      <feFlood
         id="feFlood44"
         flood-opacity="1"
         flood-color="rgb(21,40,57)"
         result="flood" />
      <feMerge
         id="feMerge44"
         result="merge">
        <feMergeNode
           id="feMergeNode44"
           in="flood" />
        <feMergeNode
           id="feMergeNode45"
           in="color" />
      </feMerge>
      <feComposite
         id="feComposite45"
         in2="fbSourceGraphic"
         operator="in"
         result="fbSourceGraphic" />
      <feColorMatrix
         result="fbSourceGraphicAlpha"
         in="fbSourceGraphic"
         values="0 0 0 -1 0 0 0 0 -1 0 0 0 0 -1 0 0 0 0 1 0"
         id="feColorMatrix45" />
      <feTurbulence
         id="feTurbulence45"
         type="fractalNoise"
         baseFrequency="20 39.3"
         numOctaves="3"
         seed="6"
         result="turbulence" />
      <feComposite
         id="feComposite46"
         in="fbSourceGraphic"
         in2="turbulence"
         operator="in"
         result="composite1" />
      <feColorMatrix
         id="feColorMatrix46"
         values="1 0 0 0 0 0 1 0 0 0 0 0 1 0 0 0 0 0 8.28173 -3.86997 "
         result="color" />
      <feFlood
         id="feFlood46"
         flood-opacity="1"
         flood-color="rgb(21,40,57)"
         result="flood" />
      <feMerge
         id="feMerge46"
         result="merge">
        <feMergeNode
           id="feMergeNode46"
           in="flood" />
        <feMergeNode
           id="feMergeNode47"
           in="color" />
      </feMerge>
      <feComposite
         id="feComposite47"
         in2="fbSourceGraphic"
         operator="in"
         result="fbSourceGraphic" />
      <feColorMatrix
         result="fbSourceGraphicAlpha"
         in="fbSourceGraphic"
         values="0 0 0 -1 0 0 0 0 -1 0 0 0 0 -1 0 0 0 0 1 0"
         id="feColorMatrix47" />
      <feTurbulence
         id="feTurbulence47"
         type="fractalNoise"
         baseFrequency="70.7937 39.3"
         numOctaves="3"
         seed="6"
         result="turbulence" />
      <feComposite
         id="feComposite48"
         in="fbSourceGraphic"
         in2="turbulence"
         operator="in"
         result="composite1" />
      <feColorMatrix
         id="feColorMatrix48"
         values="1 0 0 0 0 0 1 0 0 0 0 0 1 0 0 0 0 0 8.28173 -3.86997 "
         result="color" />
      <feFlood
         id="feFlood48"
         flood-opacity="1"
         flood-color="rgb(21,40,57)"
         result="flood" />
      <feMerge
         id="feMerge48"
         result="merge">
        <feMergeNode
           id="feMergeNode48"
           in="flood" />
        <feMergeNode
           id="feMergeNode49"
           in="color" />
      </feMerge>
      <feComposite
         id="feComposite49"
         in2="fbSourceGraphic"
         operator="in"
         result="composite2" />
    </filter>
    <filter
       inkscape:label="Swiss Cheese"
       inkscape:menu="Overlays"
       inkscape:menu-tooltip="Random inner-bevel holes"
       style="color-interpolation-filters:sRGB"
       id="filter80"
       x="-0.27321711"
       y="-0.31076279"
       width="1.5464342"
       height="1.6215256">
      <feTurbulence
         type="fractalNoise"
         baseFrequency="0.097"
         numOctaves="1"
         id="feTurbulence76" />
      <feColorMatrix
         values="1 0 0 0 0 0 1 0 0 0 0 0 1 0 0 0 0 0 20 -14"
         id="feColorMatrix76" />
      <feGaussianBlur
         stdDeviation="3.7"
         id="feGaussianBlur76" />
      <feColorMatrix
         values="1 0 0 0 0 0 1 0 0 0 0 0 1 0 0 0 0 0 70 0"
         result="result0"
         id="feColorMatrix77" />
      <feGaussianBlur
         stdDeviation="3.9"
         result="result1"
         id="feGaussianBlur77" />
      <feDiffuseLighting
         surfaceScale="-5"
         diffuseConstant="1.28999996"
         id="feDiffuseLighting77">
        <feDistantLight
           azimuth="225"
           elevation="45"
           id="feDistantLight77" />
      </feDiffuseLighting>
      <feComposite
         in2="result0"
         operator="in"
         id="feComposite77" />
      <feBlend
         in2="SourceGraphic"
         mode="multiply"
         id="feBlend77" />
      <feComposite
         in2="SourceGraphic"
         operator="in"
         result="result2"
         id="feComposite78" />
      <feSpecularLighting
         in="result1"
         surfaceScale="-5"
         specularExponent="4.5"
         specularConstant="0.69999999"
         id="feSpecularLighting78">
        <feDistantLight
           elevation="33"
           azimuth="225"
           id="feDistantLight78" />
      </feSpecularLighting>
      <feComposite
         in2="result0"
         operator="in"
         id="feComposite79" />
      <feComposite
         in2="result2"
         operator="atop"
         id="feComposite80" />
    </filter>
  </defs>
  <g
     id="layer1"
     transform="translate(-45.434334,-143.8969)">
    <path
       d="m 63.999314,171.73913 c -0.999174,-0.0629 -2.22002,0.70074 -2.22002,1.67741 0,2.78097 -4.697104,10.31897 -5.638415,9.04855 -0.366023,-0.49402 0.432166,-6.00462 0.971,-6.70399 0.752058,-0.97615 0.653112,-2.38723 -0.229443,-3.27318 l -0.648539,-0.65061 h -3.026689 -3.026689 l -1.136365,0.77515 c -0.625165,0.42622 -1.452189,1.31068 -1.837613,1.96577 l -0.700733,1.19114 v 2.42776 c 0,2.87982 0.48376,4.11506 1.674317,4.27571 0.975842,0.13159 1.762134,-0.91845 1.545125,-2.06344 -0.673558,-3.55388 -0.031,-4.88621 2.452047,-5.08341 l 0.989086,-0.0785 -0.077,1.54978 c -0.04245,0.85245 -0.197645,2.52621 -0.344682,3.71967 l -0.267167,2.16989 -0.500228,0.0961 c -1.132505,0.21766 -1.43872,3.20638 -0.34985,3.41478 l 0.528133,0.10128 -0.151411,1.44849 c -0.506302,4.83412 -2.009964,5.91542 -3.765662,2.70785 -1.687368,-3.08274 -3.655505,-1.09136 -2.413289,2.44171 2.126062,6.04687 8.701498,2.93919 9.428365,-4.45606 0.283183,-2.88116 0.699169,-2.52597 2.501656,2.13734 1.000134,2.58749 1.512954,3.56811 2.207617,4.21783 l 0.905371,0.84646 h 1.579748 c 1.240576,0 1.760418,-0.15082 2.421558,-0.70228 l 0.841809,-0.70229 0.579293,0.73432 c 0.729244,0.92402 2.386648,0.97414 3.476274,0.10542 l 0.734838,-0.58549 0.289905,0.52503 c 1.031983,1.86966 2.315307,0.81302 3.140377,-2.58537 1.039432,-4.28132 2.361607,-6.72788 1.741496,-3.22254 -1.022507,5.77998 1.50422,8.65973 4.753198,5.41776 l 0.657841,-0.65629 0.668176,0.64182 c 1.49851,1.44001 4.378627,1.42768 6.492627,-0.0279 1.08264,-0.74542 1.016294,-0.65838 2.487704,-3.27783 l 1.047481,-1.86449 0.502812,1.03508 c 0.65011,1.33849 0.661968,1.30207 -0.450102,1.41335 -1.9632,0.19634 -2.393917,2.86936 -0.652157,4.0473 v 5.1e-4 c 1.03,0.69662 1.554551,0.68308 2.983281,-0.077 0.64098,-0.34098 1.373567,-0.62012 1.627807,-0.62012 0.25424,0 0.777647,-0.21973 1.163237,-0.48886 l 0.700732,-0.48938 0.496094,0.62839 c 1.75615,2.22667 4.825645,0.22428 6.977355,-4.55218 l 0.46302,-1.02784 0.48731,1.06453 c 0.63735,1.3917 0.62423,1.45573 -0.29146,1.45573 -2.29753,0 -2.50654,3.90435 -0.23977,4.47828 3.64335,0.92247 5.34784,-3.86242 3.03857,-8.52971 l -0.95085,-1.92082 0.26924,-1.35805 c 0.14797,-0.74693 0.26923,-1.63551 0.26923,-1.97404 v -0.61547 h -1.01492 c -1.54467,0 -1.66752,0.15026 -2.88768,3.5233 -2.60523,7.20192 -4.545462,8.33918 -3.65456,2.14199 0.7157,-4.97854 0.51919,-5.92004 -1.140501,-5.47202 -1.17419,0.31694 -2.097547,3.22446 -2.097547,6.60425 0,0.48817 -0.288408,1.35658 -0.659908,1.98747 l -0.659391,1.12087 -0.129191,-1.07126 c -0.07083,-0.58908 -0.599345,-1.9609 -1.174605,-3.04891 l -1.045931,-1.97817 0.364835,-1.44436 c 0.5215,-2.06568 0.35173,-2.41547 -1.11466,-2.30167 l -1.208195,0.0935 -1.403015,3.64422 c -2.09444,5.44064 -4.437331,7.68802 -6.439401,6.17585 l -0.419612,-0.31677 0.685746,-0.22273 c 4.56864,-1.48397 5.164743,-9.32323 0.702283,-9.23613 -2.67892,0.0523 -4.724777,3.12047 -4.724777,7.08639 0,0.96347 -0.141219,1.46438 -0.562756,1.99884 -0.573964,0.72765 -1.421485,0.68246 -1.21698,-0.0651 0.439551,-1.60677 0.925456,-7.38781 0.681612,-8.1101 l -0.270267,-0.79943 H 77.66618 c -1.403415,0 -2.392046,0.84312 -3.461804,2.95279 -0.429957,0.84791 -0.705863,1.26289 -0.612883,0.92191 0.09297,-0.34098 0.226366,-1.34478 0.296106,-2.23087 l 0.126608,-1.61128 -0.629419,-0.2129 c -1.723291,-0.58375 -2.648617,1.30246 -3.003951,6.12159 -0.168272,2.28214 -1.039416,3.96357 -1.838648,3.54965 l -0.384472,-0.19947 0.160713,-2.02778 c 0.08849,-1.11532 0.255514,-2.47267 0.371037,-3.01636 0.115531,-0.54367 0.210323,-1.72171 0.210323,-2.61792 v -1.62936 h -1.120345 c -1.550132,0 -1.810944,0.6338 -2.419491,5.88594 l -0.268717,2.32079 -0.771012,0.70125 c -1.323596,1.20383 -2.126857,0.5551 -3.340882,-2.69854 -0.430064,-1.15258 -1.084067,-2.43856 -1.453141,-2.85771 l -0.67076,-0.76223 1.095024,-0.83044 c 3.013361,-2.28615 6.387525,-10.43324 4.920629,-11.88092 -0.230454,-0.22743 -0.538723,-0.34026 -0.871781,-0.36122 z m 20.615796,12.85503 c -0.376002,-0.002 -0.798134,0.24121 -1.184941,0.8046 -0.5518,0.80371 -1.050506,3.03241 -0.842326,3.76463 0.31018,1.09093 2.483339,-0.22765 2.970879,-1.80248 0.487451,-1.57455 -0.116408,-2.76317 -0.943612,-2.76675 z m -0.0041,1.01389 c 0.222225,-0.0212 0.414483,0.14162 0.526583,0.53588 0.0989,0.34788 -0.123921,0.84647 -0.692981,1.5503 -1.02125,1.26316 -1.410518,1.33739 -1.204578,0.22996 0.247514,-1.33102 0.882079,-2.26954 1.370976,-2.31614 z"
       style="baseline-shift:baseline;display:inline;overflow:visible;vector-effect:none;fill:#edf5e1;fill-opacity:1;enable-background:accumulate;stop-color:#000000;stop-opacity:1"
       id="path8"
       sodipodi:nodetypes="cscccccccccscscccccccccssssccsccccccsscccccccccccscccsccsscccscssscscccccccccccscscsccssscccsccccscsccsscccsccscsccccsc" />
    <path
       d="m 68.920461,175.31979 c -2.370426,0 -3.208252,3.61502 -1.102259,4.75578 1.395809,0.75605 2.985865,-0.58497 2.985865,-2.51819 0,-1.60746 -0.530467,-2.23759 -1.883606,-2.23759 z m -0.118856,0.76998 c 0.213779,-10e-4 0.434059,0.0535 0.648022,0.17311 0.845388,0.47263 0.928752,1.87305 0.15503,2.60449 -1.021595,0.96572 -2.245858,0.3798 -2.245858,-1.07487 0,-0.98616 0.67931,-1.69896 1.442806,-1.70273 z"
       style="baseline-shift:baseline;display:inline;overflow:visible;vector-effect:none;fill:#edf5e1;fill-opacity:1;enable-background:accumulate;stop-color:#000000;stop-opacity:1"
       id="path12" />
    <path
       d="m 100.77681,175.92463 c -2.370425,0 -3.208251,3.61502 -1.102258,4.75578 1.395808,0.75605 2.985868,-0.58497 2.985868,-2.51819 0,-1.60746 -0.53047,-2.23759 -1.88361,-2.23759 z m -0.11886,0.76998 c 0.21378,-0.001 0.43406,0.0535 0.64803,0.17311 0.84538,0.47263 0.92875,1.87305 0.15503,2.60449 -1.0216,0.96572 -2.245861,0.3798 -2.245861,-1.07487 0,-0.98616 0.679313,-1.69896 1.442801,-1.70273 z"
       style="baseline-shift:baseline;display:inline;overflow:visible;vector-effect:none;fill:#edf5e1;fill-opacity:1;enable-background:accumulate;stop-color:#000000"
       id="path12-5" />
    <path
       d="m 79.338429,148.26407 c -0.535566,-0.005 -1.074677,0.15735 -1.441772,0.50437 -1.022035,0.96617 -0.872987,3.54844 0.241846,4.18992 2.031153,1.16871 4.151389,-1.69378 2.875793,-3.88245 -0.304649,-0.52271 -0.987281,-0.80556 -1.675867,-0.81184 z"
       style="baseline-shift:baseline;display:inline;overflow:visible;vector-effect:none;fill:#edf5e1;fill-opacity:1;enable-background:accumulate;stop-color:#000000;stop-opacity:1"
       id="path11"
       sodipodi:nodetypes="cccsc" />
    <path
       d="m 65.65296,148.29456 c -2.005778,0 -3.013523,2.45715 -1.722376,4.19975 l 0.619084,0.83561 1.064535,-0.16227 c 2.619976,-0.39857 2.655562,-4.87309 0.03876,-4.87309 z"
       style="baseline-shift:baseline;display:inline;overflow:visible;vector-effect:none;fill:#edf5e1;fill-opacity:1;enable-background:accumulate;stop-color:#000000;stop-opacity:1"
       id="path10"
       sodipodi:nodetypes="scccss" />
    <path
       d="m 60.179392,143.8969 c -3.091176,-9e-5 -6.490871,0.34125 -8.04447,1.02423 -2.858277,1.25654 -4.334382,5.17329 -3.132109,8.31112 0.543535,1.41861 2.019128,1.75442 2.772441,0.63097 l 0.42323,-0.63097 -0.272852,-1.01855 c -0.568562,-2.12209 -0.06144,-3.25914 1.742013,-3.90518 1.215479,-0.43542 1.475321,-0.23658 1.331702,1.01802 -0.0619,0.54079 -0.174905,1.90824 -0.251665,3.03909 l -0.140043,2.05621 -0.890385,0.19223 c -2.001216,0.43188 -2.078024,3.91036 -0.0863,3.91036 h 0.60048 l -0.162264,1.46141 c -0.503957,4.53565 -2.586294,5.93792 -4.702039,3.16673 -1.414707,-1.85296 -2.537829,-1.50048 -2.537829,0.79634 0,1.55241 0.962515,2.88339 2.730066,3.77599 3.807832,1.92292 7.324237,-1.42912 7.944217,-7.57318 l 0.163815,-1.62729 h 1.99471 c 2.446565,0 3.01532,-0.4009 3.01532,-2.12545 0,-1.70187 -0.275651,-1.90428 -2.591056,-1.90428 h -2.039152 l 0.161747,-3.17758 c 0.08908,-1.74755 0.211298,-3.29204 0.271818,-3.43235 0.06053,-0.14049 1.732457,-0.15718 3.715019,-0.0372 l 3.604431,0.21808 0.39119,-0.52762 c 0.418137,-0.56432 0.512082,-1.91388 0.182418,-2.61638 -0.320526,-0.68304 -3.103278,-1.02465 -6.194454,-1.02474 z"
       style="baseline-shift:baseline;display:inline;overflow:visible;vector-effect:none;fill:#edf5e1;fill-opacity:0.99000001;enable-background:accumulate;stop-color:#000000;stop-opacity:1"
       id="path9"
       sodipodi:nodetypes="cccccccccccscccscccsssccccccccc" />
    <path
       style="baseline-shift:baseline;display:inline;overflow:visible;vector-effect:none;fill:#edf5e1;fill-opacity:1;enable-background:accumulate;stop-color:#000000;stop-opacity:1"
       d="m 72.396734,153.79862 c -0.817209,0.0397 -2.027427,1.27482 -2.779158,3.52795 -1.252375,3.75366 -3.134284,7.0306 -3.830774,6.66988 -0.46533,-0.24099 -0.44586,-1.07193 0.117305,-5.01055 0.595238,-4.16293 0.527963,-4.49171 -0.917256,-4.49171 -1.36412,0 -1.433438,0.11936 -2.073259,3.55792 -1.294216,6.95542 0.07079,11.04997 3.266467,9.79733 1.021835,-0.40054 3.900426,-4.05671 4.201294,-5.33611 0.188827,-0.80296 0.482108,-0.63971 1.058334,0.5886 l 0.470255,1.002 h -0.898136 c -2.081787,0 -2.592591,3.29678 -0.672827,4.34238 0.780224,0.42494 1.443008,0.35207 2.844271,-0.31265 0.718829,-0.34098 1.49634,-0.62011 1.728059,-0.62011 0.231715,0 0.741894,-0.22361 1.133781,-0.49713 l 0.712618,-0.49713 0.196371,0.47387 c 0.558318,1.34655 2.758329,1.36758 4.207495,0.0403 l 0.84491,-0.77359 0.65474,0.7431 c 2.834772,3.21931 6.856996,-0.38215 6.960815,-6.23269 l 0.04289,-2.40089 -0.574125,-1.37924 c -2.183457,-5.24415 -8.038786,-2.20919 -8.038786,4.16667 v 1.59111 l -0.679028,0.87799 -0.679029,0.87746 -0.257348,-0.76326 c -0.201842,-0.59788 -0.151737,-1.55261 0.23151,-4.3987 0.527616,-3.91826 0.486529,-4.68618 -0.265617,-4.95163 -1.682269,-0.59376 -2.313019,0.54565 -2.887679,5.21932 -0.384752,3.12912 -1.664498,5.85435 -1.664498,3.54448 0,-0.77743 -0.265276,-1.50368 -1.316198,-3.60029 l -0.805119,-1.60559 0.327628,-1.33945 c 0.476383,-1.94901 0.06116,-2.84466 -0.659908,-2.80965 z"
       id="path7" />
    <path
       style="opacity:0.475973;fill:#ffffff;fill-opacity:1;stroke-width:5.30267;stroke-miterlimit:3.4"
       id="path1"
       sodipodi:type="arc"
       sodipodi:cx="96.876778"
       sodipodi:cy="164.11806"
       sodipodi:rx="1.9276143"
       sodipodi:ry="4.2904968"
       sodipodi:start="0"
       sodipodi:end="6.2449524"
       sodipodi:open="true"
       sodipodi:arc-type="arc"
       d="m 98.804392,164.11806 a 1.9276143,4.2904968 0 0 1 -1.90919,4.2903 1.9276143,4.2904968 0 0 1 -1.945686,-4.20829 1.9276143,4.2904968 0 0 1 1.871995,-4.37075 1.9276143,4.2904968 0 0 1 1.981472,4.12474" />
    <path
       style="opacity:0.475973;fill:#ffffff;fill-opacity:1;stroke-width:3.32774;stroke-miterlimit:3.4"
       id="path1-8"
       sodipodi:type="arc"
       sodipodi:cx="148.74706"
       sodipodi:cy="120.59888"
       sodipodi:rx="1.1988549"
       sodipodi:ry="2.7168789"
       sodipodi:start="0"
       sodipodi:end="6.2449524"
       sodipodi:open="true"
       sodipodi:arc-type="arc"
       d="m 149.94591,120.59888 a 1.1988549,2.7168789 0 0 1 -1.1874,2.71675 1.1988549,2.7168789 0 0 1 -1.21009,-2.66482 1.1988549,2.7168789 0 0 1 1.16426,-2.7677 1.1988549,2.7168789 0 0 1 1.23235,2.61192"
       transform="matrix(0.86385528,0.50374007,-0.36723945,0.93012643,0,0)" />
    <path
       style="baseline-shift:baseline;display:inline;overflow:visible;vector-effect:none;fill:#ffffff;fill-opacity:0;enable-background:accumulate;stop-color:#000000;stop-opacity:1"
       d="m 85.341927,157.28394 c -0.235218,0.0167 -0.490054,0.0954 -0.763777,0.2372 -0.586,0.30351 -1.043864,2.18856 -1.043864,4.29793 v 1.93476 l 0.619083,0.83561 c 1.455678,1.96464 3.260915,-0.54852 3.002401,-4.17959 -0.150363,-2.11199 -0.794563,-3.19838 -1.813843,-3.12591 z"
       id="path2" />
  </g>
</svg>
