<?xml version="1.0" encoding="UTF-8" standalone="no"?>
<!-- Created with Inkscape (http://www.inkscape.org/) -->

<svg
   width="42.488255mm"
   height="222.56189mm"
   viewBox="0 0 42.488254 222.56189"
   version="1.1"
   id="svg1"
   xml:space="preserve"
   inkscape:version="1.4 (86a8ad7, 2024-10-11)"
   sodipodi:docname="Wirbelsäule.svg"
   xmlns:inkscape="http://www.inkscape.org/namespaces/inkscape"
   xmlns:sodipodi="http://sodipodi.sourceforge.net/DTD/sodipodi-0.dtd"
   xmlns="http://www.w3.org/2000/svg"
   xmlns:svg="http://www.w3.org/2000/svg"><sodipodi:namedview
     id="namedview1"
     pagecolor="#ffffff"
     bordercolor="#000000"
     borderopacity="0.25"
     inkscape:showpageshadow="2"
     inkscape:pageopacity="0.0"
     inkscape:pagecheckerboard="0"
     inkscape:deskcolor="#d1d1d1"
     inkscape:document-units="mm"
     inkscape:zoom="1.5162318"
     inkscape:cx="302.3944"
     inkscape:cy="277.33227"
     inkscape:window-width="1920"
     inkscape:window-height="1111"
     inkscape:window-x="-9"
     inkscape:window-y="-9"
     inkscape:window-maximized="1"
     inkscape:current-layer="layer1" /><defs
     id="defs1" /><g
     inkscape:label="Layer 1"
     inkscape:groupmode="layer"
     id="layer1"
     transform="translate(-32.109332,-28.301369)"><path
       style="fill:#026a9f;fill-opacity:1"
       d="m 57.402668,244.90829 c 0.0458,-7.07848 -0.85133,-8.43853 -7.37764,-11.18441 -3.62936,-1.52702 -4.30571,-2.15961 -5.03361,-4.7079 -0.4625,-1.61911 -1.56776,-3.56394 -2.45614,-4.32183 -2.27643,-1.94205 -2.02602,-3.40502 0.60104,-3.51157 2.21629,-0.0899 2.21629,-0.0899 -0.19721,-0.57656 -2.00655,-0.40461 -2.71014,-1.18814 -4.17275,-4.64684 -1.26072,-2.98129 -1.51944,-4.43257 -0.91299,-5.12141 0.61863,-0.70268 0.52028,-0.96123 -0.36564,-0.96123 -0.76143,0 -1.54701,-1.25461 -2.11348,-3.37534 -1.55435,-5.81906 -1.34467,-6.37615 2.52357,-6.70459 l 3.42517,-0.29081 -3.32649,-0.13273 c -1.82957,-0.073 -3.74125,-0.60385 -4.24819,-1.17966 -0.51928,-0.58983 -1.12912,-5.23364 -1.39677,-10.6362 -0.44078,-8.89693 -0.37024,-9.58928 0.97705,-9.58928 1.39803,0 1.3981,-0.0373 0.002,-0.99979 -1.34434,-0.92666 -1.37856,-1.52409 -0.46787,-8.16709 0.94412,-6.88683 1.72066,-10.31014 4.21083,-18.56322 1.1551,-3.82828 1.68107,-4.14818 5.05567,-3.07495 0.88652,0.28194 0.61452,-0.0329 -0.60444,-0.6996 -2.4693,-1.3506 -2.62827,-2.06327 -1.29343,-5.79862 1.45086,-4.06003 2.18476,-4.64461 4.17839,-3.32826 0.93763,0.6191 2.07742,1.12436 2.53286,1.12279 0.45545,-0.002 -0.35058,-0.68029 -1.79117,-1.50829 -3.0382,-1.74625 -3.02127,-1.66431 -1.31738,-6.37833 0.96171,-2.66069 1.62321,-3.48552 2.53176,-3.15686 0.99448,0.35974 1.04425,0.23404 0.26004,-0.65672 -0.7563,-0.85905 -0.7523,-1.82483 0.0181,-4.38583 0.54341,-1.80632 1.38188,-3.62609 1.86327,-4.04394 0.48139,-0.41785 0.92899,-1.78536 0.99465,-3.03891 0.0657,-1.25356 0.55759,-3.30482 1.09316,-4.55838 0.53557,-1.25355 1.08394,-3.52633 1.2186,-5.05063 0.13466,-1.5243 0.58565,-3.40462 1.0022,-4.17851 0.41655,-0.77388 0.83348,-3.279851 0.92652,-5.568821 0.093,-2.28897 0.54883,-4.38297 1.01289,-4.65334 0.57101,-0.33267 0.54052,-0.66823 -0.0943,-1.03811 -0.55352,-0.32248 -0.90151,-2.30794 -0.84887,-4.84327 0.12445,-5.99393 -0.57211,-12.72613 -1.48336,-14.33661 -0.73301,-1.29545 -1.21101,-4.13193 -1.0206,-6.05622 0.0491,-0.49584 1.26787,-1.03942 2.70846,-1.20795 l 2.61925,-0.30641 -2.65816,-0.12159 c -2.18148,-0.0998 -2.85565,-0.56436 -3.75952,-2.5907 -0.76403,-1.71286 -0.84774,-2.75723 -0.27329,-3.40979 0.58976,-0.66994 0.47197,-1.06949 -0.40926,-1.38826 -1.70582,-0.61707 -2.20693,-2.14661 -2.70648,-8.26115 -0.3197,-3.91315 -0.15001,-5.47968 0.65838,-6.07783 0.599,-0.44322 1.0891,-2.17336 1.0891,-3.84476 0,-2.6063 0.22946,-3.00737 1.61185,-2.81731 1.22357,0.16823 1.34358,0.051 0.49819,-0.4866 -0.79166,-0.50345 -0.95587,-1.50107 -0.56792,-3.45046 0.47283,-2.37595 0.84774,-2.74224 2.80671,-2.74224 5.27989,0 9.75482,2.52759 9.75482,5.50986 0,1.24813 -0.46523,1.36917 -3.82813,0.99595 -3.82814,-0.42484 -3.82814,-0.42484 -1.24358,0.70201 2.46166,1.07328 4.26579,3.14474 4.26579,4.89789 0,0.49134 -2.45565,0.86493 -6.24591,0.95021 -5.25072,0.11815 -5.54893,0.18574 -1.87161,0.42425 4.58301,0.29725 8.92344,2.44969 8.92344,4.42519 0,0.79721 -1.06389,1.08786 -3.98205,1.08786 -2.19013,0 -4.2302,0.3785 -4.5335,0.84112 -0.37514,0.57218 0.0245,0.66879 1.24994,0.30215 2.43005,-0.72706 8.2215,1.73345 7.89557,3.35444 -0.13506,0.67174 -1.65769,1.55948 -3.45786,2.01605 -1.76908,0.44868 -4.12318,1.22755 -5.23133,1.73082 -2.01481,0.91502 -2.01481,0.91502 0,0.49544 1.10815,-0.23077 2.92147,-0.60447 4.02962,-0.83045 2.49881,-0.50955 8.05923,1.60546 8.05923,3.06549 0,0.59301 -0.72534,1.29522 -1.61185,1.56046 -2.36447,0.70744 -1.9754,1.76048 1.17345,3.17599 1.53192,0.68865 2.99671,1.77141 3.25508,2.40614 0.68383,1.67988 -2.3484,4.16772 -5.0797,4.16772 -1.40846,0 -2.72287,0.55896 -3.2753,1.39284 -1.07945,1.6294 -0.0504,1.84911 2.26799,0.48425 1.25463,-0.73862 2.09674,-0.63203 4.5016,0.56979 2.78056,1.38958 5.21611,3.75038 5.21611,5.05602 0,0.91757 -5.89138,2.99567 -7.42258,2.6182 -1.8536,-0.45694 -3.57337,1.43103 -1.86611,2.04862 0.6762,0.24461 1.22946,0.11359 1.22946,-0.29114 0,-1.44041 2.6359,-0.70071 5.72696,1.60714 2.05479,1.53413 3.13819,2.96062 3.13819,4.13195 0,1.52318 -0.51063,1.86112 -3.43731,2.27485 -1.89052,0.26725 -3.79451,0.40486 -4.2311,0.3058 -0.43658,-0.0991 -1.45885,0.0927 -2.27172,0.42609 -2.27372,0.93262 0.0991,1.93752 2.52334,1.06866 1.73933,-0.62339 2.37641,-0.31296 5.13181,2.50061 1.73028,1.7668 3.04004,3.73083 2.91058,4.36452 -0.31144,1.52449 -6.91847,2.793911 -8.79419,1.68965 -0.99899,-0.58813 -1.59769,-0.53934 -2.23269,0.181921 -1.19259,1.35462 -0.22439,2.04945 2.09205,1.50139 1.53934,-0.36421 2.48418,0.13682 4.68235,2.48295 1.51462,1.61658 2.76896,3.70846 2.78741,4.64862 0.0307,1.56165 -0.33559,1.70938 -4.23784,1.70938 -2.34927,0 -4.66566,-0.37167 -5.14754,-0.82593 -0.63091,-0.59473 -1.02771,-0.59473 -1.41763,0 -0.29782,0.45426 -1.33608,0.86001 -2.30725,0.90166 -1.6389,0.0703 -1.62101,0.11807 0.24904,0.66508 1.10815,0.32414 2.7646,0.43961 3.68102,0.25658 1.24362,-0.24837 2.42577,0.58628 4.66102,3.29086 1.64714,1.993 2.88656,4.15114 2.75427,4.79586 -0.2968,1.44642 -5.69841,1.70087 -8.728,0.41113 -2.44265,-1.03987 -5.82747,-0.33304 -3.92666,0.81998 0.63546,0.38546 1.92044,0.70085 2.8555,0.70085 2.04351,0 7.76128,6.12303 7.37697,7.89982 -0.2101,0.97135 -1.15252,1.17248 -4.67015,0.99669 -2.42381,-0.12113 -4.02509,0.0498 -3.5584,0.37986 2.26814,1.60409 5.29568,6.37369 5.05627,7.96569 -0.23471,1.56079 -0.63569,1.72494 -3.68851,1.50996 -1.88385,-0.13266 -3.42517,0.0767 -3.42517,0.46533 0,0.38859 1.10167,2.01334 2.44815,3.61056 3.53397,4.19202 2.9714,5.33861 -2.4738,5.04198 -2.82507,-0.1539 -4.75949,-0.67159 -5.38914,-1.44226 -0.80154,-0.98104 -1.20759,-1.02586 -2.20742,-0.24364 -1.64032,1.28331 -0.83176,2.30517 1.82683,2.30876 1.60081,0.002 2.94806,0.91082 5.14481,3.46995 3.95858,4.61157 3.42584,5.92298 -2.22664,5.4811 l -4.2477,-0.33207 3.42645,3.09641 c 4.7299,4.27429 5.20669,5.75244 1.85984,5.76582 -1.42668,0.006 -3.40563,0.21545 -4.39767,0.4661 -1.6625,0.42005 -1.48624,0.69401 2.2513,3.49932 2.23026,1.67397 3.92026,3.42469 3.75555,3.89048 -0.16471,0.4658 -2.44712,1.23575 -5.07203,1.71101 -2.62492,0.47526 -4.29392,0.90794 -3.70889,0.96151 2.12068,0.19421 8.20443,4.74502 8.20443,6.13714 0,1.15466 -0.86333,1.50282 -4.79253,1.93272 -2.6359,0.28839 -5.19868,0.28772 -5.69508,-0.001 -0.49641,-0.28921 -1.33175,-0.008 -1.85633,0.62574 -0.52458,0.63337 -1.67912,1.3117 -2.56563,1.50741 -1.02122,0.22544 -0.64807,0.38812 1.01834,0.44395 1.4466,0.0485 3.34011,-0.32981 4.2078,-0.84063 1.32119,-0.77781 2.30185,-0.59393 6.03348,1.13134 5.39744,2.49541 5.9672,4.52749 1.64637,5.87176 -4.19313,1.30454 -4.09152,2.01697 0.51891,3.63823 5.16025,1.81461 5.58178,3.3605 1.40094,5.13774 -3.70431,1.57466 -3.96102,2.4238 -0.92367,3.0553 4.35107,0.90464 6.14946,1.57459 6.44115,2.3995 0.46149,1.30512 -6.89989,5.73881 -8.76496,5.27904 -1.04361,-0.25727 -1.76099,0.0482 -2.05593,0.8754 -0.24916,0.6988 -1.40564,2.08391 -2.56995,3.07802 -2.11694,1.80747 -2.11694,1.80747 1.10675,0.074 6.13935,-3.30119 7.26139,-3.7715 9.00907,-3.77616 2.45482,-0.007 4.14129,1.83582 4.71231,5.14791 0.26783,1.55351 0.82608,4.46531 1.24054,6.47067 1.69015,8.17764 -0.0548,16.77688 -4.52546,22.3023 -3.27984,4.05362 -4.07203,3.37466 -4.02786,-3.45218 z m 6.15865,-4.84394 c 1.7852,-4.98525 1.77782,-7.50625 -0.0505,-17.24637 -1.49815,-7.98122 -2.39621,-8.3149 -10.29373,-3.8247 -2.93973,1.67141 -6.16244,3.03892 -7.1616,3.03892 -2.32438,0 -3.03865,1.08231 -1.50572,2.2816 0.65682,0.51387 1.56652,2.23767 2.02155,3.83067 0.68757,2.40705 1.33526,3.05165 3.83392,3.8156 7.0283,2.14885 9.52897,5.90111 8.8764,13.31911 -0.35922,4.08348 -0.35922,4.08348 1.11209,1.80278 0.80922,-1.25439 2.23463,-4.41231 3.16758,-7.01761 z m -16.63927,-21.95082 c 1.12653,-0.48386 2.76336,-2.02231 3.63739,-3.41878 1.1947,-1.90879 2.14603,-2.54027 3.83262,-2.54403 1.23391,-0.003 3.23182,-0.61942 4.43981,-1.37036 2.19634,-1.36536 2.19634,-1.36536 -1.72225,-2.49889 -3.64079,-1.05318 -3.98226,-1.03743 -4.81672,0.22217 -0.49398,0.74563 -1.71362,1.31242 -2.71033,1.25951 -0.99671,-0.0529 -2.83313,0.29285 -4.08095,0.76833 -1.24781,0.47548 -3.19112,0.86452 -4.31846,0.86452 -1.77411,0 -1.98292,0.25087 -1.55295,1.86581 1.56333,5.87177 2.87894,6.74713 7.29184,4.85172 z m -2.42459,-10.63327 c 1.12279,-0.48225 2.62256,-1.71291 3.33283,-2.73479 0.95984,-1.38092 1.80625,-1.76518 3.29663,-1.49661 1.10288,0.19875 3.25171,-0.21019 4.77519,-0.90875 l 2.76996,-1.2701 -3.98918,-1.58877 c -3.00344,-1.19619 -4.08484,-1.35377 -4.37633,-0.63772 -0.36435,0.89508 -5.73324,1.90116 -11.60282,2.17427 -2.89028,0.13448 -2.98409,0.37236 -1.77095,4.49031 0.72385,2.45704 1.1615,2.84898 3.18128,2.84898 1.28808,0 3.26061,-0.39457 4.38339,-0.87682 z m -1.48414,-10.51911 c 0.049,0 1.09156,-0.87578 2.31676,-1.94618 1.44605,-1.26334 2.68911,-1.76087 3.54286,-1.41802 1.77825,0.7141 3.28087,0.60594 6.15074,-0.44274 2.41777,-0.88347 2.41777,-0.88347 -1.48782,-2.76844 -3.3183,-1.60153 -4.10602,-1.7331 -5.2385,-0.87498 -0.85431,0.64734 -3.57556,1.0067 -7.57881,1.00083 -6.2459,-0.009 -6.2459,-0.009 -6.23356,2.65039 0.02,4.31574 1.74071,5.58394 6.02676,4.44193 1.32685,-0.35353 2.45255,-0.64279 2.50157,-0.64279 z m 1.00002,-11.78895 c 2.0088,-1.59342 2.72501,-1.77833 4.29293,-1.10838 1.16024,0.49575 3.08496,0.56707 5.01929,0.18598 l 3.13741,-0.61812 -3.48072,-2.1714 c -2.87641,-1.79442 -3.74162,-2.0178 -4.98352,-1.28668 -0.82654,0.4866 -1.86007,0.67657 -2.29673,0.42217 -0.43666,-0.2544 -3.32323,-0.54726 -6.4146,-0.6508 l -5.62068,-0.18825 v 3.66398 c 0,3.66398 0,3.66398 3.96778,3.66398 3.06378,0 4.51711,-0.43574 6.37884,-1.91248 z m -1.48146,-9.08499 c 3.74029,-2.03944 4.1345,-2.12176 5.89854,-1.2318 1.14266,0.57649 2.8461,0.67535 4.8555,0.28178 l 3.09531,-0.60625 -3.4026,-2.10005 c -2.14659,-1.32486 -3.97326,-1.92932 -4.94854,-1.63752 -0.85027,0.25439 -1.98187,0.13787 -2.51467,-0.25895 -0.53281,-0.39682 -3.23539,-0.90546 -6.00575,-1.13032 -4.75245,-0.38573 -5.03764,-0.31632 -5.04803,1.22852 -0.006,0.90054 -0.22874,2.40317 -0.49486,3.33917 -0.80989,2.84859 4.71701,4.21363 8.5651,2.11542 z m 3.09664,-10.82522 c 2.21648,-1.19917 2.5459,-1.20789 3.89345,-0.1031 0.97516,0.7995 2.44129,1.09104 4.34319,0.86366 l 2.87109,-0.34325 -2.54872,-2.40264 c -1.56461,-1.47492 -3.45116,-2.44733 -4.8859,-2.51839 -1.28545,-0.0637 -3.78784,-0.47572 -5.56087,-0.91566 -8.06392,-2.00089 -7.42686,-2.11713 -8.0702,1.47252 -0.47741,2.6638 -0.32008,3.4275 0.87596,4.25193 2.02424,1.39533 6.19824,1.25512 9.082,-0.30507 z m 12.25784,-9.13626 c -1.97396,-3.19784 -4.05834,-4.85466 -5.54709,-4.40923 -0.88953,0.26615 -1.94324,-0.0251 -2.53898,-0.70179 -0.56012,-0.63621 -1.89866,-1.15674 -2.97454,-1.15674 -1.07588,0 -3.03815,-0.52746 -4.3606,-1.17213 -2.40445,-1.17212 -2.40445,-1.17212 -3.63676,1.60815 -1.57406,3.55134 -1.13727,4.51188 2.57722,5.66751 2.60958,0.81187 3.3823,0.75252 5.73181,-0.44025 2.6733,-1.35714 2.74297,-1.35282 4.47262,0.27769 1.09829,1.03533 2.75805,1.65631 4.42702,1.65631 2.31821,0 2.56186,-0.17517 1.8493,-1.32952 z m 1.52711,-11.14856 c -1.63049,-2.14028 -2.98214,-3.2089 -3.72084,-2.94168 -0.63807,0.23082 -2.31895,-0.0986 -3.73527,-0.73216 -3.13304,-1.40136 -8.65656,-3.07823 -8.96321,-2.72111 -0.12264,0.14282 -0.65099,1.45291 -1.17412,2.9113 -0.81871,2.28244 -0.75977,2.78353 0.42334,3.59905 2.06131,1.42087 6.70815,2.05653 7.7632,1.06195 1.26059,-1.18834 3.60057,-1.06848 4.37263,0.22398 0.35446,0.5934 1.91381,1.22244 3.46521,1.39787 1.55141,0.17543 3.11527,0.37368 3.47525,0.44055 0.35999,0.0669 -0.4978,-1.39102 -1.90619,-3.23975 z m -2.77819,-6.04149 c -0.71468,-0.49264 -2.87962,-0.70987 -5.05727,-0.50745 -3.00207,0.27905 -3.29612,0.4128 -1.38986,0.63219 1.32977,0.15304 2.70844,0.54306 3.0637,0.8667 0.35527,0.32364 1.54304,0.42678 2.6395,0.22919 1.70775,-0.30775 1.81441,-0.48275 0.74393,-1.22063 z m 5.64181,-3.82372 c -1.81996,-2.92753 -2.38818,-3.35263 -3.63834,-2.72191 -1.03607,0.5227 -2.16578,0.43111 -3.75718,-0.30461 -1.25161,-0.57864 -3.54498,-1.4355 -5.09639,-1.90415 -2.39874,-0.72461 -2.97144,-0.65868 -3.82813,0.44075 -0.55407,0.71107 -1.0074,2.24336 -1.0074,3.40511 0,1.7404 0.45592,2.22362 2.58979,2.74487 1.51528,0.37014 3.85277,0.31483 5.63384,-0.13331 2.52169,-0.6345 3.21822,-0.55108 4.05907,0.48617 0.81813,1.00923 5.80699,2.15634 6.92902,1.59322 0.14989,-0.0752 -0.69803,-1.69799 -1.88428,-3.60614 z m 4.43248,-6.9959 c 0,-1.34618 -4.61668,-5.21585 -5.9368,-4.97619 -0.81825,0.14855 -1.8844,-0.10386 -2.36922,-0.56089 -0.48483,-0.45704 -1.62497,-0.83308 -2.53365,-0.83566 -0.90868,-0.003 -2.6638,-0.50212 -3.90027,-1.11011 -2.12236,-1.04359 -2.28814,-1.00621 -2.96342,0.6681 -1.41436,3.50682 -1.27088,4.52383 0.77897,5.52151 2.55898,1.24546 5.19888,1.26463 7.34931,0.0534 1.42323,-0.80166 1.82908,-0.74246 2.60419,0.37987 0.60535,0.8765 1.94941,1.32952 3.94455,1.32952 1.66449,0 3.02634,-0.21128 3.02634,-0.4695 z m -6.24591,-10.70382 c 1.34176,-0.23918 2.21629,-0.0613 2.21629,0.45089 0,0.48046 1.39279,0.84596 3.22369,0.84596 1.77303,0 3.20896,-0.25641 3.19094,-0.5698 -0.076,-1.32237 -4.65694,-5.58539 -5.16658,-4.80804 -0.38692,0.59017 -1.00057,0.59119 -2.16526,0.004 -0.89392,-0.45099 -3.37207,-1.24712 -5.507,-1.76917 -3.88169,-0.94918 -3.88169,-0.94918 -4.82902,2.03149 -0.52103,1.63937 -0.81824,3.10236 -0.66047,3.25108 0.95827,0.90335 4.50346,1.73701 5.86928,1.38018 0.88651,-0.23162 2.60918,-0.5989 3.82813,-0.81618 z m 1.00741,-9.33935 c 0.66442,-1.01343 3.41705,-0.97261 3.7808,0.0561 0.16133,0.45626 1.6894,0.70738 3.46715,0.5698 l 3.17868,-0.246 -2.41813,-2.54318 c -2.00534,-2.10904 -3.10162,-2.59308 -6.4222,-2.83556 -2.20224,-0.16082 -4.95912,-0.48778 -6.12639,-0.72658 -1.83461,-0.37534 -2.24432,-0.1043 -3.02221,1.99927 -1.15036,3.11076 -1.20213,2.9009 0.91343,3.70251 2.47127,0.93639 6.04214,0.94911 6.64887,0.0237 z m 1.39199,-9.652821 c 1.23072,-1.04995 1.80996,-1.12445 3.05295,-0.39269 1.518,0.89367 6.43502,0.47836 6.43502,-0.54352 0,-0.28744 -1.07489,-1.4934 -2.38863,-2.67991 -1.8123,-1.63677 -2.64525,-1.95651 -3.45221,-1.32519 -0.67803,0.53047 -1.49198,0.57667 -2.24542,0.12746 -0.65002,-0.38755 -2.90452,-0.70987 -5.00999,-0.71627 -3.82813,-0.0116 -3.82813,-0.0116 -3.82813,2.96397 0,1.66963 0.44214,3.14379 1.0074,3.3588 2.11535,0.804641 4.96914,0.45278 6.42901,-0.79265 z m -0.96687,-9.15047 c 1.2052,-0.80413 3.4829,-1.3333 5.76376,-1.33908 4.89953,-0.0124 5.58054,-0.78345 2.64477,-2.99441 -2.1335,-1.60677 -2.98264,-1.7583 -8.01645,-1.43049 -5.74306,0.37399 -6.82749,0.96181 -6.84928,3.71271 -0.0263,3.31662 3.08121,4.30378 6.4572,2.05127 z m 0.35494,-10.26215 c 0.77462,-1.04253 1.68596,-1.3897 2.87719,-1.09604 1.68427,0.4152 5.62125,-0.76511 5.60088,-1.67915 -0.0218,-0.97929 -5.86522,-3.97983 -6.3422,-3.25667 -0.27399,0.4154 -2.58349,1.00031 -5.13222,1.29979 -2.54873,0.29949 -4.63406,0.80427 -4.63406,1.12174 0,2.38667 1.21678,5.29367 2.30877,5.51588 2.13358,0.43418 4.10867,-0.27306 5.32164,-1.90555 z m -2.3178,-9.30087 c 0.77567,-1.11596 2.08573,-1.89932 3.17636,-1.89932 2.30667,0 4.4058,-0.72691 4.4058,-1.52569 0,-0.33188 -1.24152,-1.29393 -2.75893,-2.13791 -2.34213,-1.30268 -2.82828,-1.36413 -3.218,-0.40676 -0.25249,0.62027 -0.8032,0.92726 -1.22381,0.68221 -0.4206,-0.24505 -2.23649,-0.0125 -4.0353,0.51669 -2.25353,0.66301 -3.27057,1.39275 -3.27057,2.34666 0,4.29275 4.52465,5.87675 6.92445,2.42412 z m -2.08892,-9.11674 c 0.55181,-0.62678 1.77488,-1.14483 2.71793,-1.15123 0.94306,-0.006 2.19246,-0.29724 2.77644,-0.64632 1.9027,-1.13734 -3.1915,-2.59102 -5.80161,-1.65554 -1.2185,0.43672 -3.09851,0.79404 -4.1778,0.79404 -2.20078,0 -2.31568,0.23724 -1.12806,2.32913 0.99208,1.74747 4.19916,1.93597 5.6131,0.32992 z m -2.93719,-7.26679 c 1.16364,-0.86286 2.479,-1.35717 2.92303,-1.09848 0.44403,0.25869 1.37196,0.17248 2.06207,-0.19159 2.10288,-1.10938 -1.84769,-2.20834 -6.68196,-1.85878 -3.32131,0.24016 -4.2311,0.58423 -4.2311,1.60014 0,1.48972 1.50026,3.11753 2.87323,3.11753 0.51646,0 1.89108,-0.70597 3.05473,-1.56882 z m -1.23511,-6.95757 c 0.54208,-0.51101 2.33727,-0.83021 3.98932,-0.70933 2.7904,0.20417 2.88925,0.14322 1.39187,-0.85826 -0.88652,-0.59292 -3.69717,-1.30234 -6.2459,-1.57649 -4.63406,-0.49846 -4.63406,-0.49846 -4.63406,1.78736 0,1.99704 0.28509,2.28583 2.25658,2.28583 1.24112,0 2.70011,-0.4181 3.24219,-0.92911 z m 5.58048,-7.62404 c -0.30571,-0.86455 -1.62268,-1.24421 -6.44519,-1.858 -2.59324,-0.33006 -3.02222,-0.17563 -3.02222,1.08798 0,0.80995 0.15033,1.61508 0.33406,1.78919 0.75534,0.71576 9.40551,-0.2495 9.13335,-1.01917 z m 1.24794,-6.37432 c -0.19138,-0.47986 -2.01243,-1.26757 -4.04679,-1.75047 -2.9547,-0.70135 -3.83294,-0.67867 -4.36543,0.11275 -1.48335,2.20466 -0.68664,2.72121 4.03446,2.61576 3.18509,-0.0711 4.61229,-0.38999 4.37776,-0.97804 z"
       id="path2"
       sodipodi:nodetypes="csssssssssscsssscssscsscsssscscssscscsscsccsscsssscsssssssssssssssscssscsssssssssssccssssssscssssssssssssssssssssscsscscsssssssccssssssssssssccsssccssssssssssssscsssssssssssscsssssssssssscsssssscsssscsssssscsssscssssscscssssssssssssssssscsssssssssssssssssssssssssssscsssssssscsscscsscscccsscsssssccsssssscssssssscssscssssssssssscssscsssssssssssssssssssssscsssscs" /></g></svg>
