<?xml version="1.0" encoding="UTF-8" standalone="no"?>
<!-- Created with Inkscape (http://www.inkscape.org/) -->

<svg
   width="297mm"
   height="210mm"
   viewBox="0 0 297 210"
   version="1.1"
   id="svg1"
   xml:space="preserve"
   inkscape:version="1.4 (86a8ad7, 2024-10-11)"
   sodipodi:docname="pychde.svg"
   inkscape:export-filename="pychde.png"
   inkscape:export-xdpi="96"
   inkscape:export-ydpi="96"
   xmlns:inkscape="http://www.inkscape.org/namespaces/inkscape"
   xmlns:sodipodi="http://sodipodi.sourceforge.net/DTD/sodipodi-0.dtd"
   xmlns="http://www.w3.org/2000/svg"
   xmlns:svg="http://www.w3.org/2000/svg"><sodipodi:namedview
     id="namedview1"
     pagecolor="#ffffff"
     bordercolor="#000000"
     borderopacity="0.25"
     inkscape:showpageshadow="2"
     inkscape:pageopacity="0.0"
     inkscape:pagecheckerboard="0"
     inkscape:deskcolor="#d1d1d1"
     inkscape:document-units="mm"
     inkscape:zoom="0.37905794"
     inkscape:cx="800.66915"
     inkscape:cy="320.53147"
     inkscape:window-width="1920"
     inkscape:window-height="1111"
     inkscape:window-x="-9"
     inkscape:window-y="-9"
     inkscape:window-maximized="1"
     inkscape:current-layer="layer1" /><defs
     id="defs1" /><g
     inkscape:label="Layer 1"
     inkscape:groupmode="layer"
     id="layer1"><g
       id="g2"
       transform="matrix(0.26458333,0,0,0.26458333,81.073332,19.250603)"><path
         fill="#0038a8"
         d="M 0,341 H 512 V 512 H 0 Z"
         id="path1-1" /><path
         fill="#ffffff"
         d="M 0,170.7 H 512 V 341.3 H 0 Z"
         id="path2-5" /><path
         fill="#d52b1e"
         d="M 0,0 H 512 V 170.7 H 0 Z"
         id="path3-2" /><g
         fill="none"
         stroke="#000000"
         transform="matrix(1.55152,0,0,1.55152,-209,0)"
         id="g5"><circle
           cx="300"
           cy="165"
           r="42.200001"
           stroke-width="1.1"
           id="circle3" /><circle
           cx="300"
           cy="165"
           r="34.700001"
           stroke-width="0.5"
           id="circle4" /><circle
           cx="300"
           cy="165"
           r="26.6"
           stroke-width="0.4"
           id="circle5" /></g><path
         d="m 221.6,281.3 -7.6,4.5 -2.3,-4 a 6.6,6.6 0 0 1 -0.8,-1.7 2,2 0 0 1 0.2,-1.3 c 0.2,-0.5 0.5,-0.8 1,-1.1 a 2.4,2.4 0 0 1 2.4,-0.1 l 0.8,0.6 a 2.7,2.7 0 0 1 0,-0.7 l 0.1,-0.6 0.3,-0.7 1.5,-2.4 1.6,2.6 -1.6,2.7 a 2,2 0 0 0 -0.3,0.8 1.1,1.1 0 0 0 0.1,0.6 l 0.2,0.2 3,-1.8 z m -5.9,0.3 -0.6,-1 a 5,5 0 0 0 -0.4,-0.6 0.7,0.7 0 0 0 -0.5,-0.2 0.8,0.8 0 0 0 -0.5,0.1 c -0.3,0.2 -0.4,0.3 -0.5,0.6 l 0.4,1 0.6,1 z m -7.1,-5.9 -2.3,-7 1.8,-0.5 1.4,4.3 1.3,-0.4 -1.3,-4 1.7,-0.6 1.3,4 1.7,-0.5 -1.5,-4.5 2,-0.6 2.3,7 z m -3,-10.3 -0.6,-4.5 c 0,-1 0,-1.8 0.5,-2.3 0.4,-0.5 1,-0.9 1.9,-1 0.9,0 1.6,0.1 2.2,0.6 0.5,0.5 0.9,1.3 1,2.4 l 0.2,1.4 3.2,-0.3 0.3,2.7 z m 3.4,-3.1 -0.1,-0.7 c 0,-0.5 -0.2,-0.9 -0.4,-1 a 0.9,0.9 0 0 0 -0.7,-0.3 1,1 0 0 0 -0.7,0.3 c -0.2,0.2 -0.2,0.6 -0.2,1.1 l 0.1,0.8 z m -3.7,-13.5 0.3,-2.7 5.2,0.6 c 0.5,0 1,0.2 1.4,0.4 0.5,0.2 0.9,0.5 1.2,0.9 l 0.6,1.2 a 4,4 0 0 1 0,1.9 c 0,0.4 0,0.9 -0.2,1.4 0,0.5 -0.2,0.9 -0.5,1.2 l -0.8,0.8 a 2.8,2.8 0 0 1 -1.1,0.5 c -0.6,0.1 -1,0.2 -1.5,0.1 l -5.2,-0.6 0.3,-2.7 5.3,0.6 c 0.5,0 0.9,0 1.2,-0.3 0.3,-0.2 0.4,-0.6 0.5,-1 a 1.5,1.5 0 0 0 -0.3,-1.2 c -0.2,-0.3 -0.6,-0.4 -1,-0.5 z m 1.1,-6.4 1.7,-4.9 c 0.3,-0.8 0.7,-1.3 1.3,-1.6 a 2,2 0 0 1 1.7,-0.1 2,2 0 0 1 1.3,2 c 0.4,-0.6 0.8,-1 1.2,-1 a 2,2 0 0 1 1.5,0 2.4,2.4 0 0 1 1.6,1.8 v 1 l -0.4,1.2 -1.5,4.5 z m 4.2,-1.5 0.4,-1.1 c 0.2,-0.4 0.2,-0.7 0.1,-1 0,-0.1 -0.2,-0.3 -0.5,-0.4 a 0.8,0.8 0 0 0 -0.7,0 l -0.5,0.8 -0.4,1.2 z m 3.3,1.2 0.5,-1.4 v -1 a 0.8,0.8 0 0 0 -0.5,-0.5 0.8,0.8 0 0 0 -0.7,0 c -0.2,0.2 -0.4,0.5 -0.5,1 l -0.5,1.3 z m -3.3,-10.3 1.4,-2.4 5.7,3.4 2.2,-3.6 1.9,1.1 -3.6,6 z m 5.4,-8.1 1.7,-2.1 6.8,5.6 -1.8,2.1 z m 11.8,-4.6 2.3,-1 c 0.3,0.6 0.5,1.2 0.5,1.8 a 3.3,3.3 0 0 1 -0.3,1.6 5,5 0 0 1 -1.2,1.5 5.7,5.7 0 0 1 -2,1.2 c -0.7,0.2 -1.4,0.2 -2.2,0 a 5,5 0 0 1 -2.3,-1.7 c -1,-1 -1.4,-2.2 -1.3,-3.3 0,-1.1 0.6,-2.1 1.7,-3 a 4.5,4.5 0 0 1 2.4,-1.2 4,4 0 0 1 2.5,0.6 l -1.5,2 a 2,2 0 0 0 -0.6,-0.3 1.6,1.6 0 0 0 -0.7,0 1.6,1.6 0 0 0 -0.7,0.4 c -0.5,0.4 -0.7,0.9 -0.6,1.5 0,0.4 0.3,1 0.9,1.5 0.6,0.8 1.2,1.2 1.6,1.3 0.5,0 0.9,0 1.3,-0.4 0.4,-0.4 0.6,-0.7 0.6,-1.1 0,-0.4 -0.1,-0.9 -0.4,-1.4 m 9.4,-3.4 -2.7,1.5 0.3,1.5 -2.5,1.3 -1.2,-9.4 2.6,-1.4 7.1,6.3 -2.5,1.3 z m -1.4,-1.4 -2.3,-2.3 0.6,3.2 z m 8.4,-9 4,-0.7 a 4.8,4.8 0 0 1 2,0 c 0.5,0.1 0.9,0.3 1.3,0.7 0.4,0.3 0.7,0.7 1,1.2 l 0.4,1.7 c 0.2,1 0.2,1.7 0,2.2 a 3.6,3.6 0 0 1 -0.6,1.5 2.9,2.9 0 0 1 -1,0.9 l -1.6,0.5 -4,0.7 z m 3,1.5 0.8,4.7 h 0.7 c 0.5,-0.2 1,-0.3 1.1,-0.5 0.3,-0.1 0.4,-0.4 0.5,-0.7 v -1.6 c -0.2,-0.9 -0.5,-1.5 -0.8,-1.8 -0.4,-0.3 -1,-0.4 -1.6,-0.2 z m 8.3,-3 7.3,0.2 v 2 l -4.6,-0.2 -0.1,1.4 4.2,0.1 v 1.8 L 258,209 v 1.7 l 4.7,0.2 -0.1,2 -7.5,-0.3 z m 10.6,0.8 2.7,0.6 -1.6,6.5 4.1,1 -0.5,2.1 -6.8,-1.6 z m 14.2,4.7 3.9,2.3 c 0.9,0.5 1.4,1 1.6,1.7 0.1,0.7 0,1.4 -0.4,2.1 a 2.7,2.7 0 0 1 -1.8,1.4 c -0.7,0.2 -1.5,0 -2.5,-0.6 l -1.3,-0.7 -1.6,2.8 -2.4,-1.4 z m 0.5,4.6 0.5,0.4 1.1,0.3 a 0.9,0.9 0 0 0 0.6,-0.4 1,1 0 0 0 0.2,-0.8 c -0.1,-0.3 -0.3,-0.5 -0.8,-0.8 l -0.6,-0.4 z m 7.6,10.3 -2.3,-2.1 -1.3,0.8 -2,-2 8.4,-4.1 2.2,2 -3.6,8.7 -2,-2 z m 0.9,-1.8 1.4,-3 -2.8,1.7 z m 1,5.9 7.3,-5 2.6,3.7 1,1.8 -0.1,1.3 c -0.2,0.4 -0.5,0.8 -1,1.1 a 2,2 0 0 1 -1.2,0.5 2.5,2.5 0 0 1 -1.2,-0.2 3.3,3.3 0 0 1 -0.8,-0.6 v 1.4 l -0.3,0.6 -1.4,2.5 -1.7,-2.5 1.4,-2.7 0.3,-0.8 c 0,-0.2 0,-0.5 -0.2,-0.7 l -0.2,-0.2 -3,2 z m 6,-0.7 0.6,1 0.5,0.4 a 0.7,0.7 0 0 0 0.5,0.3 c 0.1,0 0.3,0 0.5,-0.2 a 0.8,0.8 0 0 0 0.4,-0.6 l -0.4,-1 -0.7,-1 z m 2.7,13.2 -1.2,-2.9 -1.5,0.1 -1,-2.5 9.4,-0.2 1,2.7 -6.9,6.4 -1,-2.7 z m 1.5,-1.2 2.6,-2.1 -3.3,0.2 z m 2.3,9.6 1.8,-0.3 0.7,4.2 -3.8,0.6 a 8.6,8.6 0 0 1 -1.4,-2 7.4,7.4 0 0 1 -0.5,-4.8 c 0.3,-0.7 0.7,-1.2 1.4,-1.7 a 5.3,5.3 0 0 1 2.3,-0.9 5,5 0 0 1 2.6,0.2 3.9,3.9 0 0 1 1.9,1.5 c 0.3,0.6 0.6,1.3 0.7,2.3 a 7,7 0 0 1 0,2.2 2.8,2.8 0 0 1 -0.5,1.3 l -1.3,1 -0.9,-2.6 c 0.3,-0.1 0.5,-0.3 0.7,-0.6 0.1,-0.3 0.2,-0.7 0.1,-1 a 1.8,1.8 0 0 0 -0.8,-1.4 c -0.5,-0.3 -1.2,-0.3 -2,-0.2 -1,0.1 -1.7,0.4 -2,0.8 a 1.9,1.9 0 0 0 -0.4,1.6 l 0.3,0.9 0.6,0.8 h 0.8 z m 5.8,12.8 -0.3,2.7 -5.2,-0.4 a 4.4,4.4 0 0 1 -1.4,-0.4 3.2,3.2 0 0 1 -1.2,-0.9 3,3 0 0 1 -0.6,-1.1 5.5,5.5 0 0 1 -0.1,-2 c 0,-0.4 0,-0.9 0.2,-1.4 l 0.4,-1.2 a 3.2,3.2 0 0 1 0.9,-0.9 2.8,2.8 0 0 1 1,-0.5 5.3,5.3 0 0 1 1.6,0 l 5.2,0.4 -0.2,2.7 -5.4,-0.5 c -0.5,0 -0.9,0 -1.2,0.3 -0.3,0.3 -0.4,0.6 -0.5,1.1 0,0.5 0,0.8 0.3,1.1 0.3,0.3 0.6,0.5 1.1,0.5 z m -9.8,9.4 1,-3 -1.2,-0.9 0.8,-2.6 7.4,5.9 -1,2.8 -9.4,0.4 1,-2.7 z m 2,0 h 3.3 l -2.7,-1.8 z m 3.2,7.2 -1.6,2.6 H 299 l 1.6,3 -1.6,2.6 -2.6,-5.6 -3.2,-1.8 1.4,-2.4 3.2,1.9 z"
         id="path5" /><g
         fill="#009b3a"
         stroke="#000000"
         stroke-width="0.1"
         id="g147"><path
           d="m 265.2,225.4 c 0,0 24.9,10.8 20.5,33 -4.3,22.1 -18.2,22 -23.6,24.4 -5.5,2.5 -9.2,6 -11.4,5.5 -2.1,-0.5 -5,-2.2 -5,-2.2 0,0 -0.2,3.7 4.2,4.3 4.4,0.7 10,-5.7 12.9,-6.4 2.9,-0.7 19.6,-2.6 23.8,-25.1 4.8,-24.1 -21.3,-32.8 -21.4,-33.5 z"
           id="path6" /><path
           d="m 277.7,230.2 a 3.4,0.8 75.1 0 1 -1.6,0 3.4,0.8 75.1 1 1 1.6,0 z m -0.8,0.2 a 3.5,0.8 63.3 1 1 -1.5,0.5 3.5,0.8 63.3 0 1 1.5,-0.5 z m -2.5,1.6 a 3.4770097,0.84291145 17 0 1 -0.2,1.7 3.4770097,0.84291145 17 0 1 0.2,-1.7 z"
           id="path7" /><path
           d="m 274.8,231.1 a 3.5171378,0.80391721 34.2 1 1 -0.8,1.4 3.5,0.8 34.2 1 1 0.7,-1.4 z"
           id="path8" /><path
           d="m 275.8,230.7 a 3.6,0.8 46.2 1 1 -1,1 3.6,0.8 46.2 0 1 1,-1 z"
           id="path9" /><path
           d="m 277.5,233.8 -1.1,0.6 c -0.3,0.1 -0.6,-0.3 -1.2,0 -0.6,0.4 -1,1 -1.2,1.3 -0.1,0.4 0.2,0.5 1,0.2 0.7,-0.4 1,-1 1.3,-1.2 0.3,-0.3 1,-0.6 1.3,-0.7 l 1,-1.5 c 0.2,-0.4 1.2,-1 1.6,-1.9 0.3,-0.6 0.2,-1.2 -0.3,-1 a 4,4 0 0 0 -1.2,1.4 c -0.3,0.5 0,1 -0.3,1.5 z m 7.8,2.6 a 1.1933241,5.532688 -1.6 1 1 -2.4,-0.6 1.1933241,5.532688 -1.6 1 1 2.4,0.6 z"
           id="path10" /><path
           d="m 284,236.3 a 5.4653782,1.1343228 77.5 1 1 -2.3,0.1 5.4152907,1.1239283 77.5 1 1 2.3,0 z"
           id="path11" /><path
           d="m 280,237.6 a 5,1.2 35 1 1 -0.8,2.3 5.0645769,1.2154985 35 1 1 0.8,-2.4 z"
           id="path12" /><path
           d="m 280.8,236.4 a 5.3904854,1.11878 50.9 0 1 -1.5,1.7 5.3904854,1.11878 50.9 1 1 1.5,-1.7 z"
           id="path13" /><path
           d="m 282.4,236.3 a 5.7969797,1.0735148 61.8 1 1 -1.9,1 5.7969797,1.0735148 61.8 1 1 1.9,-1 z"
           id="path14" /><path
           d="m 283.8,241.5 -1.9,0.4 c -0.3,0 -0.6,-0.7 -1.6,-0.5 -1,0.2 -1.8,0.9 -2,1.3 -0.4,0.4 0,0.8 1.2,0.6 1.2,-0.2 1.6,-1 2.2,-1.1 l 2.1,-0.4 1.8,-1.7 c 0.5,-0.5 2,-1 2.8,-2 0.7,-0.8 0.7,-1.6 0,-1.5 a 5,5 0 0 0 -2.1,1.4 c -0.5,0.6 -0.4,1.5 -1,2 z m 5.5,5.2 a 1.1650399,5.5074612 8.7 1 1 -2.2,-1 1.1650399,5.5074612 8.7 1 1 2.2,1 z"
           id="path15" /><path
           d="m 288,246.4 a 1.1,5.4 -2 1 1 -2.1,-0.3 1.1,5.4 -2 1 1 2.2,0.3 z"
           id="path16" /><path
           d="m 284,246.8 a 5,1.2 46 1 1 -1.2,2.2 5,1.2 46 1 1 1.1,-2.2 z"
           id="path17" /><path
           d="m 285,245.9 a 5.5209448,1.1246362 61.8 1 1 -1.8,1.4 5.4,1.1 61.8 1 1 1.7,-1.4 z"
           id="path18" /><path
           d="m 286.5,246 a 5.9075483,1.0740997 72.5 1 1 -2,0.8 5.9075483,1.0740997 72.5 1 1 2,-0.8 z"
           id="path19" /><path
           d="m 287,251.5 h -2 c -0.3,0 -0.4,-0.8 -1.4,-0.8 -1,0 -2,0.5 -2.3,0.9 -0.4,0.3 0,0.8 1.1,0.8 1.2,0 1.8,-0.6 2.4,-0.7 h 2.1 l 2,-1.3 c 0.6,-0.4 2.3,-0.6 3.2,-1.4 0.8,-0.6 1,-1.5 0.3,-1.4 a 5,5 0 0 0 -2.4,1 c -0.6,0.4 -0.6,1.3 -1.3,1.7 l -1.8,1.2 m 2.7,6.7 a 1.1535592,5.4531888 31.3 0 1 -1.6,-1.8 1.1535592,5.4531888 31.3 0 1 1.6,1.8"
           id="path20" /><path
           d="m 288.6,257.4 a 1.101167,5.9463016 20.6 0 1 -1.9,-1.2 1.101167,5.9463016 20.6 0 1 1.9,1.2 m -3.9,-1.3 a 5.0720299,1.2172872 70 0 1 -2,1.6 5.0720299,1.2172872 70 0 1 2,-1.6"
           id="path21" /><path
           d="m 286,255.7 a 1.1222237,6.1722338 -4.9 0 1 -2.2,0.6 1.1222237,6.1722338 -4.9 1 1 2.2,-0.6"
           id="path22" /><path
           d="m 287.4,256.5 a 1.1045209,6.0748684 5.5 1 1 -2.2,-0.2 1.1045209,6.0748684 5.5 1 1 2.2,0.2"
           id="path23" /><path
           d="m 285.6,261.7 -1.7,-0.8 c -0.3,-0.2 -0.1,-0.9 -1,-1.3 -1,-0.4 -2,-0.4 -2.4,-0.2 -0.5,0.2 -0.4,0.7 0.7,1.3 1,0.5 1.8,0.1 2.4,0.4 l 2,0.8 2.2,-0.4 c 0.7,0 2.3,0.4 3.4,0 1,-0.2 1.5,-1 0.9,-1.2 a 4.8,4.8 0 0 0 -2.6,-0.1 c -0.7,0.2 -1.1,1 -1.8,1.2 -0.5,0 -2,0.4 -2.1,0.3 m 1,8.2 a 1.3742166,6.2368345 48.5 1 1 -1.2,-2.6 1.3417436,6.0894517 48.5 1 1 1.1,2.6"
           id="path24" /><path
           d="m 285.6,268.7 a 1.3,6.2 37.5 1 1 -1.6,-2 1.3,6.2 37.5 1 1 1.6,2"
           id="path25" /><path
           d="m 281.8,265.8 a 1.3312091,6.144042 -3.5 1 1 -2.6,1 1.3312091,6.144042 -3.5 1 1 2.6,-1"
           id="path26" /><path
           d="m 283.3,265.8 a 1.3,6.3 11.6 0 1 -2.5,-0.2 1.3,6.3 11.6 1 1 2.5,0.2"
           id="path27" /><path
           d="m 284.6,267.1 a 1.2348124,6.5856659 22.1 1 1 -2.3,-0.9 1.2536332,6.6860437 22.1 1 1 2.3,1"
           id="path28" /><path
           d="m 281,272.3 -1.7,-1.5 c -0.2,-0.3 0.2,-1 -0.7,-1.8 a 3.9,3.9 0 0 0 -2.6,-1 c -0.6,0 -0.6,0.6 0.4,1.6 1,1 2,0.8 2.5,1.3 a 10,10 0 0 1 1.9,1.6 l 2.7,0.4 c 0.7,0.1 2.3,1.3 3.7,1.3 1.2,0 2,-0.6 1.3,-1.1 a 5.6,5.6 0 0 0 -2.7,-1 c -0.9,0 -1.6,0.7 -2.5,0.6 l -2.4,-0.4 m -2.4,7.8 a 1.5,6.5 79.8 1 1 0.3,-3 1.5,6.5 79.8 1 1 -0.3,3"
           id="path29" /><path
           d="m 278.4,278.4 a 1.4,6.8 68.5 0 1 -0.5,-2.8 1.4,6.8 68.5 0 1 0.5,2.8"
           id="path30" /><path
           d="m 276.1,273.5 a 1.5,6.5 26.2 0 1 -3,-0.6 1.5,6.5 26.2 1 1 3,0.6"
           id="path31" /><path
           d="m 277.7,274.4 a 1.4283938,7.0399444 41.8 0 1 -2.4,-1.6 1.4283938,7.0399444 41.8 0 1 2.4,1.6"
           id="path32" /><path
           d="m 278.1,276.4 a 1.4,7 52.7 1 1 -1.7,-2.2 1.4204447,7.1022233 52.7 0 1 1.8,2.2"
           id="path33" /><path
           d="m 271.8,279.2 -0.7,-2.3 c -0.1,-0.5 0.7,-1 0.3,-2.2 a 4.5,4.5 0 0 0 -2,-2.5 c -0.5,-0.3 -1,0.3 -0.5,1.8 0.4,1.5 1.5,2 1.8,2.7 l 0.8,2.6 c 0.6,0.3 1.7,1.4 2.4,2 0.7,0.5 1.6,2.5 3,3.3 1,0.7 2,0.6 1.8,-0.3 a 6.5,6.5 0 0 0 -2.1,-2.5 c -0.8,-0.6 -2,-0.3 -2.7,-0.9 -0.5,-0.4 -2.1,-1.6 -2,-1.7"
           id="path34" /><path
           d="m 268,285.9 a 1.9,6.5 89 0 1 0,-3.8 1.9,6.5 89 0 1 0,3.8"
           id="path35" /><path
           d="m 267.1,280 a 1.841557,6.9569966 37.6 0 1 -2.8,-2.4 1.841557,6.9569966 37.6 1 1 2.8,2.4"
           id="path36" /><path
           d="m 268,283 a 1.9,6.6 66.5 0 1 -1.3,-3.5 1.9,6.6 66.5 0 1 1.3,3.5 m 1.8,-57 a 4,0.8 41.1 0 1 -1.5,0.8 4,0.8 41.1 1 1 1.5,-0.8 m -2,1.7 a 4.2107129,0.82160252 8.2 0 1 0.3,1.7 4.2107129,0.82160252 8.2 1 1 -0.3,-1.7"
           id="path37" /><path
           d="m 268.6,226.6 a 4.3279391,0.80519797 26.8 1 1 -0.8,1.4 4.3279391,0.80519797 26.8 0 1 0.8,-1.4 m -29.5,52.9 c 0,0 5.5,1.2 10.3,2.9 4.7,1.7 12,7.7 14,8 2.1,0.1 5.1,-0.6 6.3,-3.8 -3.4,1 -5.4,2.3 -8.6,0.5 -1.1,-0.4 -4.8,-3.8 -9,-5.6 a 103,103 0 0 0 -12.2,-3.9 l -0.8,1.9 m 5.9,-49.6 6.3,-3.4 -7,1.8 -0.8,1.2 1.5,0.4"
           id="path38" /><path
           d="m 251,231.4 c -2.5,-0.4 -6.3,-1.3 -8.7,-1.5 1.7,-1.8 4,-4.9 5.4,-6.8 -1,1.8 -2.4,4.2 -3,6 1.7,0.9 4.4,1.6 6.3,2.3"
           id="path39" /><path
           d="m 243.8,230.3 5.6,-4.4 -6.5,3 -0.6,1.3 h 1.5"
           id="path40" /><path
           d="m 249.8,231.3 c -2.5,-0.4 -6.2,-1.3 -8.6,-1.5 1.6,-1.9 3.8,-5 5.2,-7 -1,1.8 -2.3,4.3 -2.9,6.1 1.7,1 4.4,1.7 6.3,2.4"
           id="path41" /><path
           d="m 242.9,230.6 6.6,-2.7 -7.1,1.1 -1,1.2 1.5,0.4"
           id="path42" /><path
           d="m 249,231.4 c -2.4,-0.2 -6.3,-0.7 -8.7,-0.6 1.4,-2.1 3.2,-5.6 4.4,-7.7 -0.7,2 -1.8,4.6 -2.1,6.5 1.8,0.8 4.5,1.3 6.5,1.8"
           id="path43" /><path
           d="m 242.2,230.7 4.5,-5.5 -5.7,4.2 -0.2,1.5 1.4,-0.3"
           id="path44" /><path
           d="m 249,231.8 c -2.6,0 -6.8,-0.3 -9.3,0 1.3,-2.5 2.8,-6.4 3.8,-8.8 -0.5,2.2 -1.4,5.2 -1.6,7.3 2,0.7 5,1 7.1,1.5"
           id="path45" /><path
           d="m 241.3,232 a 321.4,321.4 0 0 1 5.4,-5.3 l -6.5,3.7 -0.5,1.5 h 1.6"
           id="path46" /><path
           d="m 247.8,232 c -2.8,0 -7.2,-0.2 -10,0.1 1.8,-2.7 4.4,-7 6,-9.7 -1,2.4 -2.7,5.8 -3.3,8 2,0.8 5.1,1 7.3,1.5"
           id="path47" /><path
           d="m 239.5,232.3 7,-5.9 -8,4.2 -0.7,1.7 h 1.7"
           id="path48" /><path
           d="m 246.8,232.1 c -2.8,0.4 -7.2,0.9 -10,1.6 a 129,129 0 0 0 4.5,-10.3 c -0.6,2.5 -1.7,6 -2,8.3 2.1,0.4 5.2,0.3 7.5,0.4"
           id="path49" /><path
           d="m 238.6,233.5 a 498.6,498.6 0 0 1 5.3,-7.4 l -6.7,6 -0.3,1.9 1.6,-0.5"
           id="path50" /><path
           d="m 245.2,233 c -2.8,0.3 -7.2,0.5 -10,1 1.6,-2.7 3.8,-7.2 5,-10 -0.7,2.5 -2,5.9 -2.4,8.2 2,0.5 5.2,0.5 7.4,0.8"
           id="path51" /><path
           d="m 237.6,234.3 6.8,-6 -7.7,4.2 -0.8,1.8 h 1.7"
           id="path52" /><path
           d="m 244.4,233.3 c -2.9,0.6 -7.3,1.3 -10,2.2 1.3,-2.9 3,-7.6 4,-10.5 -0.5,2.6 -1.4,6 -1.6,8.4 2.1,0.3 5.3,-0.1 7.6,-0.1"
           id="path53" /><path
           d="m 236.5,234.6 4.3,-8.1 -5.9,7 v 1.8 l 1.6,-0.7"
           id="path54" /><path
           d="m 244.4,233.8 c -3,0.7 -7.8,1.8 -10.7,2.9 1.1,-3.3 2.4,-8.6 3.2,-11.9 -0.3,2.9 -1,6.8 -0.8,9.4 2.3,0.2 5.8,-0.3 8.3,-0.4"
           id="path55" /><path
           d="m 235.6,236.4 5.5,-8 -7,6.5 -0.3,2 1.8,-0.5"
           id="path56" /><path
           d="m 243.2,234.7 c -3,1 -7.7,2.2 -10.5,3.4 1,-3.3 2,-8.6 2.6,-11.9 -0.2,2.9 -0.6,6.8 -0.4,9.3 2.4,0.1 5.8,-0.6 8.3,-0.8"
           id="path57" /><path
           d="m 234.5,237.6 4.2,-9 -6,7.8 v 2 l 1.8,-0.8"
           id="path58" /><path
           d="m 242,235.9 c -3,0.7 -7.8,1.6 -10.8,2.6 1.3,-3.2 2.8,-8.5 3.7,-11.7 -0.4,2.9 -1.2,6.7 -1.2,9.3 2.4,0.3 5.8,-0.2 8.3,-0.2"
           id="path59" /><path
           d="m 233.5,238.5 6.8,-7 -8,5.2 -0.7,2 2,-0.2"
           id="path60" /><path
           d="m 240.7,237.1 c -3,0.4 -7.8,0.8 -10.7,1.6 1.4,-3.2 3.2,-8.3 4.3,-11.5 -0.6,2.8 -1.6,6.7 -1.8,9.3 2.3,0.5 5.7,0.4 8.2,0.6"
           id="path61" /><path
           d="m 232.2,237.8 4.6,-8.8 -6.3,7.4 v 2 l 1.7,-0.6"
           id="path62" /><path
           d="m 241,236 c -3.3,1.4 -8.4,3.3 -11.5,5 1,-4 2,-10.2 2.7,-14 -0.1,3.3 -0.6,7.9 -0.3,10.8 2.7,0 6.4,-1.2 9.2,-1.7"
           id="path63" /><path
           d="m 231.5,240.4 5.6,-10 -7.3,8.5 -0.2,2.4 2,-0.9"
           id="path64" /><path
           d="m 239.8,237.3 c -3.3,1.5 -8.4,3.7 -11.4,5.5 0.8,-4 1.6,-10.1 2.1,-14 0,3.3 -0.2,7.9 0.2,10.7 2.7,-0.2 6.3,-1.5 9,-2.2"
           id="path65" /><path
           d="m 230.4,242 4,-10.8 -6,9.6 0.1,2.3 1.9,-1.1"
           id="path66" /><path
           d="m 238.3,238.2 c -3.2,1.6 -8.3,3.8 -11.3,5.6 0.8,-4 1.6,-10.1 2,-14 0.1,3.3 -0.1,7.8 0.3,10.7 2.6,-0.3 6.3,-1.6 9,-2.3"
           id="path67" /><path
           d="m 229.5,243.3 6.2,-9.6 -7.9,7.8 -0.3,2.4 2,-0.6"
           id="path68" /><path
           d="m 238,237.7 c -2.8,2.3 -7.4,5.7 -10,8.3 0,-4 -0.6,-10.2 -0.9,-14 0.8,3.2 1.5,7.6 2.5,10.2 2.5,-0.9 5.9,-3.1 8.5,-4.5"
           id="path69" /><path
           d="m 229.8,243.7 0.7,-11.4 -3,11 0.8,2.2 1.5,-1.8"
           id="path70" /><path
           d="m 237.2,238.8 c -2.9,2.3 -7.5,5.6 -10,8.1 0,-4 -0.6,-10 -0.9,-13.9 0.7,3.2 1.4,7.6 2.4,10.2 2.6,-0.9 6,-3.1 8.5,-4.4"
           id="path71" /><path
           d="m 229,245.6 a 633.9,633.9 0 0 1 3,-11.1 l -5,10.2 0.3,2.3 1.8,-1.4"
           id="path72" /><path
           d="m 236.9,239 c -2.7,2.7 -7.1,6.7 -9.5,9.6 -0.5,-4 -1.7,-10.3 -2.4,-14.1 1,3.1 2.3,7.5 3.6,10.1 2.6,-1.2 5.8,-3.9 8.3,-5.6"
           id="path73" /><path
           d="m 229,247 0.6,-11.8 -2.9,11.5 0.9,2.2 1.5,-1.8"
           id="path74" /><path
           d="m 236,241 c -2.9,2.4 -7.5,6 -10.2,8.7 0,-4.2 -0.8,-10.5 -1.2,-14.5 0.9,3.3 1.7,7.8 2.8,10.5 2.6,-1 6,-3.3 8.6,-4.7"
           id="path75" /><path
           d="m 228.2,248.4 4.1,-11.2 -6.2,10 0.2,2.4 1.9,-1.2"
           id="path76" /><path
           d="m 236,241 c -2.6,2.8 -6.7,6.9 -9,9.8 -0.4,-4.1 -1.6,-10.4 -2.3,-14.3 1,3.1 2.2,7.6 3.5,10.2 2.4,-1.2 5.4,-4 7.8,-5.7"
           id="path77" /><path
           d="m 228.4,249 -0.5,-11.8 -2,11.7 1.2,2 1.3,-2"
           id="path78" /><path
           d="m 234.7,242 c -2.5,2.7 -6.5,6.8 -8.7,9.8 -0.5,-4.2 -1.9,-10.5 -2.7,-14.4 1.1,3.2 2.4,7.7 3.8,10.3 2.3,-1.3 5.3,-4 7.6,-5.8"
           id="path79" /><path
           d="m 227.7,250.2 1.3,-12 -3.5,11.3 0.7,2.3 1.5,-1.6"
           id="path80" /><path
           d="m 234.2,242.4 c -2.3,3 -6,7.5 -8,10.6 -0.8,-4 -2.6,-10.2 -3.7,-14 1.3,3 3,7.4 4.5,9.9 2.2,-1.5 5,-4.6 7.2,-6.5"
           id="path81" /><path
           d="m 227.6,251.3 -0.7,-12 -1.5,11.9 1,2 1.2,-2"
           id="path82" /><path
           d="m 234,243 c -2.2,3.2 -5.7,8 -7.5,11.2 -1,-4 -3.2,-10.1 -4.5,-13.9 1.5,3 3.4,7.3 5,9.7 2.2,-1.6 4.8,-4.8 7,-7"
           id="path83" /><path
           d="m 228.4,252.4 1.2,-12 -3.4,11.3 0.7,2.4 1.5,-1.7"
           id="path84" /><path
           d="m 233.5,244.2 c -1.9,3.4 -4.9,8.6 -6.4,12.1 -1.4,-3.9 -4,-9.6 -5.7,-13.2 1.8,2.8 4,6.8 5.9,9 2,-2 4.3,-5.5 6.2,-8"
           id="path85" /><path
           d="m 228,253.4 -3.4,-11.4 1.1,12 1.6,1.7 0.7,-2.3"
           id="path86" /><path
           d="m 233.4,245.5 c -2,3.4 -5,8.6 -6.6,12.1 -1.5,-3.9 -4.1,-9.6 -5.8,-13.2 1.8,2.8 4,6.8 6,9 2,-2 4.5,-5.5 6.4,-7.9"
           id="path87" /><path
           d="m 228.1,255.6 -1.2,-12 -1.1,12 1.2,2 1.1,-2"
           id="path88" /><path
           d="m 233.6,246.6 c -2,3.4 -5.2,8.4 -6.8,11.9 -1.4,-3.9 -4,-9.7 -5.6,-13.3 1.8,2.8 4,6.8 5.8,9 2.2,-1.8 4.6,-5.3 6.6,-7.6"
           id="path89" /><path
           d="m 228,256.5 -2.2,-11.8 -0.1,12.1 1.3,1.9 1,-2.2"
           id="path90" /><path
           d="m 232.8,248.3 c -2.2,3.2 -5.6,8 -7.4,11.4 -1.2,-4 -3.5,-10 -5,-13.6 1.7,2.9 3.7,7 5.4,9.4 2.2,-1.8 4.9,-5 7,-7.2"
           id="path91" /><path
           d="m 227,257.8 1,-12 -3.3,11.4 0.8,2.3 1.5,-1.7"
           id="path92" /><path
           d="m 232.9,248.6 c -1.8,3.5 -4.8,8.8 -6.3,12.3 -1.5,-3.8 -4.4,-9.4 -6.2,-12.9 2,2.7 4.3,6.6 6.3,8.6 2,-2 4.3,-5.6 6.2,-8"
           id="path93" /><path
           d="m 226.6,258.8 -3.7,-11.2 1.4,12 1.6,1.6 0.7,-2.4"
           id="path94" /><path
           d="m 232.4,249.5 c -1.3,3.8 -3.4,9.7 -4.4,13.5 -2,-3.4 -5.7,-8.3 -8,-11.3 2.3,2.2 5.2,5.5 7.5,7 1.7,-2.3 3.4,-6.4 4.9,-9.2"
           id="path95" /><path
           d="m 229.9,259.8 -4,-11.1 1.7,11.9 1.6,1.5 0.7,-2.4"
           id="path96" /><path
           d="m 232.4,250.7 c -1.3,3.8 -3.4,9.7 -4.3,13.5 -2,-3.4 -5.8,-8.2 -8,-11.2 2.2,2.2 5.1,5.4 7.4,7 1.7,-2.4 3.4,-6.5 4.9,-9.3"
           id="path97" /><path
           d="m 229.9,261.6 -5.2,-10.3 3,11.5 1.8,1.3 0.4,-2.5"
           id="path98" /><path
           d="m 232,251.6 c -0.8,4 -2.2,10.1 -2.7,14 -2.5,-3 -6.7,-7.3 -9.3,-10 2.5,2 5.8,4.7 8.2,6 1.4,-2.7 2.6,-7 3.8,-10"
           id="path99" /><path
           d="m 230.2,263.3 -2.7,-11.7 0.4,12.1 1.5,1.8 0.8,-2.2"
           id="path100" /><path
           d="m 232,252.9 c -0.4,4 -1.3,10.3 -1.3,14.3 -2.8,-2.7 -7.4,-6.4 -10.2,-8.7 2.7,1.5 6.2,3.9 8.7,4.8 1.1,-2.8 2,-7.3 2.8,-10.4"
           id="path101" /><path
           d="m 230.4,264.1 -7.4,-8.4 5.6,10.2 2,0.7 -0.2,-2.5"
           id="path102" /><path
           d="m 232.2,254.3 c -0.5,4 -1.4,10.3 -1.4,14.3 -2.8,-2.7 -7.4,-6.4 -10.2,-8.7 2.7,1.5 6.2,3.9 8.7,4.8 1.2,-2.8 2,-7.2 2.9,-10.4"
           id="path103" /><path
           d="m 231.2,266 a 602.2,602.2 0 0 1 -5.7,-10 l 3.6,11.3 1.9,1.2 0.2,-2.4"
           id="path104" /><path
           d="m 232.5,256 c -0.3,4 -0.9,10.4 -0.8,14.4 -2.9,-2.6 -7.6,-6 -10.5,-8.1 2.7,1.3 6.3,3.5 8.9,4.2 1,-2.9 1.6,-7.3 2.4,-10.5"
           id="path105" /><path
           d="m 232,268 c -0.2,0 -7,-9 -7,-9 l 5,10.6 2,0.8 V 268"
           id="path106" /><path
           d="m 232.6,257.9 c -0.3,4 -0.8,10.4 -0.7,14.4 a 128,128 0 0 0 -10.6,-8 c 2.7,1.3 6.4,3.4 9,4.1 1,-2.9 1.5,-7.3 2.3,-10.5"
           id="path107" /><path
           d="m 232.6,269.4 -5,-10.6 2.8,11.6 1.7,1.5 0.5,-2.5"
           id="path108" /><path
           d="m 232.8,259 c 0,4.2 0.1,10.6 0.6,14.5 -3,-2 -8.1,-4.9 -11.2,-6.6 2.8,1 6.6,2.7 9.2,3 0.7,-3 1,-7.5 1.3,-10.8"
           id="path109" /><path
           d="m 233.4,269 -9,-6.1 7.6,8.3 2.1,0.2 -0.7,-2.4"
           id="path110" /><path
           d="m 233,259.5 c 0.4,4.1 0.7,10.5 1.4,14.4 a 128,128 0 0 0 -11.5,-6.1 c 2.8,0.8 6.7,2.3 9.3,2.6 0.6,-3 0.6,-7.6 0.8,-10.9"
           id="path111" /><path
           d="m 234.4,271.3 -7.5,-8.6 5.7,10.3 2,0.8 -0.2,-2.5"
           id="path112" /><path
           d="m 233.7,261 c 0.5,4.2 1.1,10.5 2,14.4 -3.3,-1.8 -8.5,-4 -11.8,-5.5 3,0.7 6.8,2 9.5,2.1 0.4,-3 0.2,-7.6 0.3,-11"
           id="path113" /><path
           d="m 235.8,272.7 -8.8,-6.2 7.5,8.5 h 2 l -0.7,-2.3"
           id="path114" /><path
           d="m 234,262.8 c 0.8,4 1.8,10.3 2.9,14.2 -3.4,-1.6 -8.7,-3.3 -12,-4.4 2.9,0.4 6.9,1.3 9.5,1.2 0.2,-3.1 -0.3,-7.6 -0.4,-11"
           id="path115" /><path
           d="m 236.8,274 -7.3,-8.7 5.5,10.4 2,0.8 -0.2,-2.5"
           id="path116" /><path
           d="m 234.4,264 c 1.2,3.9 2.8,10 4.3,13.7 -3.5,-1 -9,-2.1 -12.3,-2.8 2.9,0 6.9,0.4 9.5,0 0,-3.2 -1,-7.6 -1.5,-11"
           id="path117" /><path
           d="m 237.2,274 -10.2,-2.2 9.7,4.8 2,-0.7 -1.5,-1.9"
           id="path118" /><path
           d="m 235.1,265.2 c 1.2,3.9 2.8,10 4.2,13.7 -3.5,-1 -9,-2.1 -12.3,-2.8 2.9,0 7,0.4 9.5,0 0,-3.2 -1,-7.6 -1.4,-11"
           id="path119" /><path
           d="m 238.9,275 c 0,0.2 -9.8,-4.7 -9.8,-4.7 l 8.8,7.2 2,-0.2 -1,-2.2"
           id="path120" /><path
           d="m 234.6,265.9 c 2,3.5 4.8,9.2 7,12.5 -3.6,-0.3 -9.2,-0.1 -12.6,0 2.8,-0.7 6.8,-1.2 9.2,-2.2 -0.6,-3 -2.5,-7.2 -3.6,-10.3"
           id="path121" /><path
           d="m 240.4,276.1 -10.2,-2.8 9.6,5.4 2,-0.6 -1.4,-2"
           id="path122" /><path
           d="m 235.7,267.4 c 2,3.5 4.8,9.2 7,12.4 -3.6,-0.2 -9.2,0 -12.6,0.2 2.9,-0.7 6.9,-1.3 9.3,-2.3 -0.8,-3 -2.6,-7.2 -3.8,-10.3"
           id="path123" /><path
           d="m 241.7,277 -9.5,-5.7 8.3,8 h 2.2 l -1,-2.3"
           id="path124" /><path
           d="m 236.4,268.3 c 2.3,3.3 5.7,8.6 8.2,11.6 -3.6,0.2 -9,1.2 -12.4,1.8 2.8,-1 6.6,-2.2 8.9,-3.6 -1,-3 -3.3,-6.8 -4.7,-9.8"
           id="path125" /><path
           d="m 242.4,277.8 -10.2,-0.2 10.1,3 1.8,-1.1 -1.7,-1.7 m 6,-49.6 7.3,-1.3 -7.3,0.2 -1.3,0.7 1.3,0.4"
           id="path126" /><path
           d="m 252.4,229.7 c -2.1,-0.6 -5.4,-1.7 -7.6,-2.2 a 97,97 0 0 0 8,-3.6 c -1.7,1 -4,2.4 -5.3,3.4 1.2,0.8 3.4,1.7 5,2.4"
           id="path127" /><path
           d="m 248,228.4 7.2,-2 -7.4,1 -1.1,0.8 1.3,0.2"
           id="path128" /><path
           d="m 252.8,230.3 c -2.5,-0.3 -6.4,-0.8 -8.8,-0.8 1.8,-1.6 4.4,-4.4 6,-6 -1,1.5 -2.8,3.6 -3.5,5.1 1.7,0.7 4.4,1.1 6.3,1.7"
           id="path129" /><path
           d="m 245.4,229 7.4,-1 -7.2,-0.1 -1.4,0.6 1.2,0.4"
           id="path130" /><path
           d="m 250.9,230.5 c -2.3,-0.4 -5.7,-1.2 -8,-1.4 2.1,-1 5.3,-3 7.3,-4 -1.5,1 -3.6,2.5 -4.7,3.5 1.4,0.7 3.7,1.3 5.4,2"
           id="path131" /><path
           d="m 244.8,228.8 6.5,-2.8 -7.2,2 -0.8,0.8 h 1.5"
           id="path132" /><path
           d="m 250.7,231.4 c -2,-0.8 -4.8,-2.1 -6.7,-2.7 1.5,-1.3 3.5,-3.7 4.8,-5.1 -1,1.4 -2.3,3.3 -2.8,4.7 1.2,1 3.2,2.1 4.7,3"
           id="path133" /><path
           d="m 245.1,229.3 5.1,-2.2 -5.5,0.8 -0.7,1 1.1,0.4 M 241,277 h -10.6 l 10.7,2.7 1.8,-1.2 -2,-1.5"
           id="path134" /><path
           d="M 242.8,277.6 232,275 l 10.3,5 2,-0.6 -1.6,-2"
           id="path135" /><path
           d="m 244.5,278.3 -10.6,-0.6 10.6,3.3 1.8,-1 -1.8,-1.7"
           id="path136" /><path
           d="m 237.8,270.8 c 2.7,3 6.9,7.9 9.8,10.6 -3.6,0.5 -9,2 -12.2,2.8 2.6,-1.2 6.3,-2.7 8.4,-4.2 -1.4,-2.8 -4.2,-6.4 -6,-9.2"
           id="path137" /><path
           d="m 246,278.8 -10.6,-3.5 10,6 2,-0.5 -1.4,-2"
           id="path138" /><path
           d="m 238.8,271.5 c 3,2.7 7.5,7.1 10.6,9.5 -3.4,1 -8.5,3.1 -11.6,4.4 2.4,-1.6 6,-3.5 7.8,-5.3 -1.6,-2.7 -4.8,-6 -6.8,-8.6"
           id="path139" /><path
           d="m 246.8,279.5 -10,2 10.6,0.7 1.5,-1.5 -2,-1.2"
           id="path140" /><path
           d="m 244.8,278.8 -10.5,0.8 10.8,1.9 1.7,-1.3 -2,-1.4"
           id="path141" /><path
           d="m 246.7,279.4 -10.9,-1.7 10.7,4.3 2,-0.8 z"
           id="path142" /><path
           d="m 248.5,280 -10.6,0.2 10.8,2.4 1.7,-1.1 z"
           id="path143" /><path
           d="m 241.2,273 c 3,2.8 7.5,7.4 10.6,9.8 -3.6,0.8 -8.8,2.6 -12,3.7 2.5,-1.4 6.1,-3 8.1,-4.7 -1.6,-2.8 -4.7,-6.2 -6.7,-8.8 z"
           id="path144" /><path
           d="m 250,280.4 -10.8,-2.7 10.4,5.2 2,-0.6 z"
           id="path145" /><path
           d="m 242.2,273.6 c 3.3,2.5 8.1,6.6 11.4,8.7 a 168,168 0 0 0 -11.3,5.2 c 2.3,-1.7 5.7,-3.9 7.4,-5.8 -1.8,-2.6 -5.2,-5.6 -7.5,-8.1 z"
           id="path146" /><path
           d="m 251,281 -10,2.7 h 10.7 l 1.3,-1.6 z"
           id="path147" /></g><path
         fill="#fedf00"
         stroke="#000000"
         stroke-width="0.5"
         d="m 264.6,266.1 -8.1,-5.6 -8,5.6 3,-9 -7.1,-5.5 h 9 l 3.1,-9 3,9 h 9.1 l -7,5.6 3,9 z"
         id="path148" /></g><g
       fill-rule="evenodd"
       stroke-width="1pt"
       id="g4"
       transform="matrix(0.09168702,0,0,0.2649247,81.734432,19.047497)"><path
         fill="#ff0000"
         d="M -17.089737,0.82441224 H 494.91026 V 512 H -17.089737 Z"
         id="path1-7"
         style="stroke-width:0.999195pt" /><g
         fill="#ffffff"
         id="g3"
         transform="matrix(0.87408254,0,0,0.73526546,24.859844,68.072728)"><path
           d="M 54.672302,230.42401 H 455.44917 v 38.29115 H 54.672302 Z"
           id="path2-6"
           style="stroke-width:0.706789pt" /><path
           d="m 208,171.18639 h 96 V 341.8029 h -96 z"
           id="path3-1"
           style="stroke-width:0.730189pt" /></g></g><g
       id="g1"
       transform="matrix(0.08803781,0,0,0.26449813,172.64248,19.309529)"><path
         fill="#ffcc00"
         d="M 0,341.3 H 512 V 512 H 0 Z"
         id="path1" /><path
         fill="#000001"
         d="M 0,0 H 512 V 170.7 H 0 Z"
         id="path2" /><path
         fill="#ff0000"
         d="M 0,170.7 H 512 V 341.3 H 0 Z"
         id="path3" /></g></g></svg>
