<?xml version="1.0" encoding="UTF-8" standalone="no"?>
<!-- Uploaded to: SVG Repo, www.svgrepo.com, Generator: SVG Repo Mixer Tools -->

<svg
   fill="#000000"
   version="1.1"
   id="Layer_1"
   viewBox="0 0 72 72"
   enable-background="new 0 0 72 72"
   xml:space="preserve"
   xmlns="http://www.w3.org/2000/svg"
   xmlns:svg="http://www.w3.org/2000/svg"><defs
   id="defs12" />
<g
   id="g12">
	<path
   d="M 57.004087,32.63811 35.898989,12.835451 c -0.346635,-0.33164 -0.81865,-0.544029 -1.311867,-0.544029 H 16.043989 C 12.735283,12.291422 10,14.692113 10,18.186086 V 61.827663 C 10,65.085745 12.45779,68 16.043989,68 h 35.15857 c 3.379691,0 6.736336,-2.623526 6.736336,-6.172337 V 33.875014 c 0,-0.457856 -0.594627,-0.911358 -0.934808,-1.236904 z M 35.813251,17.611591 52.722776,33.182139 H 39.133942 c -2.082576,0 -3.320691,-1.756561 -3.320691,-3.600167 z m 15.389308,46.906623 h -35.15857 c -1.567234,0 -2.356382,-1.330913 -2.356382,-2.691421 V 18.186086 c 0,-1.350063 0.862901,-2.412878 2.356382,-2.412878 h 17.772423 l 0.153036,0.141012 v 13.667752 c 0,2.773242 2.093639,5.341059 5.164494,5.341059 h 15.117346 v 26.904632 c 0,1.36312 -1.576453,2.690551 -3.048729,2.690551 z"
   id="path1"
   style="stroke-width:0.895805" />
	
	
	
	
	
	
	
	
	
	
	
<text
   xml:space="preserve"
   style="font-weight:bold;font-size:7.07663px;font-family:'Segoe UI';-inkscape-font-specification:'Segoe UI, Bold';text-align:start;writing-mode:lr-tb;direction:ltr;text-anchor:start;fill:#1a1a1a;stroke-width:3.69548;stroke-miterlimit:3.4;stroke-dasharray:7.39097, 3.69548"
   x="21.864101"
   y="38.504951"
   id="text12"
   transform="scale(0.87065868,1.1485557)"><tspan
     id="tspan12"
     x="21.864101"
     y="38.504951"
     style="stroke-width:3.69548">Dokument</tspan></text></g>
</svg>
