<?xml version="1.0" encoding="UTF-8" standalone="no"?>
<!-- Created with Inkscape (http://www.inkscape.org/) -->

<svg
   width="50mm"
   height="50mm"
   viewBox="0 0 50 50"
   version="1.1"
   id="svg1"
   inkscape:version="1.4 (86a8ad7, 2024-10-11)"
   sodipodi:docname="location.svg"
   xmlns:inkscape="http://www.inkscape.org/namespaces/inkscape"
   xmlns:sodipodi="http://sodipodi.sourceforge.net/DTD/sodipodi-0.dtd"
   xmlns="http://www.w3.org/2000/svg"
   xmlns:svg="http://www.w3.org/2000/svg">
  <sodipodi:namedview
     id="namedview1"
     pagecolor="#ffffff"
     bordercolor="#000000"
     borderopacity="0.25"
     inkscape:showpageshadow="2"
     inkscape:pageopacity="0.0"
     inkscape:pagecheckerboard="0"
     inkscape:deskcolor="#d1d1d1"
     inkscape:document-units="mm"
     inkscape:zoom="1.5162318"
     inkscape:cx="33.636019"
     inkscape:cy="99.259232"
     inkscape:window-width="1920"
     inkscape:window-height="1111"
     inkscape:window-x="2391"
     inkscape:window-y="-9"
     inkscape:window-maximized="1"
     inkscape:current-layer="layer1" />
  <defs
     id="defs1" />
  <g
     inkscape:label="Layer 1"
     inkscape:groupmode="layer"
     id="layer1">
    <g
       id="g2"
       transform="matrix(0.15229783,0,0,0.15700439,-17.550174,-16.189007)">
      <path
         style="fill:#000000;fill-opacity:1"
         d="m 274.19124,230.33324 c -1.55629,0.30008 -4.12401,0.35475 -5.95682,1.68613 -2.5349,1.8414 -2.29964,4.53033 -1.43183,6.4189 6.34427,13.80663 11.37751,21.74554 12.54509,24.71848 4.5045,-1.7023 -8.52311,5.18733 -10.18691,4.29633 -2.79981,-10.20025 -13.20985,-27.49707 -12.32132,-33.31775 0.37704,-2.46993 2.63169,-8.4134 5.02957,-10.19385 2.58788,-1.92152 7.47336,-3.76501 9.91571,-3.65686 5.21036,0.23072 9.3074,3.6541 12.78389,7.13058 4.35505,4.35505 16.0111,19.39701 15.65706,19.71233 -0.79793,0.71067 -4.26894,4.86564 -5.39615,5.51353 -1.00679,0.57867 -12.89914,-19.14849 -20.63829,-22.30782 z m -32.18844,37.4501 c -2.7961,-1.12825 -1.09572,-5.08311 4.78576,-11.1311 3.31967,-3.41364 6.43753,-6.20662 6.92857,-6.20662 1.08983,0 4.03567,2.85068 4.03567,3.90531 0,1.13498 -12.613,14.1075 -13.62731,14.01574 -0.47998,-0.0434 -1.43519,-0.30592 -2.12269,-0.58333 z m -12.58333,-29.00439 c -1.27305,-1.27304 -0.65783,-5.12275 0.91512,-5.72634 2.90711,-1.11556 16.9673,-0.6579 18.21821,0.59301 1.69411,1.69411 1.48967,4.47487 -0.38179,5.19301 -2.14719,0.82396 -17.9181,0.77377 -18.75154,-0.0597 z M 246.48633,215.415 c -4.20315,-4.32214 -5.77521,-6.65938 -5.54907,-8.25 0.59065,-4.15442 4.30927,-3.31142 10.27302,2.32885 5.9844,5.65979 7.35269,8.27065 5.50269,10.49976 -2.1112,2.54384 -4.2172,1.60095 -10.22664,-4.57861 z m 41.30003,4.09332 c -0.85804,-1.60326 -0.32918,-2.76713 3.06721,-6.75 5.30863,-6.22531 7.89984,-8.26305 10.54224,-8.29046 5.30106,-0.055 3.24996,5.13463 -5.05492,12.78979 -5.02338,4.6304 -7.0023,5.15104 -8.55453,2.25067 z m -17.78356,-6.70648 c -0.87402,-0.36561 -1.25,-3.34472 -1.25,-9.90437 0,-8.12601 0.24916,-9.51483 1.86186,-10.37792 1.29974,-0.6956 2.3687,-0.62583 3.54062,0.2311 1.40645,1.02842 1.63162,2.76589 1.38814,10.71126 -0.26493,8.64537 -0.46742,9.50047 -2.29062,9.67326 -1.1,0.10426 -2.5625,-0.0457 -3.25,-0.33333 z"
         id="path2"
         sodipodi:nodetypes="csssssssssscsssssssssssssssssssssssssssss" />
      <path
         style="fill:#ffffff;fill-opacity:1;stroke:#000000;stroke-width:14.5172;stroke-miterlimit:3.4;stroke-dasharray:none;stroke-opacity:1"
         d="m 306.98565,360.4355 c 0,0 33.28692,-41.97833 34.4502,-44.1387 2.63766,-4.89855 9.90473,-14.99753 23.80961,-33.06048 3.89684,-5.06213 6.67474,-26.75919 8.98878,-24.24132 24.66599,26.83863 45.60923,61.99066 46.77251,65.64668 1.16328,3.65601 2.48609,29.69765 2.31991,34.0184 -0.16618,4.32075 -60.64999,47.57723 -63.97364,47.24487 -3.32365,-0.33237 -52.36737,-45.46945 -52.36737,-45.46945 z"
         id="path4"
         sodipodi:nodetypes="cssssssc" />
      <path
         style="fill:#000000;stroke-width:18.8976;stroke-dasharray:none"
         d="m 250.36386,413.02446 c -3.029,-1.64288 -6.04458,-5.21658 -56.73108,-67.23104 -42.48497,-51.97995 -42.88706,-52.50802 -48.87455,-64.18707 -9.28114,-18.10356 -12.55427,-31.68459 -12.53239,-52 0.0135,-12.52542 0.39459,-15.99796 2.79861,-25.5 6.63521,-26.22618 22.40187,-49.84215 44.36233,-66.44776 7.84308,-5.93063 27.77226,-16.0057 37.4457,-18.93046 35.83544,-10.83479 75.81162,-6.10728 105.39126,12.46339 27.91306,17.52435 46.76325,42.38276 54.53318,71.91483 2.05639,7.81595 2.36844,11.30233 2.37189,26.5 0.002,10.88186 -0.4918,19.65641 -1.30698,23.20208 -1.26583,5.50582 -1.39714,5.6693 -3.8151,4.75 -6.84381,-2.60202 -17.79813,0.57168 -21.06565,6.10316 -2.22134,3.76043 -3.53223,4.16697 -7.75168,2.40397 -8.16642,-3.41215 -16.80531,-0.4651 -21.72518,7.51654 -3.03592,5.98869 -16.32046,-16.46714 -18.64876,-19.70985 -5.16221,-6.9841 -5.91221,-6.7341 -3.7038,-10.25 14.68473,-23.37882 5.65208,-54.88053 -19.4862,-67.9589 -21.33381,-11.09907 -44.49436,-8.40924 -61.52959,7.14594 -17.1873,15.69405 -21.22741,37.52402 -10.76743,58.17985 4.68772,9.25708 16.6149,19.69858 26.47544,23.17758 5.97351,3.86882 11.1577,3.49836 18.04017,3.31099 12.38844,0.16974 15.32962,-1.66919 15.54273,-1.07709 0.35533,0.98727 27.02643,44.53057 34.54431,56.39711 4.75218,7.50105 8.71379,9.79132 10.39267,9.79882 3.4318,0.0154 4.58546,-4.01115 1.72112,-9.66366 -2.26736,-4.47442 -20.02061,-31.75884 -32.5257,-53.05115 l -3.88584,-6.61639 c -1.01404,-1.7266 6.94386,-4.54051 9.74076,-6.80123 l 4.99132,-4.03446 c 9.92936,12.42599 19.72163,28.1617 31.11558,39.9716 0.92937,0.9633 1.75373,-1.91034 2.15178,-8.14368 0.44919,-7.03415 0.7851,-8.07472 3.30576,-10.24049 2.06987,-1.77845 3.99157,-2.41074 7.32693,-2.41074 4.82755,0 6.5694,1.27971 12.63078,9.27962 4.02271,5.30926 5.73653,4.13328 5.73653,-3.93627 0,-8.46601 1.80031,-11.90363 7.05919,-13.47923 2.78168,-0.83341 4.8909,-0.90849 6.74417,-0.24006 3.89156,1.40358 3.38461,5.0802 -2.28613,16.57998 -5.4285,11.00852 -9.23411,16.12773 -37.87096,50.94301 -11.46956,13.94412 -21.46162,26.2114 -22.20459,27.26062 -1.29498,1.82877 4.34003,-3.49319 0.0729,-6.98981 -5.25311,-4.30453 -7.71279,-6.66219 -8.63955,-12.21785 -0.53033,-3.17918 -0.4111,-4.07175 1.65593,-7.72262 1.71424,-3.02776 -0.44111,-5.84954 -2.85825,-6.76867 -2.31291,-0.87949 -5.62674,1.26475 -8.37565,5.41955 -2.37248,3.58584 -2.78895,5.22554 -2.7438,10.80276 0.0681,8.4077 5.36752,16.79342 10.57022,20.76104 l 4.78021,3.64543 -3.79598,4.58125 c -2.08779,2.51969 -8.2235,9.98125 -13.63491,16.58125 -5.41141,6.6 -12.46452,15.1939 -15.67357,19.09756 -7.78182,9.46622 -12.48075,11.39342 -19.06812,7.82055 z"
         id="path3"
         sodipodi:nodetypes="ssssssssscssssssssssssssssssscsssssssssssssssssscsssss" />
    </g>
  </g>
</svg>
