<?xml version="1.0" encoding="UTF-8" standalone="no"?>
<svg
   viewBox="0 0 500 500"
   preserveAspectRatio="xMidYMid"
   version="1.1"
   id="svg1"
   class="svgLocation"

   sodipodi:docname="location.svg"
   inkscape:version="1.4 (86a8ad7, 2024-10-11)"
   width="500"
   height="500"
   xml:space="preserve"
   xmlns:inkscape="http://www.inkscape.org/namespaces/inkscape"
   xmlns:sodipodi="http://sodipodi.sourceforge.net/DTD/sodipodi-0.dtd"
   xmlns="http://www.w3.org/2000/svg"
   xmlns:svg="http://www.w3.org/2000/svg"><defs
     id="defs1" /><sodipodi:namedview
     id="namedview1"
     pagecolor="#ffffff"
     bordercolor="#000000"
     borderopacity="0.25"
     inkscape:showpageshadow="2"
     inkscape:pageopacity="0.0"
     inkscape:pagecheckerboard="0"
     inkscape:deskcolor="#d1d1d1"
     showgrid="false"
     inkscape:zoom="11.313709"
     inkscape:cx="274.09227"
     inkscape:cy="242.93537"
     inkscape:window-width="1920"
     inkscape:window-height="1111"
     inkscape:window-x="2391"
     inkscape:window-y="-9"
     inkscape:window-maximized="1"
     inkscape:current-layer="g2" /><g
     id="g4"><g
       id="g2"
       transform="translate(-638.51739,-4.9497472)"><path
         style="fill:#000000;fill-opacity:1"
         d="m 883.72296,221.63806 c -13.86616,3.20569 7.77347,29.96929 12.08987,36.71491 0.4532,0.67454 0.34063,-3.11586 -0.98006,-2.32439 -2.75158,1.64887 -8.88006,5.56054 -9.47771,4.68959 -32.67422,-47.61608 -3.29363,-48.54564 -1.4888,-48.55836 5.21534,-0.0367 8.48252,3.04706 12.13269,6.34071 4.57263,4.12602 20.58463,22.28285 20.24722,22.61591 -0.76044,0.75065 -4.43354,4.82091 -5.52605,5.52575 -1.70864,1.10232 -17.8101,-25.46969 -26.99716,-25.00412 z m -28.16402,37.36003 c -2.85028,-0.9834 -1.35492,-5.02024 4.20872,-11.36185 3.14027,-3.57936 6.11082,-6.52853 6.60121,-6.55371 1.0884,-0.0559 4.17653,2.64 4.23061,3.69324 0.0582,1.13349 -11.87305,14.73567 -12.89074,14.69604 -0.48157,-0.0187 -1.44898,-0.23193 -2.1498,-0.47372 z m -14.05397,-26.32103 c -0.7768,-1.16502 -0.91963,-5.08228 0.6203,-5.76573 2.84608,-1.26315 16.91125,-1.52703 18.22465,-0.3419 1.77875,1.60501 1.71716,4.3926 -0.11502,5.20575 -2.10211,0.93297 -17.6418,2.53384 -18.64154,1.03444 z m 15.84643,-24.20831 c -4.41924,-4.10094 -6.10907,-6.3545 -5.96479,-7.95463 0.37686,-4.17924 4.13381,-3.52802 10.37892,1.79905 6.26673,5.34549 7.76709,7.88276 6.03382,10.20379 -1.97798,2.64875 -4.12956,1.81508 -10.44795,-4.04821 z m 41.45559,1.97029 c -0.93912,-1.55716 -0.47063,-2.74662 2.71707,-6.8984 4.98244,-6.48931 7.46576,-8.65724 10.10328,-8.8201 5.29127,-0.32674 3.50896,4.96124 -4.39248,13.03216 -4.77935,4.88188 -6.72897,5.5033 -8.42787,2.68634 z m -18.10404,-5.78582 c -0.89162,-0.32031 -1.41986,-3.27622 -1.7562,-9.82724 -0.41666,-8.11533 -0.23904,-9.51509 1.32728,-10.45974 1.26237,-0.76133 2.3335,-0.74646 3.54782,0.0493 1.45733,0.95495 1.77129,2.67859 1.93553,10.626 0.1787,8.64758 0.0203,9.51194 -1.79162,9.77798 -1.0932,0.16053 -2.56147,0.0858 -3.26281,-0.16625 z"
         id="path2"
         sodipodi:nodetypes="sssssssssssssssssssssssssssssssssssssss" /><g
         id="g3"
         transform="translate(615.99997,-5.9999997)"><path
           style="fill:#ffffff;fill-opacity:1;stroke:#000000;stroke-width:14.7333;stroke-miterlimit:3.4;stroke-dasharray:none;stroke-opacity:1"
           d="m 311.12188,363.55687 c 2.3471,-3.44249 -24.38769,6.13119 51.64598,-74.42983 4.45564,-4.72095 -1.96835,-19.15879 1.00508,-20.92613 10.57995,-6.28851 57.42124,51.097 58.5975,54.82111 5.56806,37.50538 -32.14802,67.46375 -62.34158,82.77654 -3.36073,-0.33856 -48.90698,-42.24169 -48.90698,-42.24169 z"
           id="path4"
           sodipodi:nodetypes="cssssc" /><path
           style="fill:#000000;stroke-width:18.8976;stroke-dasharray:none"
           d="m 250.36386,413.02446 c -3.029,-1.64288 -6.04458,-5.21658 -56.73108,-67.23104 -42.48497,-51.97995 -42.88706,-52.50802 -48.87455,-64.18707 -9.28114,-18.10356 -12.55427,-31.68459 -12.53239,-52 0.0135,-12.52542 0.39459,-15.99796 2.79861,-25.5 6.63521,-26.22618 22.40187,-49.84215 44.36233,-66.44776 7.84308,-5.93063 27.77226,-16.0057 37.4457,-18.93046 35.83544,-10.83479 75.81162,-6.10728 105.39126,12.46339 27.91306,17.52435 46.76325,42.38276 54.53318,71.91483 2.05639,7.81595 2.36844,11.30233 2.37189,26.5 0.002,10.88186 -0.4918,19.65641 -1.30698,23.20208 -1.26583,5.50582 -1.39714,5.6693 -3.8151,4.75 -6.84381,-2.60202 -17.79813,0.57168 -21.06565,6.10316 -2.22134,3.76043 -3.53223,4.16697 -7.75168,2.40397 -8.16642,-3.41215 -15.68031,-1.9651 -20.60018,6.01654 -3.03592,5.98869 -17.44546,-14.96714 -19.77376,-18.20985 -5.16221,-6.9841 -5.91221,-6.7341 -3.7038,-10.25 14.68473,-23.37882 5.65208,-54.88053 -19.4862,-67.9589 -21.33381,-11.09907 -44.49436,-8.40924 -61.52959,7.14594 -17.1873,15.69405 -21.22741,37.52402 -10.76743,58.17985 4.68772,9.25708 16.6149,19.69858 26.47544,23.17758 5.97351,3.86882 11.1577,3.49836 18.04017,3.31099 12.38844,0.16974 15.32963,-1.66919 15.54273,-1.07709 0.22702,0.63076 11.19571,18.63221 21.04842,34.6455 5.56882,9.05083 10.78113,17.46652 13.49589,21.75161 4.75218,7.50105 8.71379,9.79132 10.39267,9.79882 3.4318,0.0154 4.58546,-4.01115 1.72112,-9.66366 -2.26736,-4.47442 -19.94403,-31.804 -32.5257,-53.05115 l -2.73971,-4.62665 -2.068,-3.36474 c -0.14097,-0.22935 6.91482,-4.09981 9.97513,-5.98873 l 5.92882,-3.65946 c 9.24186,12.86349 19.47163,28.3492 30.86558,40.1591 0.92937,0.9633 1.75373,-1.91034 2.15178,-8.14368 0.44919,-7.03415 0.7851,-8.07472 3.30576,-10.24049 2.06987,-1.77845 3.99157,-2.41074 7.32693,-2.41074 4.82755,0 6.5694,1.27971 12.63078,9.27962 4.02271,5.30926 5.73653,4.13328 5.73653,-3.93627 0,-8.46601 1.80031,-11.90363 7.05919,-13.47923 2.78168,-0.83341 4.8909,-0.90849 6.74417,-0.24006 3.89156,1.40358 3.38461,5.0802 -2.28613,16.57998 -5.4285,11.00852 -9.23411,16.12773 -37.87096,50.94301 -11.46956,13.94412 -21.46162,26.2114 -22.20459,27.26062 -1.29498,1.82877 4.34003,-3.49319 0.0729,-6.98981 -5.25311,-4.30453 -7.71279,-6.66219 -8.63955,-12.21785 -0.53033,-3.17918 -0.4111,-4.07175 1.65593,-7.72262 1.71424,-3.02776 -0.44111,-5.84954 -2.85825,-6.76867 -2.31291,-0.87949 -5.62674,1.26475 -8.37565,5.41955 -2.37248,3.58584 -2.78895,5.22554 -2.7438,10.80276 0.0681,8.4077 5.7427,17.05168 10.57022,21.46815 l 3.98471,3.64543 -3.00048,3.87414 c -2.00367,2.58708 -8.2235,9.98125 -13.63491,16.58125 -5.41141,6.6 -12.46452,15.1939 -15.67357,19.09756 -7.78182,9.46622 -12.48075,11.39342 -19.06812,7.82055 z"
           id="path3"
           sodipodi:nodetypes="ssssssssscsssssssssssssssssscsscsssssssssssssssssscsssss" /></g></g></g><g
     transform="matrix(0.02679972,0,0,-0.02527186,590.92862,431.03237)"
     fill="#000000"
     id="g1" /></svg>
