<?xml version="1.0" encoding="UTF-8" standalone="no"?>
<!-- Uploaded to: SVG Repo, www.svgrepo.com, Generator: SVG Repo Mixer Tools -->

<svg
   fill="#000000"
   version="1.1"
   viewBox="0 0 489.86 489.86"
   enable-background="new 0 0 489.86 489.86"
   id="svg1"
   xmlns="http://www.w3.org/2000/svg"
   xmlns:svg="http://www.w3.org/2000/svg">
  <defs
     id="defs1">
    <rect
       x="132.97022"
       y="301.05379"
       width="233.12961"
       height="82.314898"
       id="rect1" />
  </defs>
  <g
     id="g1"
     transform="matrix(0.69917748,0,0,0.6659613,147.36087,163.55537)">
    <path
       d="m 476.5311,-37.275989 -67.6832,-95.315321 c -2.76255,-2.85802 -6.63016,-5.00155 -10.49776,-5.57315 L 144.1929,-220.47572 c -2.9007,-1.42902 -5.8014,-1.42902 -8.7021,0 l -253.1903,82.59707 c -1.3813,0.28579 -7.87336,5.14445 -12.4316,10.71761 l -63.81557,89.885051 c -2.90071,4.429946 -7.32082,15.576272 5.80141,23.864544 l 57.46163,24.436157 V 354.27414 c 0,6.00187 2.90071,10.43181 8.70214,13.43276 L 134.1095,476.31204 c 5.24891,2.00061 8.01147,2.00061 12.98412,0 L 403.18461,367.7069 c 5.80144,-1.42903 8.70212,-7.43089 8.70212,-13.43276 V 11.596323 l 58.98107,-25.007768 c 12.56972,-6.716366 8.70214,-19.434598 5.6633,-23.864544 z m -635.94555,3.000922 48.62138,-69.593023 L 118.91532,-6.4092718 69.327031,64.041188 Z M 125.5455,440.72955 -101.81468,343.84232 V 23.171341 L 67.945763,95.336602 c 8.425866,2.715134 13.536622,0.285808 17.26611,-4.429933 L 125.5455,34.174766 Z M 141.43034,-30.845429 -72.255091,-121.30207 139.9109,-190.60931 354.28699,-121.15918 Z M 383.0178,343.84232 155.65761,440.58667 V 32.031246 l 41.71493,58.73251 c 2.90071,4.429954 8.97839,7.28798 17.26612,4.429954 L 383.0178,23.742954 Z M 214.63866,64.041188 164.22161,-7.4095671 392.96309,-104.1539 l 50.41704,71.450761 z"
       id="path1"
       style="stroke-width:1.40495" />
    <text
       xml:space="preserve"
       transform="matrix(1.430252,0,0,1.5015888,-210.76318,-245.5929)"
       id="text1"
       style="font-weight:bold;font-size:24.1807px;font-family:'Segoe UI';-inkscape-font-specification:'Segoe UI, Bold';text-align:start;writing-mode:lr-tb;direction:ltr;white-space:pre;shape-inside:url(#rect1);display:inline;fill:#ffffff;stroke-width:12.6274;stroke-miterlimit:3.4;stroke-dasharray:25.2548, 12.6274" />
    <text
       xml:space="preserve"
       style="font-weight:bold;font-size:80.7727px;font-family:'Segoe UI';-inkscape-font-specification:'Segoe UI, Bold';text-align:start;writing-mode:lr-tb;direction:ltr;text-anchor:start;fill:#1a1a1a;stroke-width:42.1801;stroke-miterlimit:3.4;stroke-dasharray:84.36, 42.1801"
       x="80.446266"
       y="301.11615"
       id="text2"
       transform="matrix(0.83660606,-0.37173125,0.40321281,1.0161452,0,0)"><tspan
         id="tspan2"
         style="fill:#1a1a1a;stroke-width:42.1801"
         x="80.446266"
         y="301.11615">Paket</tspan></text>
  </g>
</svg>
